<?xml version="1.0" encoding="UTF-8"?>
<svg xmlns="http://www.w3.org/2000/svg" xmlns:xlink="http://www.w3.org/1999/xlink" width="299pt" height="148pt" viewBox="0 0 299 148" version="1.1">
<g id="surface1">
<path style=" stroke:none;fill-rule:nonzero;fill:rgb(82.352941%,93.72549%,98.039216%);fill-opacity:1;" d="M 85.941406 120.109375 C 79.800781 119.796875 71.539062 118.039062 68.304688 116.363281 C 67.058594 115.71875 67.332031 115.40625 69.964844 114.472656 C 75.8125 112.398438 83.5 111.074219 89.683594 111.082031 C 92.476562 111.082031 97.789062 111.621094 100.734375 112.199219 C 105.523438 113.140625 111.875 115.230469 111.875 115.863281 C 111.875 116.472656 106.941406 118.054688 101.90625 119.058594 C 96.917969 120.054688 91.667969 120.402344 85.941406 120.109375 Z M 22.890625 111.753906 C 22.808594 111.316406 22.625 109.242188 22.484375 107.152344 C 20.882812 83.582031 33.933594 61.007812 55.1875 50.585938 C 63.867188 46.332031 71.769531 44.484375 81.265625 44.488281 C 92.328125 44.496094 101.046875 46.917969 111.496094 52.886719 C 117.253906 56.175781 120.777344 56.992188 124.351562 55.878906 C 126.710938 55.140625 128.046875 53.984375 129.195312 51.683594 C 129.828125 50.417969 129.871094 50.128906 129.871094 47.140625 C 129.875 44.351562 129.800781 43.75 129.277344 42.355469 C 128 38.960938 126.824219 37.414062 123.21875 34.378906 C 121.773438 33.164062 120.191406 31.640625 119.703125 30.992188 C 117.070312 27.503906 117.558594 22.5 120.851562 19.199219 C 122.128906 17.917969 123.464844 17.171875 125.320312 16.695312 C 127.226562 16.203125 128.910156 16.453125 132.445312 17.746094 C 136.574219 19.257812 138.378906 19.75 141.816406 20.308594 C 143.671875 20.613281 145.152344 20.96875 145.105469 21.097656 C 144.96875 21.515625 142.222656 22.914062 138.964844 24.230469 C 135.265625 25.71875 134.117188 26.527344 133.082031 28.367188 C 132.390625 29.597656 132.324219 29.90625 132.324219 31.925781 C 132.324219 34.734375 132.472656 35.003906 136.015625 38.726562 C 138.996094 41.855469 141.035156 44.683594 142.273438 47.414062 C 147.140625 58.132812 145.859375 70.042969 138.84375 79.277344 C 138.238281 80.074219 137.703125 80.617188 137.65625 80.484375 C 137.613281 80.347656 138.296875 76.121094 139.175781 71.089844 C 140.054688 66.058594 140.773438 61.785156 140.773438 61.597656 C 140.773438 61.316406 139.898438 61.253906 135.785156 61.253906 L 130.796875 61.253906 L 130.625 62.542969 C 130.53125 63.25 130.253906 64.878906 130.011719 66.164062 C 129.765625 67.445312 129.324219 69.875 129.03125 71.5625 C 128.402344 75.152344 127.730469 76.859375 126.691406 77.492188 C 125.597656 78.160156 124.695312 78.066406 123.824219 77.191406 C 123.101562 76.46875 123.078125 76.378906 123.21875 74.878906 C 123.296875 74.019531 123.582031 72.121094 123.847656 70.660156 C 125.074219 63.933594 125.347656 62.320312 125.347656 61.800781 L 125.34375 61.246094 L 120.394531 61.3125 L 115.441406 61.378906 L 115.242188 62.480469 C 115.019531 63.714844 114.488281 66.789062 113.339844 73.527344 C 112.285156 79.710938 112.5 81.808594 114.398438 83.796875 C 115.890625 85.351562 116.820312 85.675781 119.835938 85.675781 C 122.972656 85.675781 123.816406 85.351562 125.960938 83.320312 C 126.65625 82.660156 127.285156 82.183594 127.363281 82.257812 C 127.4375 82.332031 127.441406 83.050781 127.367188 83.851562 L 127.234375 85.308594 L 129.902344 85.316406 L 132.570312 85.328125 L 131.714844 86.058594 C 128.839844 88.519531 114.328125 94.082031 100.488281 98.027344 C 94.628906 99.699219 87.21875 101.476562 82.53125 102.335938 L 81.710938 102.484375 L 82.878906 101.425781 C 83.984375 100.425781 84.050781 100.289062 84.152344 98.890625 C 84.25 97.507812 84.207031 97.355469 83.472656 96.515625 C 82.578125 95.496094 81.21875 94.988281 79.992188 95.21875 C 79.484375 95.3125 78.019531 96.238281 76.234375 97.59375 C 71.890625 100.886719 65.484375 104.453125 62.777344 105.082031 L 62.042969 105.253906 L 62.828125 104.421875 C 66.042969 101.011719 65.046875 95.414062 60.820312 93.1875 C 58.089844 91.742188 50.882812 93.445312 42.699219 97.460938 C 36.488281 100.507812 31.796875 103.917969 26.605469 109.160156 C 24.757812 111.027344 23.203125 112.550781 23.144531 112.550781 C 23.085938 112.550781 22.972656 112.191406 22.890625 111.753906 Z M 55.347656 85.695312 C 56.335938 85.507812 57.777344 85.113281 58.546875 84.824219 C 59.898438 84.3125 62.910156 82.3125 62.890625 81.933594 C 62.882812 81.757812 57.003906 77.675781 56.488281 77.488281 C 56.355469 77.4375 55.699219 77.695312 55.03125 78.058594 C 54.058594 78.589844 53.488281 78.722656 52.15625 78.730469 C 49.570312 78.746094 47.960938 77.765625 47.960938 76.171875 L 47.960938 75.488281 L 64.53125 75.488281 L 64.816406 74.242188 C 65.480469 71.363281 64.96875 67.769531 63.546875 65.34375 C 61.53125 61.894531 57.082031 60.1875 51.675781 60.785156 C 45.925781 61.421875 41.417969 64.972656 39.496094 70.378906 C 38.921875 71.992188 38.660156 74.910156 38.910156 76.90625 C 39.457031 81.253906 42.789062 84.636719 47.542969 85.671875 C 49.566406 86.113281 53.128906 86.125 55.347656 85.695312 Z M 48.625 69.90625 C 49.179688 68.421875 51.410156 66.898438 53.039062 66.898438 C 54.839844 66.898438 56.53125 68.222656 56.53125 69.632812 L 56.53125 70.335938 L 52.5 70.335938 C 48.761719 70.335938 48.480469 70.304688 48.625 69.90625 Z M 91.632812 85.125 C 91.695312 84.886719 91.863281 84.03125 92.011719 83.222656 C 93.042969 77.503906 93.277344 76.15625 93.507812 74.628906 C 94.136719 70.507812 95.097656 68.863281 96.875 68.863281 C 97.976562 68.863281 98.570312 69.363281 98.789062 70.472656 C 98.929688 71.179688 98.734375 72.582031 97.675781 78.558594 C 97.390625 80.179688 97.050781 82.164062 96.921875 82.976562 C 96.792969 83.785156 96.632812 84.695312 96.5625 85 L 96.441406 85.554688 L 101.464844 85.554688 C 104.226562 85.554688 106.488281 85.492188 106.488281 85.417969 C 106.488281 85.347656 106.648438 84.492188 106.847656 83.519531 C 107.042969 82.542969 107.3125 81.085938 107.441406 80.277344 C 107.570312 79.464844 108.027344 76.871094 108.453125 74.507812 C 109.445312 69.007812 109.488281 66.996094 108.652344 65.179688 C 107.789062 63.296875 106.933594 62.371094 105.316406 61.574219 C 104.078125 60.964844 103.652344 60.886719 101.589844 60.890625 C 98.769531 60.898438 97.570312 61.363281 95.636719 63.199219 L 94.332031 64.433594 L 93.601562 63.398438 C 93.167969 62.78125 92.324219 62.058594 91.535156 61.625 C 90.316406 60.953125 90.003906 60.890625 87.878906 60.898438 C 85.058594 60.902344 83.847656 61.375 81.90625 63.214844 C 81.191406 63.890625 80.519531 64.445312 80.414062 64.445312 C 80.304688 64.445312 80.292969 63.726562 80.382812 62.84375 L 80.546875 61.242188 L 75.710938 61.308594 L 70.871094 61.378906 L 70.578125 63.464844 C 70.3125 65.347656 67.261719 83 66.921875 84.632812 L 66.777344 85.308594 L 76.792969 85.308594 L 77.070312 83.894531 C 77.222656 83.121094 77.515625 81.492188 77.722656 80.277344 C 79.285156 71.035156 79.328125 70.851562 80.324219 69.71875 C 80.925781 69.027344 81.25 68.863281 81.988281 68.863281 C 83.808594 68.863281 84.28125 70.40625 83.605469 74.140625 C 83.382812 75.355469 83.042969 77.289062 82.847656 78.433594 C 82.652344 79.582031 82.285156 81.652344 82.03125 83.039062 L 81.574219 85.554688 L 86.546875 85.554688 C 91.074219 85.554688 91.527344 85.515625 91.632812 85.125 Z M 206.195312 96.5625 C 205.074219 96.445312 203.121094 96.007812 201.855469 95.585938 C 199.476562 94.796875 196.851562 93.347656 196.851562 92.824219 C 196.851562 92.601562 201.136719 86.121094 201.640625 85.582031 C 201.6875 85.53125 202.089844 85.800781 202.535156 86.175781 C 204.289062 87.660156 207.703125 88.671875 210.042969 88.394531 C 212.625 88.09375 214.441406 86.785156 214.851562 84.9375 C 214.941406 84.535156 215.066406 84.011719 215.128906 83.78125 C 215.214844 83.464844 214.933594 83.566406 214.011719 84.1875 C 212.246094 85.378906 209.828125 85.894531 207.5 85.566406 C 204.675781 85.175781 203.117188 84.472656 201.523438 82.871094 C 199.460938 80.808594 198.929688 79.246094 198.933594 75.246094 C 198.933594 72.660156 199.027344 71.910156 199.515625 70.488281 C 201.207031 65.554688 204.734375 62.019531 209.085938 60.886719 C 212.382812 60.03125 215.929688 60.679688 218.007812 62.511719 L 219.113281 63.488281 L 219.277344 62.25 L 219.441406 61.007812 L 229.484375 61.007812 L 229.347656 61.929688 C 229.273438 62.4375 228.984375 64.148438 228.703125 65.734375 C 228.140625 68.917969 227.664062 71.65625 226.351562 79.171875 C 225.871094 81.9375 225.25 84.976562 224.96875 85.921875 C 223.066406 92.398438 218.890625 95.890625 212.207031 96.597656 C 209.648438 96.867188 209.050781 96.863281 206.195312 96.5625 Z M 214.476562 77.210938 C 217.457031 75.6875 218.238281 70.789062 215.710938 69.480469 C 214.527344 68.867188 212.546875 69 211.359375 69.769531 C 209.371094 71.0625 208.414062 74.382812 209.5 76.222656 C 210.339844 77.648438 212.699219 78.117188 214.476562 77.210938 Z M 267.164062 86.039062 C 264.238281 85.421875 262.304688 83.398438 262.058594 80.699219 C 261.929688 79.261719 262.035156 78.390625 262.957031 73.28125 C 263.214844 71.863281 263.492188 70.289062 263.574219 69.785156 L 263.726562 68.863281 L 260.21875 68.863281 L 260.378906 67.695312 C 260.46875 67.054688 260.765625 65.289062 261.046875 63.769531 L 261.550781 61.007812 L 263.234375 61.007812 C 265.148438 61.007812 264.96875 61.238281 265.425781 58.1875 C 265.851562 55.324219 265.226562 55.609375 271.066406 55.609375 C 274.457031 55.609375 276.191406 55.695312 276.191406 55.863281 C 276.191406 56.09375 275.632812 59.042969 275.324219 60.457031 C 275.203125 61 275.242188 61.007812 277.566406 61.007812 L 279.929688 61.007812 L 279.789062 61.804688 C 279.714844 62.246094 279.429688 63.902344 279.160156 65.492188 C 278.886719 67.078125 278.597656 68.488281 278.515625 68.621094 C 278.433594 68.753906 277.390625 68.863281 276.199219 68.863281 L 274.03125 68.863281 L 273.621094 71.257812 C 273.394531 72.570312 273.109375 74.035156 272.988281 74.507812 C 272.671875 75.730469 272.710938 77.546875 273.058594 77.894531 C 273.226562 78.066406 274.046875 78.191406 275.015625 78.191406 C 276.1875 78.191406 276.679688 78.28125 276.679688 78.496094 C 276.675781 78.925781 275.71875 84.605469 275.5625 85.101562 C 275.496094 85.328125 275.082031 85.640625 274.652344 85.800781 C 273.644531 86.171875 268.558594 86.335938 267.164062 86.039062 Z M 281.824219 85.503906 C 280.390625 84.765625 279.621094 83.601562 279.621094 82.175781 C 279.621094 79.988281 281.402344 78.191406 283.574219 78.191406 C 284.804688 78.191406 285.792969 78.703125 286.597656 79.761719 C 288.414062 82.148438 286.964844 85.464844 283.90625 85.925781 C 283.15625 86.035156 282.664062 85.9375 281.824219 85.503906 Z M 284.683594 84.769531 L 285.375 84.476562 L 284.6875 84.382812 C 284.226562 84.320312 283.910156 84.074219 283.722656 83.632812 L 283.445312 82.976562 L 283.351562 83.652344 C 283.273438 84.238281 283.152344 84.324219 282.417969 84.324219 L 281.578125 84.324219 L 281.5625 79.785156 L 281.082031 80.363281 C 280.496094 81.066406 280.445312 82.578125 280.96875 83.59375 C 281.636719 84.882812 283.230469 85.386719 284.683594 84.769531 Z M 286.476562 82.179688 C 286.476562 81.179688 285.9375 80.074219 285.199219 79.554688 C 284.59375 79.128906 282.644531 79.042969 282.070312 79.417969 C 281.808594 79.585938 282.152344 79.65625 283.230469 79.660156 C 284.433594 79.660156 284.867188 79.769531 285.253906 80.152344 C 285.828125 80.730469 285.890625 81.6875 285.382812 82.113281 C 285.0625 82.375 285.066406 82.503906 285.410156 83.171875 C 285.78125 83.890625 285.820312 83.90625 286.140625 83.464844 C 286.324219 83.210938 286.476562 82.632812 286.476562 82.179688 Z M 149 85.59375 C 148.933594 85.480469 149.09375 84.183594 149.363281 82.710938 C 149.628906 81.238281 150.0625 78.816406 150.320312 77.332031 C 150.582031 75.847656 151.015625 73.359375 151.289062 71.808594 C 151.566406 70.257812 151.789062 68.957031 151.789062 68.925781 C 151.792969 68.890625 150.929688 68.863281 149.875 68.863281 C 148.820312 68.863281 147.902344 68.808594 147.835938 68.742188 C 147.765625 68.675781 148.003906 66.933594 148.359375 64.875 L 149.003906 61.132812 L 151.007812 61.058594 C 152.964844 60.992188 153.015625 60.972656 153.15625 60.324219 C 154.679688 53.214844 157.527344 50.109375 163.367188 49.199219 C 165.386719 48.886719 168.585938 49.074219 169.796875 49.582031 C 170.582031 49.910156 170.597656 49.949219 170.382812 50.863281 C 170.257812 51.382812 169.871094 53.128906 169.523438 54.75 C 169.175781 56.371094 168.871094 57.710938 168.851562 57.730469 C 168.828125 57.75 168.253906 57.648438 167.578125 57.507812 C 165.613281 57.097656 164.257812 58.050781 163.898438 60.089844 L 163.738281 61.007812 L 168.753906 61.007812 L 168.597656 62.050781 C 168.164062 64.945312 167.53125 68.308594 167.371094 68.570312 C 167.25 68.765625 166.386719 68.863281 164.800781 68.863281 L 162.410156 68.863281 L 162.136719 70.519531 C 161.984375 71.429688 161.628906 73.445312 161.347656 75 C 161.066406 76.550781 160.671875 78.816406 160.476562 80.03125 C 160.277344 81.246094 160 82.792969 159.859375 83.464844 C 159.714844 84.140625 159.550781 84.941406 159.488281 85.246094 C 159.375 85.796875 159.367188 85.796875 154.25 85.796875 C 151.433594 85.796875 149.070312 85.707031 149 85.59375 Z M 167.136719 85.617188 C 167.011719 85.410156 167.195312 84.25 168.679688 75.859375 C 170.386719 66.230469 170.929688 63.128906 171.867188 57.695312 C 172.125 56.210938 172.503906 54.058594 172.714844 52.910156 C 172.925781 51.761719 173.097656 50.742188 173.097656 50.640625 C 173.097656 50.539062 175.519531 50.453125 178.484375 50.453125 L 183.871094 50.453125 L 183.871094 51.035156 C 183.871094 51.355469 183.757812 52.210938 183.617188 52.9375 C 183.476562 53.664062 183.152344 55.472656 182.898438 56.960938 C 182.640625 58.445312 182.207031 60.929688 181.933594 62.480469 C 181.457031 65.179688 180.035156 73.269531 178.933594 79.539062 C 178.648438 81.160156 178.292969 83.203125 178.144531 84.082031 L 177.871094 85.675781 L 172.5625 85.742188 C 169.644531 85.777344 167.203125 85.722656 167.136719 85.617188 Z M 182.804688 85.613281 C 182.671875 85.394531 183.371094 81.113281 185.203125 70.949219 C 185.542969 69.058594 186.054688 66.1875 186.339844 64.566406 C 186.621094 62.949219 186.894531 61.484375 186.945312 61.316406 C 187.015625 61.082031 188.308594 61.007812 192.3125 61.007812 C 195.210938 61.007812 197.585938 61.0625 197.585938 61.125 C 197.585938 61.1875 197.304688 62.816406 196.960938 64.746094 C 196.621094 66.671875 196.128906 69.464844 195.875 70.949219 C 194.570312 78.511719 193.421875 84.925781 193.289062 85.335938 C 193.152344 85.769531 192.820312 85.796875 188.03125 85.796875 C 185.222656 85.796875 182.867188 85.714844 182.804688 85.613281 Z M 229.664062 85.21875 C 229.664062 84.898438 229.777344 84.042969 229.917969 83.316406 C 230.144531 82.121094 230.835938 78.1875 231.746094 72.914062 C 231.933594 71.832031 232.539062 68.410156 233.089844 65.304688 C 233.640625 62.199219 234.320312 58.332031 234.597656 56.714844 C 234.878906 55.09375 235.230469 53.050781 235.386719 52.171875 L 235.664062 50.578125 L 240.988281 50.511719 C 245.394531 50.457031 246.316406 50.503906 246.316406 50.785156 C 246.316406 50.972656 246.199219 51.71875 246.058594 52.445312 C 245.800781 53.777344 245.039062 58.148438 244.59375 60.886719 C 244.460938 61.695312 244.296875 62.605469 244.226562 62.910156 C 244.117188 63.402344 244.246094 63.355469 245.394531 62.480469 C 247.175781 61.121094 248.890625 60.519531 250.96875 60.519531 C 253.21875 60.519531 255.128906 61.238281 256.484375 62.597656 C 258.496094 64.613281 258.800781 67.351562 257.699219 73.542969 C 257.351562 75.492188 256.851562 78.355469 256.585938 79.90625 C 255.714844 84.96875 255.648438 85.3125 255.496094 85.554688 C 255.316406 85.851562 245.175781 85.890625 244.996094 85.597656 C 244.929688 85.488281 245.023438 84.632812 245.203125 83.695312 C 245.386719 82.761719 245.769531 80.613281 246.058594 78.925781 C 246.351562 77.238281 246.746094 75.019531 246.941406 73.992188 C 247.480469 71.148438 247.421875 70.222656 246.652344 69.617188 C 245.371094 68.609375 243.835938 69.195312 243.066406 70.992188 C 242.84375 71.507812 242.433594 73.199219 242.15625 74.753906 C 241.875 76.304688 241.492188 78.40625 241.304688 79.417969 C 241.117188 80.429688 240.828125 82.140625 240.664062 83.222656 C 240.503906 84.300781 240.261719 85.324219 240.128906 85.492188 C 239.949219 85.71875 238.574219 85.796875 234.777344 85.796875 L 229.664062 85.796875 Z M 190.269531 58.890625 C 188.398438 57.957031 187.660156 56.746094 187.683594 54.644531 C 187.703125 52.902344 188.121094 51.808594 189.226562 50.617188 C 191.730469 47.910156 196.5 48.28125 198.265625 51.320312 C 199.410156 53.289062 198.554688 56.917969 196.621094 58.296875 C 194.699219 59.667969 192.277344 59.894531 190.269531 58.890625 Z M 190.269531 58.890625 "/>
<path style=" stroke:none;fill-rule:nonzero;fill:rgb(62.745098%,87.058824%,96.078431%);fill-opacity:1;" d="M 83.15625 119.910156 C 76.664062 119.167969 67.300781 116.628906 67.609375 115.691406 C 67.855469 114.953125 74.605469 112.90625 79.667969 112.039062 C 85.316406 111.070312 93.121094 111.023438 98.773438 111.925781 C 103.183594 112.628906 110.699219 114.792969 111.582031 115.609375 C 112.058594 116.054688 111.621094 116.308594 108.9375 117.167969 C 102.320312 119.28125 98.253906 119.921875 90.816406 120.039062 C 87.652344 120.085938 84.203125 120.027344 83.15625 119.910156 Z M 23.136719 112.355469 C 23.082031 112.261719 22.90625 111.136719 22.753906 109.859375 C 22.394531 106.898438 22.390625 100.386719 22.746094 97.210938 C 24.492188 81.554688 31.9375 67.820312 44.164062 57.695312 C 50.804688 52.195312 59.765625 47.839844 68.359375 45.941406 C 73.390625 44.828125 74.757812 44.695312 81.265625 44.695312 C 85.21875 44.695312 88.230469 44.8125 89.46875 45.015625 C 97.335938 46.296875 103.574219 48.46875 110.054688 52.179688 C 115.628906 55.378906 118.25 56.335938 121.445312 56.34375 C 126.488281 56.351562 129.585938 53.382812 130.160156 47.980469 C 130.488281 44.863281 128.734375 39.800781 126.425781 37.230469 C 125.796875 36.527344 124.195312 35.0625 122.867188 33.976562 C 120.046875 31.664062 118.667969 29.792969 118.230469 27.699219 C 117.171875 22.582031 121.171875 17.050781 126.226562 16.644531 C 128.246094 16.480469 130.082031 16.859375 133.210938 18.082031 C 136.1875 19.246094 139.5625 20.105469 142.839844 20.535156 C 144.125 20.703125 145.179688 20.921875 145.179688 21.015625 C 145.179688 21.289062 141.671875 23.042969 138.8125 24.203125 C 135.710938 25.460938 134.558594 26.191406 133.503906 27.582031 C 132.546875 28.839844 132.132812 30.207031 132.144531 32.089844 C 132.152344 34.226562 132.964844 35.695312 135.640625 38.425781 C 140.566406 43.453125 143.273438 48.355469 144.613281 54.683594 C 145.207031 57.484375 145.207031 63.554688 144.613281 66.355469 C 143.679688 70.765625 141.644531 75.390625 139.15625 78.761719 C 137.898438 80.46875 137.496094 80.769531 137.703125 79.847656 C 137.773438 79.542969 138.492188 75.429688 139.300781 70.703125 C 140.113281 65.980469 140.820312 61.921875 140.871094 61.683594 C 140.964844 61.285156 140.605469 61.253906 135.902344 61.253906 L 130.832031 61.253906 L 130.414062 63.523438 C 130.1875 64.773438 129.609375 67.933594 129.132812 70.550781 C 128.222656 75.542969 128 76.214844 126.945312 77.203125 C 125.648438 78.417969 123.566406 77.8125 123.253906 76.132812 C 123.140625 75.527344 124.6875 65.679688 125.484375 61.929688 L 125.628906 61.253906 L 115.402344 61.253906 L 114.09375 68.800781 C 112.605469 77.367188 112.4375 79 112.839844 80.894531 C 114 86.382812 121.46875 87.816406 126.039062 83.425781 C 126.648438 82.839844 127.199219 82.363281 127.261719 82.363281 C 127.324219 82.363281 127.304688 83.023438 127.21875 83.835938 L 127.066406 85.308594 L 129.632812 85.308594 C 131.046875 85.308594 132.203125 85.410156 132.203125 85.535156 C 132.203125 86.148438 126.808594 88.898438 121.917969 90.78125 C 110.433594 95.199219 97.171875 99.199219 86.402344 101.488281 C 82.117188 102.398438 81.558594 102.4375 82.691406 101.746094 C 83.714844 101.121094 84.558594 99.332031 84.347656 98.230469 C 84 96.375 82.515625 95.125 80.667969 95.125 C 79.542969 95.125 78.632812 95.597656 76.617188 97.21875 C 74.273438 99.105469 70.910156 101.25 67.769531 102.859375 C 65.09375 104.230469 62.632812 105.246094 62.445312 105.058594 C 62.394531 105.007812 62.746094 104.507812 63.226562 103.945312 C 66.625 99.964844 64.457031 93.773438 59.277344 92.660156 C 57.667969 92.3125 55.582031 92.628906 51.636719 93.820312 C 41.871094 96.769531 33.582031 101.867188 26.234375 109.441406 C 24.589844 111.136719 23.195312 112.449219 23.136719 112.355469 Z M 57.144531 85.371094 C 57.953125 85.109375 59.1875 84.601562 59.890625 84.242188 C 61.144531 83.601562 62.898438 82.230469 62.898438 81.894531 C 62.898438 81.796875 61.40625 80.695312 59.578125 79.441406 C 56.570312 77.378906 56.214844 77.195312 55.84375 77.527344 C 53.894531 79.261719 49.117188 78.988281 48.253906 77.09375 C 47.609375 75.671875 47.230469 75.734375 56.269531 75.734375 L 64.574219 75.734375 L 64.839844 74.496094 C 65.515625 71.328125 64.980469 67.511719 63.539062 65.222656 C 61.164062 61.464844 56.179688 59.804688 50.492188 60.882812 C 44.394531 62.039062 39.984375 66.539062 38.945312 72.664062 C 37.855469 79.082031 40.699219 83.734375 46.859375 85.59375 C 48.902344 86.210938 54.96875 86.078125 57.144531 85.371094 Z M 48.695312 69.976562 C 48.695312 69.417969 50.191406 67.84375 51.074219 67.476562 C 52.125 67.035156 54.179688 67.054688 55.070312 67.515625 C 55.929688 67.960938 56.289062 68.570312 56.289062 69.582031 L 56.289062 70.335938 L 52.492188 70.335938 C 49.320312 70.335938 48.695312 70.277344 48.695312 69.976562 Z M 92.011719 83.652344 C 93.015625 77.53125 94.25 71.285156 94.582031 70.636719 C 95.738281 68.398438 98.285156 68.320312 98.757812 70.507812 C 98.839844 70.902344 98.378906 74.160156 97.675781 78.132812 C 97 81.949219 96.449219 85.183594 96.449219 85.316406 C 96.449219 85.476562 98.269531 85.539062 101.527344 85.496094 L 106.605469 85.429688 L 107.902344 78.191406 C 109.449219 69.570312 109.613281 66.980469 108.738281 65.058594 C 108.03125 63.503906 106.945312 62.371094 105.386719 61.542969 C 104.289062 60.960938 103.898438 60.894531 101.589844 60.894531 C 99.292969 60.894531 98.890625 60.964844 97.796875 61.539062 C 97.121094 61.894531 96.078125 62.621094 95.476562 63.15625 L 94.382812 64.128906 L 93.148438 62.835938 C 91.589844 61.195312 89.972656 60.648438 87.148438 60.8125 C 84.859375 60.945312 83.503906 61.550781 81.714844 63.234375 C 81.007812 63.902344 80.386719 64.445312 80.335938 64.445312 C 80.289062 64.445312 80.324219 63.726562 80.417969 62.851562 L 80.589844 61.253906 L 70.734375 61.253906 L 70.734375 61.824219 C 70.734375 62.140625 69.855469 67.46875 68.777344 73.667969 C 67.703125 79.867188 66.820312 85.023438 66.820312 85.125 C 66.820312 85.226562 69.074219 85.308594 71.832031 85.308594 C 76.835938 85.308594 76.847656 85.304688 76.96875 84.753906 C 77.035156 84.453125 77.371094 82.601562 77.714844 80.644531 C 79.453125 70.742188 79.628906 70.085938 80.828125 69.246094 C 82.210938 68.277344 83.960938 69.347656 83.960938 71.164062 C 83.960938 71.679688 82.074219 82.71875 81.613281 84.878906 L 81.472656 85.554688 L 91.699219 85.554688 Z M 205.542969 96.480469 C 205.410156 96.4375 204.480469 96.214844 203.484375 95.984375 C 202.484375 95.753906 201.160156 95.347656 200.542969 95.085938 C 199.082031 94.464844 196.851562 93.113281 196.851562 92.851562 C 196.851562 92.554688 201.503906 85.796875 201.703125 85.804688 C 201.796875 85.804688 202.347656 86.132812 202.933594 86.53125 C 206.351562 88.851562 211.132812 89.121094 213.460938 87.125 C 214.4375 86.289062 215.34375 84.503906 215.179688 83.746094 C 215.109375 83.429688 214.90625 83.488281 214.039062 84.074219 C 212.246094 85.285156 210.808594 85.632812 208.140625 85.496094 C 203.308594 85.246094 200.289062 82.875 199.15625 78.433594 C 198.347656 75.28125 199.082031 70.792969 200.957031 67.390625 C 204.085938 61.707031 211.222656 58.984375 216.363281 61.507812 C 217.199219 61.917969 218.152344 62.578125 218.488281 62.976562 L 219.097656 63.703125 L 219.300781 62.417969 L 219.507812 61.132812 L 224.460938 61.066406 C 227.1875 61.027344 229.417969 61.039062 229.417969 61.089844 C 229.417969 61.546875 225.414062 84.046875 225.144531 85.101562 C 223.9375 89.816406 221.53125 93.167969 218.09375 94.910156 C 215.726562 96.109375 213.132812 96.597656 209.214844 96.578125 C 207.332031 96.566406 205.679688 96.523438 205.542969 96.480469 Z M 214.433594 77.351562 C 216.101562 76.476562 217.246094 74.527344 217.273438 72.496094 C 217.304688 70.199219 216.011719 68.980469 213.566406 69 C 211.035156 69.023438 209.011719 71.339844 209.011719 74.21875 C 209.011719 75.871094 209.335938 76.574219 210.394531 77.21875 C 211.332031 77.792969 213.457031 77.863281 214.433594 77.351562 Z M 267.988281 86.140625 C 264.816406 85.320312 263.460938 84.476562 262.53125 82.75 C 261.898438 81.578125 262.046875 78.277344 262.941406 73.535156 C 263.359375 71.3125 263.703125 69.296875 263.703125 69.054688 C 263.703125 68.675781 263.472656 68.617188 261.96875 68.617188 L 260.234375 68.617188 L 260.371094 67.941406 C 260.441406 67.570312 260.738281 65.945312 261.023438 64.324219 C 261.308594 62.707031 261.59375 61.296875 261.65625 61.195312 C 261.71875 61.09375 262.484375 61.007812 263.359375 61.007812 C 264.410156 61.007812 264.972656 60.90625 265.039062 60.703125 C 265.089844 60.535156 265.316406 59.320312 265.542969 58.003906 L 265.953125 55.609375 L 271.089844 55.609375 C 275.863281 55.609375 276.214844 55.640625 276.097656 56.039062 C 276.027344 56.273438 275.851562 57.1875 275.707031 58.0625 C 275.558594 58.941406 275.378906 59.960938 275.308594 60.335938 L 275.171875 61.007812 L 277.382812 61.007812 C 278.597656 61.007812 279.636719 61.089844 279.695312 61.191406 C 279.75 61.292969 279.519531 63.007812 279.175781 64.996094 L 278.554688 68.617188 L 274.011719 68.617188 L 273.851562 69.539062 C 273.761719 70.042969 273.480469 71.5625 273.226562 72.914062 C 272.566406 76.417969 272.601562 77.582031 273.382812 78.09375 C 273.859375 78.40625 274.308594 78.464844 275.339844 78.34375 C 276.078125 78.257812 276.679688 78.273438 276.679688 78.382812 C 276.679688 78.492188 276.40625 80.125 276.070312 82.007812 C 275.734375 83.890625 275.457031 85.453125 275.457031 85.480469 C 275.449219 85.890625 269.175781 86.445312 267.988281 86.140625 Z M 281.542969 85.304688 C 280.359375 84.675781 279.507812 82.972656 279.691406 81.601562 C 280.15625 78.125 284.738281 77.042969 286.660156 79.957031 C 288.894531 83.335938 285.171875 87.226562 281.542969 85.304688 Z M 285.007812 84.695312 L 285.621094 84.34375 L 284.867188 84.335938 C 284.269531 84.328125 284.035156 84.164062 283.71875 83.527344 L 283.324219 82.730469 L 283.308594 83.527344 C 283.292969 84.273438 283.238281 84.324219 282.4375 84.324219 L 281.578125 84.324219 L 281.574219 81.933594 L 281.570312 79.539062 L 281.09375 80.152344 C 279.5625 82.128906 280.933594 85.074219 283.375 85.054688 C 283.9375 85.046875 284.671875 84.886719 285.007812 84.695312 Z M 286.46875 81.953125 C 286.476562 80.820312 285.664062 79.585938 284.691406 79.265625 C 283.914062 79.007812 282.300781 79.085938 281.992188 79.398438 C 281.800781 79.585938 282.113281 79.664062 283.089844 79.664062 C 285.253906 79.664062 286.28125 80.746094 285.359375 82.0625 C 285.011719 82.558594 285.019531 82.671875 285.414062 83.34375 L 285.847656 84.078125 L 286.152344 83.527344 C 286.320312 83.222656 286.464844 82.515625 286.46875 81.953125 Z M 283.90625 81.136719 C 283.820312 81 283.648438 80.890625 283.523438 80.890625 C 283.398438 80.890625 283.292969 81 283.292969 81.136719 C 283.292969 81.269531 283.464844 81.378906 283.675781 81.378906 C 283.886719 81.378906 283.988281 81.269531 283.90625 81.136719 Z M 149.238281 83.773438 C 149.40625 82.792969 150.054688 79.15625 150.671875 75.691406 C 151.289062 72.222656 151.792969 69.214844 151.792969 69.003906 C 151.792969 68.683594 151.449219 68.617188 149.832031 68.617188 C 148.429688 68.617188 147.875 68.53125 147.875 68.3125 C 147.875 67.957031 148.503906 64.183594 148.875 62.308594 L 149.128906 61.027344 L 153.066406 60.886719 L 153.621094 58.738281 C 155.007812 53.363281 157.742188 50.394531 162.152344 49.480469 C 164.503906 48.996094 169.726562 49.207031 170.335938 49.8125 C 170.410156 49.890625 170.105469 51.671875 169.660156 53.773438 L 168.847656 57.597656 L 167.539062 57.433594 C 165.359375 57.160156 164.261719 57.992188 163.699219 60.335938 L 163.535156 61.007812 L 168.75 61.007812 L 168.617188 61.683594 C 168.542969 62.054688 168.234375 63.765625 167.9375 65.488281 L 167.390625 68.617188 L 162.402344 68.617188 L 161.984375 71.011719 C 160.992188 76.722656 159.609375 84.492188 159.496094 85 C 159.375 85.550781 159.367188 85.554688 154.148438 85.554688 L 148.925781 85.554688 Z M 167.121094 85.128906 C 167.175781 84.890625 167.886719 80.882812 168.699219 76.226562 C 172.195312 56.183594 173.101562 51.050781 173.210938 50.761719 C 173.296875 50.53125 174.613281 50.453125 178.632812 50.453125 L 183.9375 50.453125 L 183.800781 51.375 C 183.726562 51.882812 182.546875 58.648438 181.179688 66.410156 C 179.8125 74.171875 178.503906 81.625 178.273438 82.976562 L 177.855469 85.429688 L 172.4375 85.496094 C 167.359375 85.558594 167.023438 85.535156 167.121094 85.128906 Z M 182.789062 85.128906 C 182.875 84.757812 185.359375 70.589844 186.460938 64.199219 C 186.65625 63.050781 186.875 61.863281 186.941406 61.5625 C 187.0625 61.011719 187.074219 61.007812 192.160156 61.007812 C 194.964844 61.007812 197.316406 61.066406 197.382812 61.132812 C 197.519531 61.269531 197.464844 61.589844 194.933594 75.980469 L 193.269531 85.429688 L 187.980469 85.496094 C 183.027344 85.558594 182.695312 85.535156 182.789062 85.128906 Z M 229.664062 85.246094 C 229.664062 85.078125 229.828125 84.078125 230.03125 83.023438 C 230.230469 81.96875 231.0625 77.273438 231.875 72.59375 C 233.863281 61.128906 235.527344 51.679688 235.675781 51.007812 C 235.796875 50.457031 235.800781 50.453125 241.054688 50.453125 C 243.949219 50.453125 246.316406 50.511719 246.316406 50.582031 C 246.316406 50.652344 245.816406 53.539062 245.210938 57 C 244.601562 60.460938 244.136719 63.328125 244.183594 63.371094 C 244.226562 63.414062 244.664062 63.117188 245.15625 62.710938 C 245.644531 62.304688 246.6875 61.675781 247.46875 61.308594 C 248.683594 60.734375 249.203125 60.640625 251.089844 60.644531 C 253.5625 60.648438 255.003906 61.164062 256.371094 62.535156 C 257.878906 64.046875 258.191406 65.007812 258.175781 68.125 C 258.164062 70.40625 257.917969 72.328125 256.890625 78.089844 C 256.191406 82.015625 255.621094 85.300781 255.621094 85.390625 C 255.621094 85.480469 253.253906 85.554688 250.355469 85.554688 C 246.171875 85.554688 245.089844 85.488281 245.089844 85.230469 C 245.089844 85.054688 245.585938 82.082031 246.195312 78.625 C 247.445312 71.492188 247.523438 70.320312 246.804688 69.597656 C 245.789062 68.582031 243.84375 69.210938 243.007812 70.828125 C 242.8125 71.210938 242.15625 74.320312 241.554688 77.738281 C 240.953125 81.160156 240.382812 84.316406 240.296875 84.753906 L 240.132812 85.554688 L 234.898438 85.554688 C 230.875 85.554688 229.664062 85.480469 229.664062 85.246094 Z M 190.941406 59.164062 C 188.820312 58.484375 187.308594 56.058594 187.691406 53.949219 C 188.539062 49.265625 193.773438 47.222656 197.191406 50.238281 C 198.476562 51.371094 198.925781 52.511719 198.730469 54.152344 C 198.28125 57.960938 194.589844 60.335938 190.941406 59.164062 Z M 190.941406 59.164062 "/>
<path style=" stroke:none;fill-rule:nonzero;fill:rgb(39.607843%,78.823529%,94.117647%);fill-opacity:1;" d="M 84.9375 120.011719 C 84.46875 119.953125 83.144531 119.796875 82 119.660156 C 78.859375 119.28125 75.09375 118.488281 71.988281 117.546875 C 68.828125 116.589844 67.796875 116.121094 67.796875 115.644531 C 67.796875 115.289062 71.578125 113.945312 75.070312 113.058594 C 83.046875 111.03125 92.734375 110.757812 100.734375 112.332031 C 105.371094 113.246094 111.632812 115.277344 111.632812 115.867188 C 111.632812 116.574219 103.707031 118.785156 98.40625 119.554688 C 95.738281 119.941406 86.878906 120.242188 84.9375 120.011719 Z M 22.777344 109.667969 C 22.386719 106.03125 22.421875 100.523438 22.863281 96.734375 C 25.699219 72.449219 43.109375 52.441406 66.660156 46.414062 C 72.117188 45.015625 74.796875 44.703125 81.265625 44.703125 C 87.734375 44.703125 90.429688 45.015625 95.835938 46.40625 C 101.207031 47.785156 105.191406 49.460938 111.195312 52.855469 C 116.300781 55.742188 118.535156 56.457031 121.992188 56.304688 C 124.773438 56.183594 126.523438 55.433594 128.023438 53.730469 C 129.578125 51.957031 130.085938 50.34375 130.09375 47.140625 C 130.097656 44.757812 130.011719 44.199219 129.359375 42.34375 C 128.386719 39.578125 127.179688 37.8125 124.792969 35.660156 C 120.617188 31.890625 119.765625 31.019531 119.132812 29.855469 C 116.167969 24.394531 120.1875 17.148438 126.460938 16.644531 C 128.320312 16.496094 129.339844 16.726562 133.671875 18.289062 C 137.039062 19.507812 140.414062 20.34375 143.164062 20.652344 C 144.011719 20.746094 144.757812 20.910156 144.824219 21.019531 C 145.0625 21.410156 142.945312 22.464844 137.222656 24.820312 C 133.875 26.195312 132.113281 28.640625 132.109375 31.925781 C 132.105469 34.453125 132.640625 35.417969 135.984375 38.902344 C 140.828125 43.957031 143.203125 48.371094 144.589844 54.882812 C 145.285156 58.152344 145.195312 63.546875 144.382812 67.054688 C 143.632812 70.292969 142.304688 73.632812 140.675781 76.378906 C 139.363281 78.589844 137.550781 80.835938 137.730469 80.03125 C 137.789062 79.761719 138.5 75.675781 139.308594 70.949219 C 140.117188 66.222656 140.835938 62.109375 140.902344 61.804688 L 141.027344 61.253906 L 135.878906 61.253906 C 133.046875 61.253906 130.730469 61.296875 130.730469 61.351562 C 130.730469 62.179688 128.148438 75.332031 127.871094 75.917969 C 127.320312 77.078125 126.429688 77.699219 125.3125 77.699219 C 123.933594 77.699219 123.386719 77.050781 123.386719 75.429688 C 123.386719 74.71875 123.882812 71.324219 124.484375 67.882812 C 125.089844 64.4375 125.585938 61.539062 125.585938 61.4375 C 125.589844 61.335938 123.277344 61.253906 120.445312 61.253906 C 117.617188 61.253906 115.304688 61.320312 115.304688 61.398438 C 115.304688 61.480469 114.691406 65.042969 113.941406 69.316406 C 112.105469 79.765625 112.183594 81.9375 114.488281 84.128906 C 115.8125 85.386719 117.394531 85.917969 119.835938 85.917969 C 121.714844 85.921875 122.246094 85.824219 123.4375 85.261719 C 124.210938 84.902344 125.40625 84.074219 126.097656 83.425781 L 127.355469 82.246094 L 127.003906 85.535156 L 132.253906 85.675781 L 130.222656 86.886719 C 123.179688 91.082031 102.398438 97.980469 86.613281 101.367188 C 84.367188 101.847656 82.476562 102.242188 82.417969 102.242188 C 82.355469 102.242188 82.722656 101.824219 83.230469 101.3125 C 85.621094 98.914062 84.085938 95.125 80.722656 95.125 C 79.300781 95.125 78.953125 95.292969 76.859375 96.976562 C 73.285156 99.851562 66.722656 103.683594 63.484375 104.792969 L 62.382812 105.167969 L 63.046875 104.378906 C 65.023438 102.035156 65.421875 99.035156 64.109375 96.394531 C 62.683594 93.539062 60.253906 92.214844 56.996094 92.515625 C 51.933594 92.988281 42.335938 96.90625 36.1875 101.011719 C 31.988281 103.816406 27.140625 107.988281 24.820312 110.796875 C 24.148438 111.613281 23.476562 112.285156 23.332031 112.292969 C 23.171875 112.300781 22.949219 111.246094 22.777344 109.667969 Z M 56.675781 85.546875 C 58.765625 85.011719 60.867188 83.953125 62.234375 82.746094 L 63.164062 81.925781 L 61.992188 81.082031 C 61.347656 80.617188 59.820312 79.550781 58.601562 78.710938 L 56.382812 77.191406 L 55.226562 77.835938 C 53.867188 78.597656 51.742188 78.863281 50.246094 78.457031 C 49.140625 78.15625 47.960938 76.996094 47.960938 76.207031 C 47.960938 75.75 48.234375 75.734375 56.285156 75.734375 L 64.605469 75.734375 L 64.792969 75.058594 C 64.898438 74.6875 64.980469 72.949219 64.980469 71.195312 C 64.980469 68.121094 64.953125 67.945312 64.203125 66.359375 C 62.390625 62.523438 58.738281 60.511719 53.621094 60.523438 C 46.757812 60.539062 41.464844 64.332031 39.242188 70.828125 C 38.890625 71.855469 38.78125 72.878906 38.78125 75.132812 C 38.78125 78.0625 38.789062 78.113281 39.703125 79.960938 C 41.464844 83.535156 44.148438 85.242188 49.429688 86.148438 C 50.65625 86.359375 54.878906 86.007812 56.675781 85.546875 Z M 48.695312 70.125 C 48.695312 69.605469 49.902344 68.207031 50.785156 67.703125 C 51.863281 67.09375 53.972656 66.945312 54.894531 67.417969 C 55.742188 67.851562 56.277344 68.671875 56.28125 69.539062 L 56.289062 70.335938 L 52.492188 70.335938 C 50.40625 70.335938 48.695312 70.242188 48.695312 70.125 Z M 76.949219 85.125 C 77.015625 84.886719 77.582031 81.765625 78.207031 78.191406 C 79.414062 71.261719 79.867188 69.828125 81.035156 69.222656 C 81.988281 68.730469 82.351562 68.769531 83.144531 69.449219 C 83.738281 69.960938 83.820312 70.199219 83.796875 71.351562 C 83.78125 72.074219 83.261719 75.488281 82.640625 78.933594 C 82.019531 82.378906 81.511719 85.277344 81.511719 85.375 C 81.511719 85.472656 83.824219 85.554688 86.652344 85.554688 C 89.78125 85.554688 91.796875 85.460938 91.796875 85.316406 C 91.796875 84.304688 94.289062 71.421875 94.621094 70.722656 C 95.453125 68.964844 96.804688 68.421875 98.007812 69.371094 C 98.921875 70.09375 98.867188 71.222656 97.550781 78.558594 C 96.945312 81.933594 96.449219 84.886719 96.449219 85.125 C 96.449219 85.519531 96.855469 85.554688 101.589844 85.554688 C 105.148438 85.554688 106.734375 85.46875 106.734375 85.285156 C 106.734375 85.136719 107.347656 81.519531 108.097656 77.246094 C 109.621094 68.585938 109.699219 66.980469 108.703125 64.878906 C 107.921875 63.230469 106.460938 61.863281 104.816406 61.242188 C 103.664062 60.804688 103.035156 60.734375 101.101562 60.8125 C 99.117188 60.890625 98.589844 61.003906 97.515625 61.59375 C 96.820312 61.976562 95.839844 62.710938 95.335938 63.230469 L 94.417969 64.171875 L 93.359375 62.992188 C 91.753906 61.203125 90.335938 60.683594 87.402344 60.8125 C 84.664062 60.933594 83.761719 61.308594 81.695312 63.203125 L 80.34375 64.441406 L 80.472656 62.847656 L 80.597656 61.253906 L 70.765625 61.253906 L 70.609375 62.421875 C 70.523438 63.0625 69.632812 68.3125 68.632812 74.085938 C 67.636719 79.863281 66.816406 84.804688 66.816406 85.070312 C 66.816406 85.535156 67.007812 85.554688 71.820312 85.554688 C 76.378906 85.554688 76.835938 85.515625 76.949219 85.125 Z M 204.644531 96.214844 C 201.773438 95.691406 197.980469 94.105469 197.117188 93.066406 C 196.921875 92.828125 197.421875 91.921875 199.15625 89.378906 C 200.421875 87.523438 201.515625 85.949219 201.582031 85.882812 C 201.648438 85.816406 202.277344 86.152344 202.972656 86.636719 C 205.738281 88.542969 210.011719 89.09375 212.472656 87.863281 C 213.171875 87.515625 213.984375 86.890625 214.273438 86.480469 C 214.757812 85.804688 215.578125 83.097656 215.300781 83.097656 C 215.238281 83.097656 214.765625 83.4375 214.253906 83.851562 C 211.792969 85.832031 207.332031 86.074219 203.796875 84.417969 C 202.285156 83.707031 200.441406 81.796875 199.785156 80.261719 C 198.378906 76.980469 198.625 72.632812 200.4375 68.632812 C 202.4375 64.230469 205.933594 61.484375 210.460938 60.761719 C 213.441406 60.285156 216.390625 61.039062 218.125 62.726562 L 219.117188 63.691406 L 219.265625 62.777344 C 219.347656 62.277344 219.460938 61.730469 219.511719 61.5625 C 219.585938 61.328125 220.800781 61.253906 224.492188 61.253906 C 229.015625 61.253906 229.367188 61.285156 229.277344 61.683594 C 229.222656 61.921875 228.347656 66.917969 227.332031 72.789062 C 225.199219 85.105469 225 86.023438 223.875 88.480469 C 221.863281 92.886719 218.730469 95.300781 213.785156 96.25 C 211.550781 96.683594 207.128906 96.664062 204.644531 96.214844 Z M 215.28125 76.902344 C 217.21875 75.421875 218.011719 71.640625 216.683594 70.199219 C 214.609375 67.945312 211.085938 68.675781 209.511719 71.6875 C 208.792969 73.0625 208.777344 75.4375 209.484375 76.390625 C 210.273438 77.460938 210.984375 77.726562 212.792969 77.640625 C 214.101562 77.578125 214.578125 77.4375 215.28125 76.902344 Z M 268.039062 86.03125 C 266.390625 85.777344 264.566406 85.019531 263.742188 84.253906 C 262.605469 83.191406 262.132812 81.898438 262.152344 79.90625 C 262.167969 78.441406 263.152344 72.128906 263.832031 69.167969 C 263.953125 68.632812 263.898438 68.617188 262.089844 68.617188 C 260.667969 68.617188 260.25 68.542969 260.34375 68.300781 C 260.410156 68.128906 260.710938 66.476562 261.015625 64.628906 L 261.570312 61.273438 L 263.308594 61.203125 L 265.050781 61.132812 L 265.515625 58.371094 L 265.984375 55.609375 L 270.964844 55.609375 C 276.699219 55.609375 276.1875 55.289062 275.578125 58.472656 C 275.007812 61.46875 274.863281 61.253906 277.496094 61.253906 L 279.78125 61.253906 L 279.203125 64.628906 C 278.886719 66.484375 278.578125 68.140625 278.519531 68.3125 C 278.441406 68.527344 277.75 68.617188 276.203125 68.617188 C 274.113281 68.617188 273.992188 68.648438 273.875 69.167969 C 273.320312 71.6875 272.765625 75.371094 272.765625 76.523438 C 272.765625 78.269531 273.152344 78.558594 275.253906 78.367188 C 276.039062 78.292969 276.679688 78.253906 276.679688 78.273438 C 276.660156 78.957031 275.390625 85.226562 275.242188 85.375 C 274.652344 85.964844 270.21875 86.371094 268.039062 86.03125 Z M 281.679688 85.335938 C 278.265625 83.246094 279.601562 78.339844 283.582031 78.339844 C 284.921875 78.339844 285.769531 78.84375 286.683594 80.175781 C 287.152344 80.867188 287.238281 81.25 287.160156 82.375 C 287.046875 84.007812 286.472656 84.894531 285.1875 85.421875 C 283.945312 85.929688 282.597656 85.894531 281.679688 85.335938 Z M 285.070312 84.777344 C 285.730469 84.429688 285.578125 84.082031 284.761719 84.082031 C 284.167969 84.082031 283.960938 83.925781 283.679688 83.28125 L 283.332031 82.484375 L 283.3125 83.28125 C 283.292969 84.027344 283.238281 84.082031 282.425781 84.082031 L 281.558594 84.082031 L 281.628906 81.933594 L 281.703125 79.785156 L 283.195312 79.785156 C 284.097656 79.785156 284.847656 79.917969 285.09375 80.121094 C 285.546875 80.5 285.636719 81.878906 285.230469 82.285156 C 285.039062 82.476562 285.078125 82.769531 285.363281 83.324219 C 285.832031 84.234375 286.089844 84.148438 286.484375 82.953125 C 286.722656 82.230469 286.703125 81.890625 286.367188 81.011719 C 285.878906 79.726562 285.121094 79.183594 283.667969 79.074219 C 280.277344 78.820312 279.097656 83.277344 282.152344 84.804688 C 283.167969 85.3125 284.066406 85.304688 285.070312 84.777344 Z M 283.78125 81.257812 C 283.78125 81.121094 283.671875 80.976562 283.539062 80.929688 C 283.402344 80.886719 283.292969 81.03125 283.292969 81.257812 C 283.292969 81.484375 283.402344 81.628906 283.539062 81.585938 C 283.671875 81.539062 283.78125 81.394531 283.78125 81.257812 Z M 149.097656 85.125 C 149.101562 84.886719 149.421875 82.925781 149.816406 80.765625 C 150.210938 78.605469 150.824219 75.183594 151.175781 73.15625 C 151.527344 71.132812 151.871094 69.285156 151.941406 69.046875 C 152.058594 68.660156 151.855469 68.617188 149.972656 68.617188 C 148.816406 68.617188 147.875 68.535156 147.875 68.433594 C 147.875 68.332031 148.152344 66.707031 148.488281 64.824219 C 148.824219 62.941406 149.097656 61.375 149.097656 61.339844 C 149.097656 61.304688 150 61.242188 151.097656 61.203125 L 153.097656 61.132812 L 153.640625 58.902344 C 154.351562 56.003906 155.222656 54.195312 156.683594 52.59375 C 158.8125 50.257812 161.542969 49.238281 165.675781 49.230469 C 167.878906 49.226562 170.402344 49.597656 170.40625 49.921875 C 170.40625 50.011719 170.046875 51.761719 169.609375 53.808594 L 168.8125 57.535156 L 167.222656 57.402344 C 165.851562 57.289062 165.535156 57.34375 164.976562 57.789062 C 164.390625 58.257812 163.546875 60.109375 163.546875 60.929688 C 163.546875 61.179688 164.140625 61.253906 166.078125 61.253906 L 168.609375 61.253906 L 167.980469 64.9375 L 167.351562 68.617188 L 164.835938 68.617188 C 163.453125 68.617188 162.320312 68.683594 162.320312 68.761719 C 162.320312 68.84375 161.660156 72.605469 160.851562 77.125 C 160.042969 81.644531 159.382812 85.390625 159.382812 85.449219 C 159.382812 85.503906 157.070312 85.554688 154.242188 85.554688 C 149.507812 85.554688 149.097656 85.519531 149.097656 85.125 Z M 167.21875 85.257812 C 167.21875 84.992188 169.015625 74.644531 172.191406 56.589844 L 173.25 50.578125 L 183.929688 50.445312 L 183.78125 51.246094 C 183.699219 51.6875 182.367188 59.285156 180.816406 68.125 C 179.265625 76.96875 177.933594 84.507812 177.855469 84.878906 L 177.710938 85.554688 L 172.464844 85.554688 C 168.527344 85.554688 167.21875 85.480469 167.21875 85.257812 Z M 183.40625 81.808594 C 183.78125 79.75 184.707031 74.53125 185.460938 70.214844 C 186.214844 65.894531 186.894531 62.109375 186.972656 61.804688 C 187.109375 61.257812 187.121094 61.253906 192.222656 61.253906 C 196.972656 61.253906 197.339844 61.285156 197.339844 61.691406 C 197.339844 61.933594 196.796875 65.164062 196.132812 68.871094 C 195.464844 72.578125 194.582031 77.601562 194.167969 80.03125 C 193.753906 82.460938 193.359375 84.695312 193.289062 85 C 193.167969 85.550781 193.160156 85.554688 187.945312 85.554688 L 182.726562 85.554688 Z M 229.664062 85.464844 C 229.664062 85.414062 229.988281 83.566406 230.386719 81.351562 C 230.785156 79.140625 232.101562 71.644531 233.316406 64.691406 C 234.53125 57.738281 235.597656 51.691406 235.683594 51.253906 L 235.847656 50.453125 L 246.324219 50.453125 L 246.203125 51.007812 C 245.917969 52.261719 244.113281 62.941406 244.113281 63.355469 C 244.113281 63.730469 244.246094 63.679688 244.90625 63.058594 C 248.269531 59.910156 253.792969 59.777344 256.5 62.785156 C 258.453125 64.953125 258.695312 67.230469 257.617188 73.402344 C 257.21875 75.699219 256.582031 79.371094 256.207031 81.566406 L 255.523438 85.554688 L 250.308594 85.554688 C 247.4375 85.554688 245.089844 85.46875 245.09375 85.367188 C 245.09375 85.265625 245.585938 82.367188 246.195312 78.925781 C 247.765625 69.992188 247.691406 69.109375 245.355469 69.109375 C 244.109375 69.109375 243.148438 69.96875 242.699219 71.476562 C 242.464844 72.277344 240.195312 84.867188 240.195312 85.378906 C 240.195312 85.476562 237.824219 85.554688 234.929688 85.554688 C 232.035156 85.554688 229.664062 85.511719 229.664062 85.464844 Z M 191.707031 59.308594 C 189.386719 58.832031 187.996094 57.328125 187.835938 55.121094 C 187.707031 53.324219 188.097656 52.128906 189.226562 50.875 C 190.40625 49.5625 191.714844 48.992188 193.542969 48.992188 C 197.046875 48.992188 199.179688 51.382812 198.566406 54.625 C 198.257812 56.25 197.542969 57.421875 196.3125 58.316406 C 195.066406 59.222656 193.21875 59.617188 191.707031 59.308594 Z M 191.707031 59.308594 "/>
<path style=" stroke:none;fill-rule:nonzero;fill:rgb(28.235294%,72.54902%,92.54902%);fill-opacity:1;" d="M 84.449219 119.898438 C 77.953125 119.355469 67.535156 116.710938 67.847656 115.683594 C 67.902344 115.515625 69.480469 114.859375 71.359375 114.226562 C 83.421875 110.179688 97.085938 110.386719 109.488281 114.792969 C 110.726562 115.234375 111.632812 115.695312 111.632812 115.882812 C 111.632812 116.246094 108.519531 117.3125 104.640625 118.277344 C 98.125 119.902344 91.183594 120.460938 84.449219 119.898438 Z M 23.148438 112.128906 C 22.796875 111.546875 22.441406 104.894531 22.578125 101.382812 C 22.816406 95.183594 23.664062 90.585938 25.667969 84.582031 C 27.058594 80.429688 28.265625 77.710938 30.3125 74.148438 C 37.6875 61.316406 49.460938 51.835938 63.632812 47.316406 C 69.5 45.445312 74.519531 44.703125 81.265625 44.703125 C 86.617188 44.703125 89.25 44.964844 93.753906 45.953125 C 99.796875 47.28125 103.957031 48.917969 110.53125 52.550781 C 112.820312 53.816406 115.441406 55.136719 116.359375 55.480469 C 123.03125 57.988281 128.734375 55.59375 129.96875 49.769531 C 130.546875 47.027344 130.167969 43.863281 128.914062 41.027344 C 127.851562 38.621094 126.359375 36.78125 123.585938 34.464844 C 120.351562 31.761719 119.378906 30.644531 118.710938 28.875 C 117.964844 26.890625 118.128906 23.882812 119.089844 21.933594 C 120.371094 19.339844 122.84375 17.378906 125.570312 16.804688 C 127.414062 16.414062 129.472656 16.78125 133.132812 18.152344 C 136.453125 19.394531 139.230469 20.125 142.433594 20.601562 C 143.6875 20.789062 144.773438 21.003906 144.847656 21.078125 C 145.03125 21.261719 141.179688 23.179688 138.570312 24.203125 C 134.507812 25.792969 132.796875 27.429688 132.183594 30.3125 C 131.539062 33.320312 132.3125 35.117188 135.820312 38.75 C 139.726562 42.800781 141.925781 46.292969 143.464844 50.902344 C 144.921875 55.257812 145.402344 60.859375 144.703125 65.304688 C 144.304688 67.839844 143.050781 71.660156 141.761719 74.277344 C 140.71875 76.386719 138.132812 80.289062 137.917969 80.074219 C 137.851562 80.007812 138.523438 75.804688 139.410156 70.734375 C 140.292969 65.664062 141.015625 61.398438 141.015625 61.261719 C 141.015625 61.097656 139.234375 61.007812 135.875 61.007812 C 133.046875 61.007812 130.730469 61.046875 130.730469 61.09375 C 130.730469 61.839844 128.167969 75.027344 127.886719 75.738281 C 127.667969 76.28125 127.214844 76.945312 126.875 77.210938 C 126.011719 77.894531 124.535156 77.859375 123.863281 77.148438 C 123.410156 76.664062 123.359375 76.375 123.453125 74.875 C 123.511719 73.929688 124.015625 70.617188 124.574219 67.511719 C 125.132812 64.410156 125.589844 61.730469 125.589844 61.5625 C 125.589844 61.324219 124.402344 61.253906 120.464844 61.253906 L 115.339844 61.253906 L 115.085938 62.542969 C 114.945312 63.25 114.332031 66.71875 113.71875 70.25 C 112.398438 77.902344 112.292969 80.316406 113.191406 82.253906 C 114.40625 84.867188 116.972656 86.195312 120.425781 85.996094 C 122.695312 85.863281 124.433594 85.070312 126.152344 83.390625 L 127.328125 82.238281 L 126.992188 85.535156 L 132.070312 85.675781 L 130.851562 86.457031 C 124.246094 90.691406 99.960938 98.757812 85.183594 101.625 C 84.039062 101.847656 82.882812 102.09375 82.613281 102.171875 C 82.28125 102.269531 82.386719 102.089844 82.953125 101.613281 C 85.023438 99.867188 84.890625 96.96875 82.675781 95.613281 C 80.808594 94.472656 79.410156 94.8125 76.613281 97.101562 C 74.085938 99.164062 70.886719 101.160156 67.183594 102.980469 C 65.300781 103.90625 63.503906 104.734375 63.191406 104.824219 C 62.671875 104.972656 62.695312 104.894531 63.492188 103.847656 C 66.988281 99.257812 63.6875 92.425781 57.976562 92.425781 C 54.679688 92.425781 47.953125 94.617188 42.085938 97.597656 C 35.859375 100.761719 31.320312 104.097656 26.371094 109.152344 C 24.664062 110.894531 23.214844 112.234375 23.148438 112.128906 Z M 56.777344 85.550781 C 57.785156 85.261719 59.242188 84.6875 60.015625 84.277344 C 61.460938 83.503906 63.363281 82.003906 63.144531 81.8125 C 63.078125 81.75 61.542969 80.683594 59.734375 79.4375 L 56.449219 77.171875 L 55.117188 77.847656 C 53.421875 78.703125 51.515625 78.890625 50.066406 78.335938 C 48.835938 77.863281 48.3125 77.359375 48.078125 76.414062 L 47.910156 75.742188 L 56.304688 75.675781 L 64.703125 75.613281 L 64.925781 74.875 C 65.046875 74.472656 65.152344 72.925781 65.160156 71.441406 C 65.171875 68.410156 64.742188 66.785156 63.410156 64.84375 C 61.273438 61.730469 57.722656 60.324219 52.664062 60.585938 C 48.695312 60.792969 45.902344 61.933594 43.214844 64.453125 C 41.363281 66.191406 40.398438 67.613281 39.476562 69.972656 C 38.867188 71.53125 38.804688 71.984375 38.792969 75.003906 C 38.78125 78.257812 38.792969 78.351562 39.570312 79.933594 C 41.015625 82.878906 44.011719 85.074219 47.75 85.929688 C 49.921875 86.425781 54.359375 86.238281 56.777344 85.550781 Z M 48.695312 70.148438 C 48.695312 70.042969 48.96875 69.558594 49.300781 69.070312 C 50.691406 67.015625 54.15625 66.476562 55.59375 68.09375 C 56.027344 68.578125 56.289062 69.144531 56.289062 69.601562 L 56.289062 70.335938 L 52.492188 70.335938 C 50.40625 70.335938 48.695312 70.25 48.695312 70.148438 Z M 78.125 78.828125 C 79.34375 71.796875 79.699219 70.496094 80.65625 69.59375 C 81.457031 68.84375 82.660156 68.839844 83.261719 69.585938 C 84.046875 70.554688 83.960938 71.382812 81.886719 82.851562 C 81.679688 84 81.511719 85.078125 81.511719 85.246094 C 81.511719 85.480469 82.699219 85.554688 86.628906 85.554688 L 91.746094 85.554688 L 92.125 83.40625 C 94.425781 70.453125 94.558594 69.957031 95.960938 69.230469 C 97.40625 68.480469 98.65625 69.386719 98.648438 71.1875 C 98.648438 71.730469 98.117188 75.1875 97.46875 78.863281 L 96.292969 85.554688 L 106.679688 85.554688 L 106.957031 84.019531 C 108.605469 74.878906 109.425781 69.714844 109.425781 68.476562 C 109.429688 65.183594 108.121094 62.890625 105.464844 61.53125 C 103.984375 60.773438 103.664062 60.703125 101.640625 60.703125 C 98.980469 60.703125 97.382812 61.324219 95.511719 63.078125 L 94.3125 64.203125 L 93.671875 63.234375 C 92.804688 61.917969 91.277344 61.074219 89.257812 60.785156 C 86.160156 60.347656 83.921875 61.070312 81.613281 63.261719 L 80.328125 64.476562 L 80.441406 63.417969 C 80.503906 62.835938 80.589844 62.109375 80.632812 61.804688 L 80.707031 61.253906 L 70.757812 61.253906 L 70.632812 62.050781 C 70.285156 64.234375 66.796875 84.523438 66.6875 85.003906 L 66.5625 85.5625 L 76.976562 85.429688 Z M 205.015625 96.25 C 202.011719 95.675781 198.796875 94.410156 197.402344 93.25 L 196.851562 92.792969 L 199.066406 89.601562 C 200.285156 87.847656 201.371094 86.257812 201.484375 86.070312 C 201.648438 85.789062 201.839844 85.84375 202.511719 86.347656 C 204.40625 87.765625 206.667969 88.53125 209.015625 88.539062 C 212.796875 88.554688 214.742188 87.082031 215.324219 83.765625 L 215.484375 82.835938 L 214.386719 83.679688 C 212.609375 85.039062 211.277344 85.433594 208.605469 85.398438 C 203.867188 85.335938 200.578125 83.039062 199.378906 78.957031 C 198.472656 75.863281 199.101562 71.058594 200.84375 67.773438 C 201.789062 65.992188 204.128906 63.421875 205.585938 62.566406 C 210.046875 59.945312 215.570312 60.109375 218.253906 62.941406 C 219.066406 63.796875 219.378906 63.738281 219.378906 62.734375 C 219.378906 61.210938 219.226562 61.253906 224.5 61.253906 L 229.320312 61.253906 L 227.292969 72.851562 C 226.175781 79.230469 224.96875 85.363281 224.613281 86.480469 C 223.042969 91.429688 220.164062 94.34375 215.339844 95.863281 C 213.144531 96.554688 207.675781 96.757812 205.015625 96.25 Z M 215.050781 77.058594 C 215.707031 76.601562 216.316406 75.871094 216.746094 75.015625 C 218.34375 71.855469 216.914062 68.863281 213.804688 68.863281 C 212.324219 68.863281 211.289062 69.367188 210.238281 70.597656 C 209.175781 71.839844 208.753906 73.183594 208.910156 74.820312 C 209.183594 77.644531 212.476562 78.84375 215.050781 77.058594 Z M 266.234375 85.589844 C 263.40625 84.609375 262.234375 82.9375 262.234375 79.890625 C 262.234375 78.859375 262.605469 76.039062 263.089844 73.402344 C 263.558594 70.839844 263.945312 68.710938 263.945312 68.679688 C 263.945312 68.644531 263.140625 68.617188 262.15625 68.617188 L 260.363281 68.617188 L 261.613281 61.273438 L 265.050781 61.132812 L 265.546875 58.433594 L 266.039062 55.730469 L 270.992188 55.664062 C 276.683594 55.589844 276.171875 55.285156 275.578125 58.390625 C 274.996094 61.457031 274.863281 61.253906 277.417969 61.253906 C 279.242188 61.253906 279.621094 61.320312 279.621094 61.632812 C 279.621094 62.070312 278.675781 67.546875 278.492188 68.179688 C 278.390625 68.53125 277.996094 68.609375 276.128906 68.667969 L 273.890625 68.742188 L 273.214844 72.421875 C 272.398438 76.898438 272.382812 77.316406 273.023438 77.960938 C 273.445312 78.382812 273.792969 78.457031 275.046875 78.410156 C 276.519531 78.351562 276.558594 78.367188 276.484375 78.945312 C 276.328125 80.207031 275.433594 85.144531 275.328125 85.316406 C 274.835938 86.117188 268.324219 86.3125 266.234375 85.589844 Z M 281.910156 85.417969 C 279.582031 84.398438 279.078125 81.316406 280.9375 79.453125 C 281.6875 78.703125 281.980469 78.578125 283.21875 78.5 C 284.871094 78.394531 285.914062 78.898438 286.738281 80.210938 C 287.144531 80.855469 287.21875 81.289062 287.128906 82.417969 C 287.0625 83.203125 286.851562 83.984375 286.644531 84.191406 C 286.441406 84.394531 286.238281 84.648438 286.191406 84.75 C 286.027344 85.125 284.238281 85.796875 283.46875 85.777344 C 283.035156 85.765625 282.335938 85.605469 281.910156 85.417969 Z M 284.949219 84.816406 C 285.867188 84.253906 286.71875 82.984375 286.71875 82.171875 C 286.722656 81.253906 286.074219 79.976562 285.375 79.515625 C 284.566406 78.984375 282.910156 78.90625 281.996094 79.351562 C 281.109375 79.785156 280.355469 81.039062 280.355469 82.085938 C 280.351562 83.699219 281.929688 85.289062 283.539062 85.300781 C 283.875 85.304688 284.507812 85.085938 284.949219 84.816406 Z M 281.628906 81.933594 L 281.703125 79.785156 L 283.058594 79.808594 C 284.8125 79.84375 285.496094 80.207031 285.496094 81.113281 C 285.496094 81.496094 285.332031 81.949219 285.128906 82.117188 C 284.804688 82.386719 284.820312 82.523438 285.269531 83.253906 L 285.78125 84.082031 L 284.933594 84.082031 C 284.226562 84.082031 284.039062 83.960938 283.785156 83.347656 C 283.441406 82.515625 283.046875 82.585938 283.046875 83.480469 C 283.046875 83.984375 282.929688 84.082031 282.304688 84.082031 L 281.558594 84.082031 Z M 283.914062 81.363281 C 284.140625 81 283.878906 80.800781 283.410156 80.980469 C 283.195312 81.0625 283.085938 81.242188 283.167969 81.378906 C 283.367188 81.699219 283.710938 81.695312 283.914062 81.363281 Z M 149.097656 85.363281 C 149.097656 85.015625 151.539062 71.199219 151.933594 69.292969 L 152.074219 68.617188 L 147.835938 68.617188 L 147.980469 67.941406 C 148.164062 67.097656 149.09375 61.683594 149.097656 61.449219 C 149.097656 61.351562 149.996094 61.242188 151.09375 61.203125 L 153.09375 61.132812 L 153.675781 58.921875 C 155.140625 53.359375 157.566406 50.675781 162.101562 49.605469 C 164.566406 49.023438 169.835938 49.226562 170.25 49.921875 C 170.304688 50.011719 169.996094 51.742188 169.570312 53.769531 L 168.789062 57.449219 L 167.261719 57.367188 C 166.136719 57.304688 165.570312 57.390625 165.109375 57.691406 C 164.429688 58.136719 163.558594 59.820312 163.550781 60.703125 C 163.546875 61.238281 163.613281 61.253906 166.0625 61.253906 L 168.578125 61.253906 L 167.964844 64.9375 L 167.351562 68.617188 L 162.355469 68.617188 L 162.097656 69.90625 C 161.886719 70.941406 160.035156 81.367188 159.457031 84.753906 L 159.320312 85.554688 L 154.207031 85.554688 C 151.398438 85.554688 149.097656 85.46875 149.097656 85.363281 Z M 167.292969 84.753906 C 167.554688 83.226562 170.917969 64.027344 172.011719 57.816406 C 172.617188 54.375 173.164062 51.3125 173.230469 51.007812 C 173.351562 50.457031 173.355469 50.453125 178.628906 50.453125 L 183.910156 50.453125 L 183.769531 51.128906 C 183.609375 51.910156 182.074219 60.640625 179.8125 73.648438 C 178.945312 78.644531 178.109375 83.367188 177.960938 84.140625 L 177.6875 85.554688 L 167.15625 85.554688 Z M 182.890625 85.285156 C 182.890625 85.039062 186.644531 63.496094 186.957031 61.929688 L 187.09375 61.253906 L 192.21875 61.253906 C 195.035156 61.253906 197.339844 61.351562 197.339844 61.46875 C 197.339844 61.585938 196.402344 67 195.257812 73.496094 C 194.113281 79.996094 193.175781 85.367188 193.175781 85.433594 C 193.175781 85.5 190.863281 85.554688 188.035156 85.554688 C 184.46875 85.554688 182.890625 85.46875 182.890625 85.285156 Z M 229.78125 85 C 229.898438 84.46875 230.425781 81.480469 234.078125 60.578125 C 235.003906 55.277344 235.828125 50.832031 235.910156 50.699219 C 236 50.550781 238.015625 50.453125 241.066406 50.453125 C 245.878906 50.453125 246.070312 50.472656 246.070312 50.9375 C 246.070312 51.417969 244.21875 62.285156 243.933594 63.464844 C 243.796875 64.035156 243.859375 64.011719 244.835938 63.128906 C 245.414062 62.609375 246.59375 61.851562 247.457031 61.445312 C 250.464844 60.035156 254.222656 60.566406 256.355469 62.703125 C 258.625 64.980469 258.691406 67.265625 256.777344 78.066406 L 255.476562 85.429688 L 250.285156 85.496094 C 247.429688 85.53125 245.089844 85.519531 245.089844 85.464844 C 245.089844 85.410156 245.644531 82.234375 246.316406 78.410156 C 246.988281 74.585938 247.539062 71.210938 247.539062 70.910156 C 247.539062 70.609375 247.28125 70.058594 246.960938 69.6875 C 245.824219 68.363281 243.722656 68.992188 242.886719 70.910156 C 242.640625 71.472656 241.914062 74.996094 241.269531 78.742188 L 240.097656 85.554688 L 229.65625 85.554688 Z M 190.761719 59.027344 C 187.566406 57.746094 186.78125 53.769531 189.175781 50.964844 C 191.417969 48.339844 195.796875 48.292969 197.761719 50.871094 C 198.984375 52.480469 198.761719 55.582031 197.28125 57.464844 C 196.46875 58.507812 194.53125 59.289062 192.808594 59.273438 C 192 59.265625 191.082031 59.15625 190.761719 59.027344 Z M 190.761719 59.027344 "/>
<path style=" stroke:none;fill-rule:nonzero;fill:rgb(12.54902%,70.980392%,91.372549%);fill-opacity:1;" d="M 85.0625 119.910156 C 83.714844 119.8125 81.457031 119.546875 80.042969 119.320312 C 74.886719 118.496094 67.921875 116.4375 67.921875 115.742188 C 67.921875 115.003906 75.800781 112.722656 81.144531 111.910156 C 85.585938 111.234375 94.242188 111.289062 98.53125 112.023438 C 103.890625 112.9375 111.507812 115.191406 111.507812 115.863281 C 111.507812 116.210938 107.601562 117.546875 104.40625 118.289062 C 97.476562 119.90625 91.683594 120.390625 85.0625 119.910156 Z M 23.117188 111.738281 C 22.726562 109.886719 22.441406 104.429688 22.582031 101.40625 C 23.054688 91.0625 25.921875 81.449219 31.101562 72.851562 C 34.25 67.621094 39.566406 61.53125 44.289062 57.738281 C 48.953125 53.992188 55.621094 50.210938 61.195312 48.15625 C 75.78125 42.78125 92.878906 43.648438 106.488281 50.453125 C 108.039062 51.226562 109.902344 52.214844 110.632812 52.648438 C 112.707031 53.882812 115.523438 55.242188 117.265625 55.855469 C 118.46875 56.277344 119.417969 56.417969 121.183594 56.429688 C 123.8125 56.449219 124.90625 56.160156 126.691406 54.972656 C 131.304688 51.90625 131.460938 43.707031 127.027344 37.753906 C 126.5 37.046875 124.867188 35.472656 123.398438 34.253906 C 119.199219 30.773438 118.074219 28.800781 118.292969 25.335938 C 118.5625 21.132812 121.671875 17.558594 125.703125 16.808594 C 127.554688 16.46875 129.425781 16.828125 133.480469 18.304688 C 136.644531 19.457031 141.761719 20.734375 143.390625 20.773438 C 145.140625 20.816406 145.070312 21.121094 143.074219 22.15625 C 142.007812 22.710938 139.953125 23.621094 138.503906 24.1875 C 136.960938 24.789062 135.371094 25.609375 134.671875 26.164062 C 132.425781 27.941406 131.457031 31.183594 132.300781 34.097656 C 132.660156 35.324219 133.042969 35.847656 135.46875 38.398438 C 140.410156 43.59375 142.640625 47.433594 144.117188 53.277344 C 144.945312 56.574219 145.171875 62.289062 144.601562 65.582031 C 143.738281 70.550781 141.304688 76 138.316406 79.664062 L 137.816406 80.277344 L 137.964844 79.292969 C 138.046875 78.753906 138.324219 77.152344 138.582031 75.734375 C 138.835938 74.316406 139.152344 72.496094 139.285156 71.6875 C 139.414062 70.875 139.859375 68.335938 140.265625 66.039062 C 140.675781 63.746094 141.011719 61.675781 141.015625 61.4375 C 141.015625 61.042969 140.609375 61.007812 135.878906 61.007812 C 130.753906 61.007812 130.742188 61.011719 130.613281 61.5625 C 130.492188 62.085938 129.839844 65.75 128.746094 72.054688 C 128.476562 73.605469 128.03125 75.347656 127.757812 75.925781 C 126.945312 77.617188 125.285156 78.179688 124.03125 77.191406 C 123.171875 76.511719 123.183594 75.632812 124.132812 70.269531 C 124.546875 67.941406 125.039062 65.15625 125.230469 64.078125 C 125.792969 60.910156 126.359375 61.234375 120.402344 61.3125 L 115.210938 61.378906 L 114.417969 66.039062 C 113.980469 68.605469 113.449219 71.644531 113.234375 72.796875 C 112.195312 78.390625 112.285156 81.1875 113.558594 83.09375 C 114.976562 85.207031 117.128906 86.140625 120.277344 86.007812 C 122.675781 85.902344 124.476562 85.132812 126.164062 83.492188 L 127.242188 82.441406 L 126.992188 85.535156 L 132.046875 85.675781 L 130.59375 86.566406 C 127.257812 88.613281 123.410156 90.238281 114.644531 93.296875 C 105.171875 96.605469 95.179688 99.464844 86.890625 101.238281 C 83.070312 102.054688 82.328125 102.148438 83.042969 101.730469 C 83.871094 101.25 84.515625 99.566406 84.386719 98.226562 C 84.285156 97.179688 84.121094 96.859375 83.285156 96.078125 C 81.425781 94.339844 79.734375 94.523438 76.980469 96.75 C 74.171875 99.023438 70.328125 101.460938 66.941406 103.109375 C 65.191406 103.964844 63.480469 104.738281 63.144531 104.832031 L 62.53125 105 L 63.191406 104.296875 C 65.632812 101.695312 65.523438 97.238281 62.949219 94.542969 C 60.789062 92.277344 58.300781 91.914062 53.492188 93.15625 C 43.503906 95.738281 34.472656 101.007812 26.71875 108.777344 C 23.714844 111.789062 23.214844 112.199219 23.117188 111.738281 Z M 57.023438 85.550781 C 58.03125 85.261719 59.359375 84.753906 59.972656 84.417969 C 61.210938 83.742188 63.335938 81.988281 63.144531 81.800781 C 62.738281 81.402344 56.515625 77.207031 56.332031 77.207031 C 56.207031 77.207031 55.605469 77.488281 54.992188 77.832031 C 52.277344 79.351562 48.207031 78.472656 48.207031 76.363281 L 48.207031 75.742188 L 56.472656 75.675781 L 64.738281 75.613281 L 65.019531 74.261719 C 65.886719 70.117188 64.894531 66.164062 62.34375 63.609375 C 60.113281 61.375 57.722656 60.496094 53.839844 60.480469 C 49.957031 60.46875 46.945312 61.417969 44.144531 63.542969 C 42.320312 64.925781 41.082031 66.480469 40.003906 68.742188 C 38.933594 70.980469 38.578125 72.945312 38.695312 75.90625 C 38.78125 77.953125 38.90625 78.550781 39.542969 79.910156 C 40.804688 82.609375 43.097656 84.523438 46.257812 85.519531 C 48.542969 86.242188 48.757812 86.265625 52.125 86.167969 C 54.296875 86.101562 55.71875 85.925781 57.023438 85.550781 Z M 48.695312 70.089844 C 48.695312 69.546875 50.511719 67.882812 51.527344 67.496094 C 53.433594 66.765625 55.617188 67.441406 56.140625 68.921875 C 56.617188 70.253906 56.394531 70.335938 52.378906 70.335938 C 50.09375 70.335938 48.695312 70.242188 48.695312 70.089844 Z M 76.949219 85.359375 C 77.011719 85.253906 77.574219 82.246094 78.195312 78.671875 C 79.464844 71.367188 79.59375 70.859375 80.453125 69.839844 C 80.9375 69.261719 81.261719 69.109375 82.007812 69.109375 C 83.183594 69.109375 83.714844 69.769531 83.714844 71.230469 C 83.714844 72.234375 81.585938 84.988281 81.355469 85.363281 C 81.289062 85.46875 83.609375 85.554688 86.511719 85.554688 C 91.78125 85.554688 91.785156 85.550781 91.910156 85 C 91.976562 84.695312 92.476562 81.851562 93.019531 78.679688 C 93.566406 75.507812 94.171875 72.351562 94.367188 71.664062 C 94.867188 69.917969 95.675781 69.109375 96.914062 69.109375 C 98.0625 69.109375 98.652344 69.746094 98.652344 70.984375 C 98.652344 71.714844 96.578125 84.175781 96.296875 85.125 C 96.179688 85.523438 96.539062 85.554688 101.453125 85.554688 C 104.355469 85.554688 106.734375 85.519531 106.734375 85.476562 C 106.734375 85.433594 107.183594 82.867188 107.730469 79.769531 C 109.398438 70.375 109.476562 69.804688 109.375 67.753906 C 109.257812 65.433594 108.457031 63.683594 106.890625 62.339844 C 104.335938 60.148438 99.804688 60.011719 96.722656 62.03125 C 95.890625 62.574219 95.027344 63.265625 94.796875 63.570312 L 94.382812 64.125 L 93.710938 63.195312 C 91.824219 60.582031 87.320312 59.8125 83.832031 61.503906 C 83.277344 61.773438 82.289062 62.503906 81.636719 63.128906 L 80.453125 64.265625 L 80.613281 62.757812 L 80.769531 61.253906 L 75.757812 61.253906 C 70.09375 61.253906 70.683594 61.023438 70.402344 63.339844 C 70.335938 63.878906 70.054688 65.621094 69.777344 67.207031 C 68.847656 72.46875 67.707031 79.027344 66.703125 84.878906 L 66.585938 85.554688 L 71.707031 85.554688 C 74.523438 85.554688 76.882812 85.464844 76.949219 85.359375 Z M 206.402344 96.449219 C 202.304688 95.695312 200.085938 94.945312 198.039062 93.628906 L 196.851562 92.867188 L 198.96875 89.761719 C 201.957031 85.382812 201.585938 85.675781 202.886719 86.671875 C 205.035156 88.316406 209.46875 89.113281 211.855469 88.285156 C 213.71875 87.640625 214.972656 86.050781 215.332031 83.878906 L 215.511719 82.820312 L 214.394531 83.671875 C 212.738281 84.941406 211.074219 85.4375 208.605469 85.398438 C 204.085938 85.328125 201.003906 83.304688 199.628906 79.503906 C 199.171875 78.25 199.054688 77.425781 199.054688 75.523438 C 199.054688 71.074219 200.464844 67.460938 203.339844 64.546875 C 206.121094 61.726562 209.003906 60.601562 212.878906 60.816406 C 215.210938 60.949219 216.976562 61.628906 218.171875 62.867188 C 219.15625 63.886719 219.378906 63.914062 219.382812 63.035156 C 219.382812 62.664062 219.453125 62.109375 219.535156 61.804688 C 219.679688 61.257812 219.710938 61.253906 224.429688 61.253906 C 228.132812 61.253906 229.175781 61.324219 229.175781 61.570312 C 229.175781 61.914062 226.636719 76.5 225.628906 81.949219 C 224.578125 87.625 223.277344 90.535156 220.765625 92.835938 C 218.039062 95.328125 215.101562 96.339844 210.195312 96.476562 C 208.445312 96.523438 206.738281 96.511719 206.402344 96.449219 Z M 214.179688 77.5625 C 215.445312 77.035156 216.164062 76.304688 216.839844 74.875 C 217.960938 72.492188 217.402344 69.976562 215.585938 69.214844 C 212.503906 67.925781 209.246094 70.113281 208.921875 73.6875 C 208.738281 75.714844 209.242188 76.832031 210.617188 77.457031 C 211.890625 78.035156 212.976562 78.070312 214.179688 77.5625 Z M 266.539062 85.640625 C 264.964844 85.15625 263.808594 84.351562 263.011719 83.183594 C 261.988281 81.691406 262 79.59375 263.070312 73.746094 C 263.550781 71.101562 263.949219 68.863281 263.949219 68.777344 C 263.949219 68.6875 263.175781 68.617188 262.234375 68.617188 C 260.199219 68.617188 260.289062 68.949219 261.097656 64.445312 L 261.648438 61.378906 L 263.371094 61.304688 L 265.09375 61.234375 L 265.566406 58.484375 L 266.039062 55.730469 L 270.992188 55.664062 C 273.71875 55.628906 275.945312 55.683594 275.945312 55.789062 C 275.945312 55.890625 275.78125 56.917969 275.578125 58.0625 C 274.980469 61.480469 274.847656 61.253906 277.417969 61.253906 C 278.628906 61.253906 279.621094 61.335938 279.621094 61.4375 C 279.621094 61.695312 278.921875 65.777344 278.617188 67.328125 L 278.359375 68.617188 L 273.867188 68.617188 L 273.183594 72.484375 C 272.398438 76.945312 272.390625 77.160156 272.898438 77.890625 C 273.226562 78.355469 273.503906 78.433594 274.859375 78.433594 C 276.734375 78.433594 276.667969 78.167969 275.875 82.46875 L 275.335938 85.398438 L 274.109375 85.714844 C 272.441406 86.148438 268.054688 86.105469 266.539062 85.640625 Z M 281.820312 85.246094 C 279.246094 83.9375 279.113281 80.648438 281.566406 78.988281 C 283.976562 77.359375 287.40625 79.359375 287.144531 82.238281 C 287.019531 83.601562 286.910156 83.910156 286.410156 84.28125 C 286.171875 84.460938 286.042969 84.710938 286.125 84.839844 C 286.203125 84.96875 286.175781 85.054688 286.066406 85.03125 C 285.957031 85.007812 285.453125 85.167969 284.953125 85.390625 C 283.738281 85.933594 283.117188 85.90625 281.820312 85.246094 Z M 284.601562 85.078125 C 285.484375 84.742188 286.453125 83.589844 286.625 82.671875 C 286.839844 81.523438 286.558594 80.675781 285.660156 79.777344 C 284.933594 79.050781 284.757812 78.992188 283.433594 79.039062 C 282.121094 79.085938 281.925781 79.164062 281.175781 79.984375 C 280.527344 80.695312 280.355469 81.089844 280.355469 81.878906 C 280.355469 84.296875 282.46875 85.890625 284.601562 85.078125 Z M 281.824219 81.992188 L 281.824219 79.90625 L 283.253906 79.90625 C 284.332031 79.90625 284.789062 80.019531 285.09375 80.355469 C 285.597656 80.917969 285.613281 81.714844 285.125 82.121094 C 284.796875 82.394531 284.808594 82.523438 285.238281 83.253906 L 285.726562 84.082031 L 284.90625 84.082031 C 284.226562 84.082031 284.035156 83.953125 283.78125 83.34375 C 283.617188 82.9375 283.382812 82.609375 283.261719 82.609375 C 283.144531 82.609375 283.046875 82.9375 283.046875 83.34375 C 283.046875 83.964844 282.953125 84.082031 282.4375 84.082031 C 281.832031 84.082031 281.824219 84.054688 281.824219 81.992188 Z M 284.027344 81.257812 C 284.027344 81.054688 283.808594 80.890625 283.539062 80.890625 C 283.265625 80.890625 283.046875 81.054688 283.046875 81.257812 C 283.046875 81.460938 283.265625 81.625 283.539062 81.625 C 283.808594 81.625 284.027344 81.460938 284.027344 81.257812 Z M 149.097656 85.339844 C 149.097656 85.222656 149.210938 84.535156 149.351562 83.808594 C 149.488281 83.078125 150.089844 79.722656 150.6875 76.347656 C 151.285156 72.972656 151.847656 69.855469 151.9375 69.414062 L 152.097656 68.617188 L 147.9375 68.617188 L 148.117188 67.574219 C 148.214844 67 148.5 65.34375 148.75 63.894531 L 149.203125 61.253906 L 153.160156 61.253906 L 153.707031 59.003906 C 155.175781 52.96875 158.113281 50.09375 163.507812 49.414062 C 165.566406 49.152344 169.4375 49.394531 170.136719 49.828125 C 170.335938 49.953125 170.074219 51.527344 169.292969 54.871094 C 169.085938 55.75 168.871094 56.6875 168.816406 56.960938 C 168.722656 57.402344 168.546875 57.441406 167.089844 57.367188 C 165.785156 57.300781 165.371094 57.371094 164.964844 57.734375 C 164.347656 58.28125 163.558594 59.941406 163.550781 60.703125 C 163.546875 61.238281 163.617188 61.253906 165.996094 61.253906 C 167.664062 61.253906 168.445312 61.34375 168.445312 61.535156 C 168.445312 61.933594 167.46875 67.671875 167.316406 68.1875 C 167.203125 68.558594 166.859375 68.617188 164.757812 68.617188 C 162.441406 68.617188 162.324219 68.644531 162.207031 69.167969 C 162.046875 69.863281 159.695312 83.101562 159.480469 84.511719 L 159.320312 85.554688 L 154.210938 85.554688 C 151.398438 85.554688 149.097656 85.457031 149.097656 85.339844 Z M 167.21875 85.425781 C 167.21875 85.355469 167.558594 83.394531 167.972656 81.066406 C 168.386719 78.742188 168.828125 76.230469 168.957031 75.488281 C 170.777344 64.847656 173.277344 50.929688 173.378906 50.824219 C 173.453125 50.75 175.820312 50.71875 178.640625 50.757812 L 183.765625 50.824219 L 182.242188 59.535156 C 181.402344 64.328125 180.492188 69.519531 180.21875 71.070312 C 178.621094 80.164062 177.75 85.207031 177.75 85.367188 C 177.75 85.46875 175.378906 85.554688 172.484375 85.554688 C 169.589844 85.554688 167.21875 85.496094 167.21875 85.425781 Z M 182.894531 85.367188 C 182.898438 85.199219 183.597656 81.175781 184.851562 74.140625 C 185.945312 67.992188 187.050781 61.617188 187.054688 61.4375 C 187.054688 61.335938 189.378906 61.253906 192.21875 61.253906 L 197.378906 61.253906 L 197.242188 61.929688 C 197.164062 62.300781 196.488281 66.136719 195.738281 70.457031 C 194.988281 74.777344 194.21875 79.195312 194.023438 80.277344 C 193.828125 81.355469 193.542969 82.984375 193.386719 83.894531 L 193.105469 85.554688 L 188 85.554688 C 185.191406 85.554688 182.894531 85.46875 182.894531 85.367188 Z M 229.808594 85.128906 C 229.894531 84.773438 231.960938 72.992188 233.460938 64.324219 C 233.648438 63.242188 234.246094 59.820312 234.792969 56.714844 C 235.339844 53.609375 235.785156 50.984375 235.785156 50.882812 C 235.785156 50.785156 238.101562 50.699219 240.929688 50.699219 C 243.757812 50.699219 246.070312 50.785156 246.070312 50.886719 C 246.070312 50.988281 245.574219 53.925781 244.96875 57.410156 C 244.363281 60.894531 243.867188 63.800781 243.867188 63.867188 C 243.867188 63.9375 244.304688 63.617188 244.84375 63.15625 C 245.378906 62.695312 246.398438 61.996094 247.109375 61.601562 C 248.304688 60.9375 248.585938 60.886719 250.96875 60.886719 C 253.363281 60.886719 253.632812 60.9375 254.886719 61.621094 C 256.683594 62.605469 257.675781 64.089844 258.089844 66.425781 C 258.394531 68.128906 258.367188 68.390625 256.992188 76.433594 C 256.21875 80.976562 255.527344 84.886719 255.464844 85.125 C 255.355469 85.515625 254.890625 85.554688 250.214844 85.554688 L 245.082031 85.554688 L 245.203125 85 C 245.515625 83.605469 247.539062 71.554688 247.539062 71.109375 C 247.539062 68.9375 244.957031 68.152344 243.507812 69.878906 C 242.691406 70.851562 242.394531 72.023438 241.121094 79.292969 L 240.046875 85.429688 L 234.875 85.496094 C 230.039062 85.558594 229.714844 85.535156 229.808594 85.128906 Z M 190.921875 59.046875 C 189.117188 58.503906 187.789062 56.621094 187.792969 54.613281 C 187.792969 53.363281 188.660156 51.335938 189.53125 50.53125 C 190.480469 49.65625 192.214844 48.992188 193.5625 48.988281 C 195.316406 48.980469 197.28125 50.007812 198.007812 51.3125 C 199.398438 53.808594 198.21875 57.335938 195.550781 58.667969 C 194.253906 59.316406 192.332031 59.472656 190.921875 59.046875 Z M 190.921875 59.046875 "/>
<path style=" stroke:none;fill-rule:nonzero;fill:rgb(0%,35.686275%,99.607843%);fill-opacity:1;" d="M 28.371094 106.8125 C 28.371094 106.761719 28.566406 106.570312 28.800781 106.382812 C 29.1875 106.078125 29.199219 106.085938 28.894531 106.476562 C 28.574219 106.886719 28.371094 107.015625 28.371094 106.8125 Z M 30.332031 105.09375 C 30.332031 105.042969 30.523438 104.851562 30.757812 104.664062 C 31.148438 104.359375 31.15625 104.371094 30.851562 104.757812 C 30.53125 105.167969 30.332031 105.296875 30.332031 105.09375 Z M 51.589844 86.367188 C 51.765625 86.296875 51.976562 86.304688 52.058594 86.386719 C 52.140625 86.46875 51.996094 86.527344 51.738281 86.515625 C 51.453125 86.503906 51.394531 86.445312 51.589844 86.367188 Z M 282.152344 85.363281 C 281.996094 85.265625 282.566406 85.183594 283.417969 85.183594 C 284.734375 85.183594 285.066406 85.089844 285.621094 84.570312 C 285.984375 84.234375 286.421875 83.625 286.601562 83.222656 C 286.828125 82.707031 286.933594 82.621094 286.945312 82.9375 C 286.972656 83.574219 286.082031 84.753906 285.246094 85.1875 C 284.511719 85.570312 282.640625 85.675781 282.152344 85.363281 Z M 280.96875 84.574219 C 280.722656 84.300781 280.636719 84.082031 280.777344 84.082031 C 281.085938 84.082031 281.695312 84.78125 281.53125 84.945312 C 281.464844 85.011719 281.210938 84.84375 280.96875 84.574219 Z M 286.777344 81.730469 C 286.714844 80.988281 286.355469 80.25 285.652344 79.417969 C 285.246094 78.941406 285.308594 78.964844 285.929688 79.527344 C 286.722656 80.246094 287.367188 81.8125 287.015625 82.167969 C 286.910156 82.269531 286.804688 82.074219 286.777344 81.730469 Z M 280.597656 79.976562 C 280.597656 79.667969 281.300781 79.054688 281.464844 79.21875 C 281.527344 79.285156 281.359375 79.539062 281.089844 79.785156 C 280.820312 80.027344 280.597656 80.117188 280.597656 79.976562 Z M 49.1875 69.261719 C 49.1875 69.210938 49.378906 69.015625 49.617188 68.832031 C 50.003906 68.527344 50.011719 68.535156 49.707031 68.925781 C 49.386719 69.332031 49.1875 69.464844 49.1875 69.261719 Z M 202.972656 64.84375 C 202.972656 64.792969 203.164062 64.597656 203.402344 64.414062 C 203.789062 64.109375 203.796875 64.117188 203.492188 64.507812 C 203.171875 64.914062 202.972656 65.046875 202.972656 64.84375 Z M 120.9375 19.4375 C 120.9375 19.386719 121.128906 19.191406 121.367188 19.007812 C 121.753906 18.703125 121.761719 18.710938 121.457031 19.101562 C 121.136719 19.507812 120.9375 19.640625 120.9375 19.4375 Z M 120.9375 19.4375 "/>
<path style=" stroke:none;fill-rule:nonzero;fill:rgb(0%,0%,0%);fill-opacity:1;" d="M 282.152344 85.363281 C 281.996094 85.265625 282.566406 85.183594 283.417969 85.183594 C 284.734375 85.183594 285.066406 85.089844 285.621094 84.570312 C 285.984375 84.234375 286.421875 83.625 286.601562 83.222656 C 286.820312 82.730469 286.933594 82.632812 286.945312 82.925781 C 286.972656 83.523438 286.007812 84.789062 285.203125 85.207031 C 284.503906 85.574219 282.628906 85.667969 282.152344 85.363281 Z M 280.847656 84.453125 C 280.65625 84.222656 280.636719 84.082031 280.800781 84.082031 C 281.097656 84.082031 281.441406 84.546875 281.269531 84.714844 C 281.210938 84.777344 281.019531 84.660156 280.847656 84.453125 Z M 286.609375 80.949219 C 286.515625 80.578125 286.253906 80.050781 286.03125 79.773438 C 285.804688 79.496094 285.921875 79.582031 286.292969 79.960938 C 286.664062 80.339844 286.964844 80.871094 286.964844 81.140625 C 286.964844 81.828125 286.804688 81.742188 286.609375 80.949219 Z M 280.75 79.804688 C 280.820312 79.613281 281.058594 79.386719 281.277344 79.300781 C 281.601562 79.175781 281.59375 79.238281 281.222656 79.652344 C 280.6875 80.242188 280.566406 80.28125 280.75 79.804688 Z M 280.75 79.804688 "/>
</g>
</svg>
