<?xml version="1.0" encoding="utf-8"?>
<!-- Generator: Adobe Illustrator 21.1.0, SVG Export Plug-In . SVG Version: 6.00 Build 0)  -->
<svg version="1.1" id="Ebene_1" xmlns="http://www.w3.org/2000/svg" xmlns:xlink="http://www.w3.org/1999/xlink" x="0px" y="0px"
	 viewBox="0 0 141.7 18.2" style="enable-background:new 0 0 141.7 18.2;" xml:space="preserve">
<style type="text/css">
	.st0{fill-rule:evenodd;clip-rule:evenodd;fill:#333333;}
	.st1{fill-rule:evenodd;clip-rule:evenodd;fill:#FFFFFF;}
	.st2{fill-rule:evenodd;clip-rule:evenodd;fill:#22b7eb;}
	.st3{fill:#FFFFFF;}
	.st4{fill:#22b7eb;}
	.st5{fill:#333333;}
</style>
<g>
	<g>
		<g>
			<g>
				<path class="st0" d="M67.6,1.2c0.1,5-9.9,6.5-15.1,5.6c0,0.1,0,0.3-0.1,0.4c4,1,11.2-0.1,13.9-2.3c-0.8,4.4-9.6,4.3-14,2.9
					c0,0.1-0.1,0.3-0.1,0.4c3.7,1.4,9.5,1.3,12.5-0.2c-1.7,4-9,2.6-12.7,0.8c0,0.1-0.1,0.2-0.1,0.4c3.4,1.7,8,2.5,11.2,1.5
					c-2.2,3.4-8.5,1.2-11.5-0.9c-0.1,0.1-0.1,0.2-0.2,0.3c2.5,2,5.6,3.2,8.4,3c-2.7,2.4-6.8-0.1-8.9-2.3c-0.1,0.1-0.2,0.2-0.3,0.3
					c1.9,2.2,4.5,3.7,7.1,3.9c-2.9,1.8-6.3-1.1-7.7-3.3c-0.1,0.1-0.3,0.2-0.4,0.3c1.3,2,3.1,3.5,5.1,4.2c-2.7,0.9-4.9-1.4-5.9-3.6
					c-0.7,0.4-1.6,0.8-2.7,1v-1.7c3-0.6,4.7-3.3,5.3-6.3C56.2,6.1,64.6,4.7,67.6,1.2z"/>
			</g>
			<g>
				<path class="st0" d="M25.1,1.2C25,6.2,35,7.7,40.2,6.8c0,0.1,0,0.3,0.1,0.4c-4,1-11.2-0.1-13.9-2.3c0.8,4.4,9.6,4.3,14,2.9
					c0,0.1,0.1,0.3,0.1,0.4C36.8,9.6,31,9.5,28,8c1.7,4,9,2.6,12.7,0.8c0,0.1,0.1,0.2,0.1,0.4c-3.4,1.7-8,2.5-11.2,1.5
					c2.2,3.4,8.5,1.2,11.5-0.9c0.1,0.1,0.1,0.2,0.2,0.3c-2.5,2-5.6,3.2-8.4,3c2.7,2.4,6.8-0.1,8.9-2.3c0.1,0.1,0.2,0.2,0.3,0.3
					c-1.9,2.2-4.5,3.7-7.1,3.9c2.9,1.8,6.3-1.1,7.7-3.3c0.1,0.1,0.3,0.2,0.4,0.3c-1.3,2-3.1,3.5-5.1,4.2c2.7,0.9,4.9-1.4,5.9-3.6
					c0.7,0.4,1.6,0.8,2.7,1v-1.7c-3-0.6-4.7-3.3-5.3-6.3C36.5,6.1,28,4.7,25.1,1.2z"/>
			</g>
		</g>
		<g>
			<path class="st1" d="M46.3,14.1c3.6,0,6.5-2.8,6.5-6.2c0-3.4-2.9-6.2-6.5-6.2c-3.6,0-6.5,2.8-6.5,6.2
				C39.9,11.3,42.8,14.1,46.3,14.1z"/>
		</g>
		<g>
			<path class="st2" d="M46.3,13.7c3.4,0,6.1-2.6,6.1-5.8c0-3.2-2.7-5.8-6.1-5.8c-3.4,0-6.1,2.6-6.1,5.8
				C40.3,11.1,43,13.7,46.3,13.7z"/>
		</g>
		<g>
			<ellipse class="st1" cx="46.3" cy="7.9" rx="4.8" ry="4.6"/>
		</g>
		<g>
			<ellipse class="st0" cx="46.3" cy="7.9" rx="4.3" ry="4.1"/>
		</g>
		<g>
			<path class="st3" d="M48.7,8.2l-5.4-2c-0.1,0,0-0.1,0-0.1c0,0,0.9-0.4,0.9-0.4c0.1,0,0.2-0.1,0.3-0.1c0.1,0,0.2,0,0.2,0
				c0,0,5.5,2,5.6,2c0.1,0,0.1,0.1,0,0.2c-0.1,0-0.8,0.4-0.8,0.4C49.2,8.3,49,8.3,48.7,8.2z M49.5,8.5c-0.2,0.1-0.3,0.2-0.4,0.5
				c0,0-0.4,1.2-0.5,1.5c0,0.1,0,0.1,0.1,0.1l0.9-0.4c0.1-0.1,0.3-0.2,0.3-0.4l0.6-1.6c0-0.1,0-0.1-0.1-0.1L49.5,8.5z M48.3,10.7
				c0,0,0,0.1,0,0.2c0,0.5,0.3,1,0.3,1.2c0,0.3-0.2,0.5-0.5,0.5c-0.3,0-0.5-0.2-0.5-0.5c0-0.2,0.3-0.8,0.3-1.2c0-0.1,0-0.1,0-0.1
				c0-0.2-0.1-0.3-0.2-0.3l-5.4-2c-0.1,0-0.2-0.1-0.1-0.2l0.6-1.7c0-0.1,0.1-0.1,0.2-0.1c0,0,0,0,0.1,0l5.7,2.1
				c0.1,0,0.2,0.1,0.1,0.2l-0.5,1.5C48.3,10.4,48.3,10.6,48.3,10.7z M44.1,8.3l-1.2-0.4c-0.1,0-0.1,0-0.2,0.1c0,0.1,0,0.1,0.1,0.2
				L44,8.6c0,0,0,0,0,0c0,0,0.1,0,0.1-0.1C44.2,8.4,44.2,8.4,44.1,8.3z"/>
		</g>
	</g>
	<g>
		<g>
			<path class="st4" d="M72,9.5V1.9c0-0.1,0-0.2,0-0.2c0,0,0.1,0,0.2,0h2.2c0.4,0,0.8,0.1,1.2,0.3c0.4,0.2,0.6,0.5,0.8,0.8
				c0.2,0.4,0.3,0.7,0.3,1.2c0,0.5-0.1,0.9-0.4,1.3c0.4,0.2,0.7,0.5,0.9,0.9c0.2,0.4,0.3,0.8,0.3,1.2c0,0.4-0.1,0.8-0.3,1.2
				c-0.2,0.4-0.5,0.6-0.8,0.8c-0.4,0.2-0.8,0.3-1.2,0.3l-3,0C72.1,9.7,72,9.6,72,9.5z M74.5,5c0.3,0,0.5-0.1,0.7-0.3
				c0.2-0.2,0.3-0.4,0.3-0.7c0-0.3-0.1-0.5-0.3-0.7C74.9,3.1,74.7,3,74.4,3h-0.8c-0.2,0-0.2,0.1-0.2,0.3v1.4c0,0.2,0.1,0.3,0.3,0.3
				H74.5z M75.2,8.3c0.3,0,0.5-0.1,0.7-0.3c0.2-0.2,0.3-0.4,0.3-0.7c0-0.3-0.1-0.5-0.3-0.7c-0.2-0.2-0.4-0.3-0.7-0.3h-1.5
				c-0.2,0-0.3,0.1-0.3,0.3v1.4c0,0.2,0.1,0.3,0.3,0.3L75.2,8.3z"/>
			<path class="st4" d="M80.7,9.4c-0.4-0.3-0.8-0.6-1-1c-0.3-0.4-0.4-0.9-0.4-1.4V4.7c0-0.1,0-0.1,0.1-0.1c0,0,0.1-0.1,0.1-0.1h1.1
				c0.1,0,0.1,0,0.1,0.1c0,0,0.1,0.1,0.1,0.1v2.2c0,0.4,0.1,0.7,0.4,1c0.3,0.3,0.6,0.4,1,0.4c0.3,0,0.6-0.1,0.8-0.2
				c0.2-0.1,0.4-0.3,0.6-0.5c0.1-0.2,0.2-0.4,0.2-0.7V1.9c0-0.1,0-0.1,0.1-0.1c0,0,0.1-0.1,0.2-0.1H85c0.1,0,0.1,0,0.2,0.1
				c0,0,0.1,0.1,0.1,0.1v5.1c0,0.5-0.1,1-0.4,1.4c-0.3,0.4-0.6,0.8-1.1,1c-0.5,0.3-1,0.4-1.6,0.4C81.6,9.8,81.1,9.7,80.7,9.4z
				 M79.4,3c0,0-0.1-0.1-0.1-0.1v-1c0-0.1,0-0.1,0.1-0.1c0,0,0.1-0.1,0.1-0.1h1.1c0.1,0,0.1,0,0.1,0.1c0,0,0.1,0.1,0.1,0.1v1
				c0,0.1,0,0.1-0.1,0.1c0,0-0.1,0.1-0.1,0.1h-1.1C79.4,3.1,79.4,3,79.4,3z"/>
			<path class="st4" d="M89.3,9.7c0,0,0-0.1,0-0.1V3.3c0-0.1,0-0.1-0.1-0.2c-0.1-0.1-0.1-0.1-0.2-0.1h-1.9c0,0-0.1,0-0.1,0
				c0,0,0-0.1,0-0.1V1.8c0,0,0-0.1,0-0.1c0,0,0.1,0,0.1,0h6.1c0,0,0.1,0,0.1,0c0,0,0,0.1,0,0.1v1.1c0,0,0,0.1,0,0.1c0,0-0.1,0-0.1,0
				h-1.9c-0.1,0-0.1,0-0.2,0.1C91,3.2,91,3.3,91,3.3v6.2c0,0,0,0.1,0,0.1c0,0-0.1,0-0.1,0h-1.4C89.4,9.7,89.4,9.7,89.3,9.7z"/>
			<path class="st4" d="M97.5,9.7c0,0,0-0.1,0-0.1V3.3c0-0.1,0-0.1-0.1-0.2c-0.1-0.1-0.1-0.1-0.2-0.1h-1.9c0,0-0.1,0-0.1,0
				c0,0,0-0.1,0-0.1V1.8c0,0,0-0.1,0-0.1c0,0,0.1,0,0.1,0h6.1c0,0,0.1,0,0.1,0c0,0,0,0.1,0,0.1v1.1c0,0,0,0.1,0,0.1c0,0-0.1,0-0.1,0
				h-1.9c-0.1,0-0.1,0-0.2,0.1c-0.1,0.1-0.1,0.1-0.1,0.2v6.2c0,0,0,0.1,0,0.1c0,0-0.1,0-0.1,0h-1.4C97.6,9.7,97.6,9.7,97.5,9.7z"/>
			<path class="st4" d="M103.4,3c0,0-0.1-0.1-0.1-0.2v-1c0-0.1,0-0.1,0.1-0.1c0,0,0.1-0.1,0.1-0.1h5.3c0.1,0,0.1,0,0.2,0.1
				c0,0,0.1,0.1,0.1,0.1v1c0,0.1,0,0.1-0.1,0.1c0,0-0.1,0.1-0.2,0.1h-5.3C103.5,3.1,103.4,3.1,103.4,3z M103.4,9.6
				c0,0-0.1-0.1-0.1-0.1V4.2c0-0.1,0-0.1,0.1-0.1c0,0,0.1-0.1,0.1-0.1h1c0.1,0,0.1,0,0.1,0.1c0,0,0.1,0.1,0.1,0.1V5
				c0,0.1,0.1,0.2,0.3,0.2h2.9c0.1,0,0.1,0,0.1,0.1c0,0,0.1,0.1,0.1,0.1v1c0,0.1,0,0.1-0.1,0.1c0,0-0.1,0.1-0.1,0.1H105
				c-0.2,0-0.3,0.1-0.3,0.2v1.3c0,0.1,0,0.1,0.1,0.1c0,0,0.1,0.1,0.1,0.1h3.9c0.1,0,0.1,0,0.1,0.1c0,0,0.1,0.1,0.1,0.1v1
				c0,0.1,0,0.1-0.1,0.1c0,0-0.1,0.1-0.1,0.1h-5.3C103.5,9.7,103.4,9.7,103.4,9.6z"/>
			<path class="st4" d="M110.9,9.7c0,0-0.1-0.1-0.1-0.1V1.9c0-0.1,0-0.1,0.1-0.1c0,0,0.1-0.1,0.2-0.1h2.4c0.5,0,0.9,0.1,1.3,0.3
				c0.4,0.2,0.7,0.5,1,0.9c0.2,0.4,0.3,0.8,0.3,1.3c0,0.4-0.1,0.8-0.3,1.1c-0.2,0.3-0.4,0.6-0.7,0.9c0,0-0.1,0.1-0.1,0.1
				c0,0,0,0,0,0.1c0,0,0,0,0,0l1.3,3c0,0.1,0,0.1,0,0.1c0,0.1,0,0.1-0.1,0.1h-1c-0.1,0-0.1,0-0.2,0c0,0-0.1-0.1-0.1-0.1l-1.2-2.7
				c0,0,0-0.1-0.1-0.1c0,0-0.1,0-0.2,0h-0.9c-0.1,0-0.2,0-0.2,0c0,0-0.1,0.1-0.1,0.2v2.5c0,0.1,0,0.1-0.1,0.1c0,0-0.1,0.1-0.2,0.1
				h-0.9C111,9.7,111,9.7,110.9,9.7z M113.5,5.3c0.3,0,0.6-0.1,0.8-0.3c0.2-0.2,0.3-0.5,0.3-0.8c0-0.3-0.1-0.6-0.3-0.8
				c-0.2-0.2-0.5-0.3-0.8-0.3h-1.1c-0.1,0-0.2,0.1-0.2,0.2v1.7c0,0.1,0,0.1,0,0.1c0,0,0.1,0.1,0.1,0.1H113.5z"/>
		</g>
		<g>
			<path class="st5" d="M72.9,15.8h-0.6V11H75v0.5h-2.1v1.7h2v0.5h-2V15.8z"/>
			<path class="st5" d="M80.4,15.8V11h0.6v4.3H83v0.5H80.4z"/>
			<path class="st5" d="M88.4,15.8V11h0.6v4.8H88.4z"/>
			<path class="st5" d="M96.9,13.3h1.6v2.3c-0.3,0.1-0.5,0.1-0.8,0.2c-0.3,0-0.6,0.1-0.9,0.1c-0.7,0-1.3-0.2-1.7-0.6
				c-0.4-0.4-0.6-1-0.6-1.8c0-0.5,0.1-0.9,0.3-1.3c0.2-0.4,0.5-0.7,0.9-0.9c0.4-0.2,0.8-0.3,1.3-0.3c0.5,0,1,0.1,1.4,0.3l-0.2,0.5
				c-0.4-0.2-0.8-0.3-1.2-0.3c-0.6,0-1,0.2-1.4,0.5c-0.3,0.3-0.5,0.8-0.5,1.4c0,0.6,0.2,1.1,0.5,1.5c0.3,0.3,0.8,0.5,1.4,0.5
				c0.3,0,0.7,0,1-0.1v-1.5h-1.1V13.3z"/>
			<path class="st5" d="M107.9,15.8h-0.6v-2.2h-2.5v2.2h-0.6V11h0.6v2h2.5v-2h0.6V15.8z"/>
			<path class="st5" d="M115.1,15.8h-0.6v-4.3H113V11h3.6v0.5h-1.5V15.8z"/>
		</g>
	</g>
</g>
</svg>
