<?xml version="1.0" encoding="UTF-8"?>
<svg width="2064.3" height="1046.9" version="1.1" viewBox="0 0 2064.3 1046.9" xml:space="preserve" xmlns="http://www.w3.org/2000/svg" xmlns:cc="http://creativecommons.org/ns#" xmlns:dc="http://purl.org/dc/elements/1.1/" xmlns:rdf="http://www.w3.org/1999/02/22-rdf-syntax-ns#"><metadata><rdf:RDF><cc:Work rdf:about=""><dc:format>image/svg+xml</dc:format><dc:type rdf:resource="http://purl.org/dc/dcmitype/StillImage"/><dc:title/></cc:Work></rdf:RDF></metadata><defs><clipPath id="clipPath18"><path d="m0 1152h2048v-1152h-2048z"/></clipPath></defs><g transform="matrix(1.3333 0 0 -1.3333 -359.54 1320.3)"><g clip-path="url(#clipPath18)"><g transform="translate(574.65,600.29)"><path d="m0 0c-2.677 2.203-6.398 3.305-11.169 3.305-3.037 0-5.748-0.516-8.133-1.542-2.386-1.028-4.446-2.274-6.181-3.742-1.735-1.467-3.145-3.042-4.229-4.73-1.085-1.687-1.844-3.267-2.277-4.734h35.784c0.143 0.44 0.218 0.915 0.218 1.429v1.21c0 3.667-1.339 6.602-4.013 8.804" fill="#00aeef"/></g><g transform="translate(1202.6,646.21)"><path d="m0 0c2.023-1.952 4.518-3.507 7.482-4.663 2.962-1.159 6.324-1.735 10.085-1.735 4.047 0 7.771 0.722 11.17 2.169 3.395 1.444 6.289 3.433 8.675 5.964 2.386 2.528 4.229 5.494 5.53 8.892 1.301 3.396 1.952 7.049 1.952 10.953 0 2.744-0.58 5.385-1.735 7.916-1.159 2.527-2.785 4.772-4.88 6.724-2.097 1.951-4.629 3.504-7.59 4.662-2.966 1.155-6.181 1.735-9.651 1.735-4.196 0-7.954-0.725-11.278-2.169-3.328-1.447-6.218-3.436-8.675-5.964-2.461-2.532-4.338-5.496-5.64-8.892-1.301-3.399-1.951-7.049-1.951-10.952 0-2.749 0.576-5.388 1.735-7.916 1.156-2.532 2.745-4.772 4.771-6.724" fill="#00aeef"/></g><g transform="translate(828.18,591.77)"><path d="m0 0c-0.217-1.81-0.471-3.578-0.76-5.313l-12.145-69.185h-48.797l10.626 60.51c0.289 1.156 0.468 2.419 0.543 3.795 0.071 1.373 0.108 2.494 0.108 3.361 0 6.649-2.965 9.977-8.892 9.977-3.182 0-5.893-1.555-8.133-4.663-2.243-3.111-3.87-7.34-4.88-12.687l-10.627-60.293h-48.581l10.627 60.076c0.289 1.155 0.469 2.348 0.543 3.578 0.071 1.227 0.108 2.203 0.108 2.928 0 3.324-0.759 5.998-2.277 8.024-1.519 2.024-3.724 3.037-6.615 3.037-2.748 0-5.279-1.375-7.591-4.121-2.314-2.748-4.049-7.157-5.205-13.229l-10.626-60.293h-48.581l16.048 91.74c0.576 2.745 1.193 6.289 1.844 10.627s1.118 8.241 1.409 11.711h46.847c-0.146-2.168-0.363-4.662-0.651-7.481-0.292-2.82-0.579-5.243-0.868-7.266h0.868c3.179 4.337 7.591 8.313 13.229 11.929 5.639 3.612 12.363 5.421 20.17 5.421 8.384 0 15.073-1.518 20.061-4.554 4.989-3.036 8.709-7.157 11.17-12.362 3.758 4.626 8.35 8.6 13.771 11.928 5.423 3.325 12.254 4.988 20.495 4.988 6.649 0 12.325-1.084 17.026-3.253 4.696-2.168 8.529-4.989 11.494-8.458 2.962-3.47 5.131-7.374 6.506-11.712 1.373-4.337 2.061-8.675 2.061-13.013 0-2.026-0.109-3.94-0.325-5.747m-208.2-18.326c-0.508-3.761-1.268-7.232-2.277-10.41h-77.643c-0.146-0.434-0.217-0.943-0.217-1.519 0-2.46 0.651-4.445 1.952-5.964 1.302-1.518 2.89-2.748 4.772-3.686 1.877-0.943 3.904-1.593 6.072-1.952 2.169-0.363 4.121-0.542 5.856-0.542 3.612 0 7.157 0.613 10.627 1.843 3.47 1.227 6.578 3.145 9.326 5.747l32.749-22.555c-7.52-7.665-16.124-13.013-25.809-16.049-9.688-3.036-19.736-4.555-30.146-4.555-8.099 0-15.799 1.085-23.098 3.253-7.303 2.169-13.663 5.423-19.086 9.76-5.421 4.338-9.725 9.723-12.903 16.157-3.182 6.432-4.772 13.989-4.772 22.664 0 9.686 1.735 18.761 5.205 27.219s8.35 15.795 14.639 22.013c6.29 6.214 13.806 11.094 22.556 14.639 8.746 3.541 18.398 5.314 28.953 5.314 8.384 0 15.903-1.194 22.555-3.579 6.649-2.385 12.288-5.784 16.917-10.193 4.625-4.413 8.204-9.759 10.735-16.05 2.529-6.289 3.796-13.337 3.796-21.145 0-3.182-0.254-6.652-0.759-10.41m325.14 220.69c8.893 7.981 21.222 10.416 31.765 15.329 4.87 2.27 9.698 4.623 14.429 7.172 0.968 0.522 4.317 3.192 5.444 3.045-14.627 1.912-30.179 4.313-44.283 8.723-13.889 4.343-27.256 12.222-42.218 11.855-31.041-0.759-52.072-37.738-35.193-64.327 7.037-11.085 19.11-17.775 28.591-26.857 13.066-12.518 21.204-30.049 22.33-48.109 0.839-13.442-2.558-27.852-12.315-37.137-11.966-11.387-30.791-12.526-46.648-7.898s-29.782 14.066-44.302 21.942c-54.252 29.424-119.31 37.95-179.7 26.271-48.856-9.448-94.71-32.367-131.72-65.611-22.98-20.643-42.563-45.212-57.451-72.286-14.854-27.014-25.039-56.558-30.218-86.94-4.894-28.714-5.278-58.179-1.02-86.998 0.121-0.824 1.162-1.111 1.698-0.474 18.552 22.08 40.588 41.168 65.015 56.495 24.314 15.255 50.978 26.79 78.807 33.85 7.08 1.796 14.359 3.32 21.639 2.729 20.137-1.634 33.66-22.889 28.432-42.051-1.842-6.754-5.837-12.841-11.272-17.25-0.033-0.026-0.066-0.051-0.099-0.077 0.03 3e-3 0.188 0.037 0.195 0.038 6.054 1.546 11.661 4.135 17.329 6.768 5.746 2.669 11.39 5.556 16.919 8.65 11.056 6.187 21.648 13.207 31.65 20.984 5.036 3.916 9.884 9.157 16.321 10.649 7.84 1.817 16.811-2.534 20.139-9.87 4.246-9.357-1.15-21.179-10.92-24.189 61.309 11.542 120.64 29.231 179.11 50.863 17.501 6.476 35.058 13.214 50.865 23.132 2.395 1.503 4.737 3.078 7.027 4.718h-24.762c0.143 2.17 0.359 4.663 0.651 7.482 0.288 2.821 0.576 5.24 0.868 7.266h-0.868c-3.328-4.629-7.991-8.675-13.989-12.145-6.001-3.47-12.616-5.206-19.844-5.206-6.365 0-11.749 0.943-16.158 2.821-4.412 1.877-8.025 4.371-10.844 7.482-2.819 3.108-4.846 6.686-6.072 10.735-1.23 4.046-1.844 8.242-1.844 12.58 0 2.31 0.109 4.733 0.325 7.264 0.217 2.529 0.543 4.951 0.976 7.266l11.929 68.533h48.797l-10.626-60.509c-0.292-1.3-0.471-2.639-0.543-4.011-0.074-1.376-0.108-2.495-0.108-3.363 0-2.893 0.792-5.242 2.386-7.048 1.589-1.81 4.12-2.712 7.59-2.712 3.325 0 6.252 1.482 8.784 4.447 2.528 2.962 4.3 7.265 5.314 12.905l10.843 60.291h48.581l-15.838-90.536c21.907 25.764 34.691 59.04 34.691 93.249 0 35.8-13.587 71.118-38.145 97.169-1.255 1.332-2.539 2.639-3.852 3.921-5.239 5.119-10.963 9.914-14.8 16.154-8.2 13.337-5.439 32.369 6.213 42.826" fill="#00aeef"/></g><g transform="translate(826.2,376.65)"><path d="m0 0c-65.694 26.41-139.1 26.348-204.35 0.675-1.445-0.57-1.484-2.604-0.063-3.23 2.171-0.955 4.425-2.104 5.271-2.405 3.315-1.18 6.653-2.298 10.011-3.355 6.415-2.02 12.899-3.815 19.442-5.373 26.889-6.404 54.691-8.906 82.293-7.522 4.961 0.248 9.915 0.622 14.856 1.12 24.755 2.493 49.196 8.111 72.505 16.819 1.499 0.561 1.524 2.674 0.039 3.271" fill="#6dcff6"/></g><g transform="translate(1595.2,564.34)"><path d="m0 0 5.855 32.099h21.255l6.073 34.917h-21.905l4.555 25.809h-47.063l-4.555-25.809h-16.049l-6.073-34.917h16.917l-7.591-41.859c-0.292-1.734-0.542-3.616-0.759-5.638-0.217-2.027-0.326-3.833-0.326-5.422 0-5.931 1.119-10.774 3.362-14.532 2.24-3.76 5.168-6.723 8.784-8.891 3.612-2.169 7.733-3.688 12.362-4.555 4.626-0.868 9.326-1.301 14.097-1.301 4.48 0 9.109 0.362 13.88 1.084 4.772 0.725 8.097 1.664 9.977 2.82l5.856 33.399c-1.159-0.291-2.603-0.58-4.338-0.867-1.735-0.292-3.47-0.434-5.205-0.434-3.036 0-5.388 0.542-7.048 1.626-1.665 1.085-2.495 3.287-2.495 6.616 0 0.721 0.034 1.66 0.109 2.819 0.071 1.155 0.18 2.168 0.325 3.036" fill="#00aeef"/></g><g transform="translate(1519.6,623.65)"><path d="m0 0c-2.82 3.106-6.435 5.602-10.844 7.481-4.412 1.878-9.797 2.82-16.157 2.82-6.653 0-12.834-1.592-18.544-4.771-5.714-3.182-10.302-6.869-13.772-11.061h-0.433l11.06 63.112h-48.797l-28.846-163.96h48.798l10.627 60.293c1.01 5.639 2.783 9.94 5.314 12.904 2.528 2.962 5.456 4.447 8.783 4.447 3.471 0 5.998-0.905 7.592-2.711 1.589-1.81 2.385-4.158 2.385-7.049 0-0.867-0.037-1.988-0.108-3.361-0.075-1.376-0.254-2.711-0.542-4.013l-10.628-60.51h48.799l11.928 68.534c0.434 2.312 0.759 4.735 0.976 7.266 0.217 2.528 0.326 4.951 0.326 7.266 0 4.337-0.618 8.53-1.844 12.579-1.23 4.046-3.254 7.625-6.073 10.736" fill="#00aeef"/></g><g transform="translate(1334,569.43)"><path d="m0 0c-1.084-3.111-2.603-5.855-4.555-8.241-1.951-2.386-4.338-4.338-7.156-5.857-2.82-1.517-5.965-2.277-9.435-2.277s-6.364 0.543-8.675 1.627c-2.314 1.085-4.121 2.42-5.422 4.013-1.301 1.589-2.206 3.395-2.711 5.422-0.508 2.022-0.759 3.903-0.759 5.638 0 3.036 0.505 6.072 1.518 9.11 1.01 3.036 2.494 5.781 4.446 8.241 1.952 2.457 4.337 4.446 7.157 5.964s6.107 2.277 9.868 2.277c5.348 0 9.577-1.446 12.688-4.338 3.107-2.893 4.662-6.868 4.662-11.928 0-3.328-0.542-6.544-1.626-9.651m9.868 49.557h-0.651c-3.469 5.205-8.133 9.001-13.988 11.386-5.856 2.386-11.533 3.578-17.025 3.578-9.401 0-18.002-1.842-25.809-5.53-7.808-3.686-14.497-8.749-20.062-15.181-5.567-6.436-9.905-13.918-13.013-22.448-3.111-8.533-4.662-17.641-4.662-27.327 0-6.651 1.009-12.795 3.036-18.433 2.023-5.64 5.022-10.52 9-14.641 3.975-4.12 8.963-7.34 14.965-9.65 5.998-2.315 12.976-3.471 20.929-3.471 3.47 0 6.757 0.397 9.868 1.193 3.107 0.793 5.89 1.807 8.35 3.036 2.457 1.227 4.626 2.566 6.506 4.012 1.878 1.444 3.396 2.82 4.555 4.121h0.651l-1.084-5.639c-0.435-2.893-1.268-5.604-2.495-8.132-1.23-2.529-3.002-4.772-5.314-6.724-2.314-1.951-5.17-3.504-8.566-4.662-3.399-1.156-7.557-1.735-12.471-1.735-5.497 0-11.495 1.159-18.001 3.469-6.506 2.315-12.074 5.713-16.7 10.194l-22.989-33.4c3.47-2.89 7.482-5.456 12.037-7.699 4.554-2.24 9.434-4.121 14.639-5.639s10.59-2.636 16.158-3.362c5.564-0.722 11.023-1.084 16.374-1.084 21.396 0 38.314 4.988 50.75 14.965 12.434 9.976 20.675 26.172 24.725 48.581l18.001 102.58h-45.762z" fill="#00aeef"/></g><g transform="translate(1128.3,681.23)"><path d="m0 0-28.845-163.96h49.665l28.846 163.96z" fill="#00aeef"/></g><g transform="translate(1106.2,631.35)"><path d="m0 0h-24.074l0.434 2.603c0.868 4.626 2.311 8.421 4.338 11.386 2.023 2.962 5.564 4.446 10.627 4.446 1.735 0 3.433-0.183 5.096-0.541 1.662-0.364 3.071-0.834 4.23-1.411l7.807 36.436c-2.748 1.156-6.218 1.986-10.41 2.494-4.194 0.505-7.953 0.759-11.277 0.759-10.269 0-18.869-1.409-25.809-4.229-6.94-2.819-12.616-6.652-17.025-11.495-4.413-4.845-7.808-10.447-10.194-16.807-2.385-6.365-4.229-13.088-5.53-20.17l-0.651-3.471h-18.868l-6.073-34.917h19.519l-14.097-79.162h48.364l14.097 79.162h23.424z" fill="#00aeef"/></g><g transform="translate(1193.1,631.35)"><path d="m0 0-20.17-114.08h48.581l20.17 114.08z" fill="#00aeef"/></g><g transform="translate(1663.8,523.62)"><path d="m0 0-0.759 12.133c-0.075 1.592-0.075 3.56-0.15 5.762h-0.228c-0.532-1.82-1.139-4.249-1.743-6.145l-3.716-11.445h-4.244l-3.716 11.751c-0.38 1.59-0.986 4.019-1.442 5.839h-0.227c0-1.897-0.075-3.872-0.152-5.762l-0.757-12.133h-3.943l1.517 20.622h6.141l3.563-10.086c0.455-1.592 0.835-3.105 1.364-5.229h0.077c0.53 1.896 0.985 3.637 1.439 5.157l3.563 10.158h5.914l1.592-20.622zm-22.289 20.622v-3.41h-6.595v-17.212h-4.095v17.212h-6.596v3.41z" fill="#00aeef"/></g></g></g></svg>
