<?xml version="1.0" encoding="UTF-8" standalone="no"?>
<!-- Created with Inkscape (http://www.inkscape.org/) -->

<svg
   xmlns:dc="http://purl.org/dc/elements/1.1/"
   xmlns:cc="http://creativecommons.org/ns#"
   xmlns:rdf="http://www.w3.org/1999/02/22-rdf-syntax-ns#"
   xmlns:svg="http://www.w3.org/2000/svg"
   xmlns="http://www.w3.org/2000/svg"
   xmlns:sodipodi="http://sodipodi.sourceforge.net/DTD/sodipodi-0.dtd"
   xmlns:inkscape="http://www.inkscape.org/namespaces/inkscape"
   version="1.1"
   id="svg2"
   width="1628"
   height="804"
   viewBox="0 0 1628 804"
   sodipodi:docname="emuflight-invert.svg"
   inkscape:version="0.92.1 r15371">
  <metadata
     id="metadata8">
    <rdf:RDF>
      <cc:Work
         rdf:about="">
        <dc:format>image/svg+xml</dc:format>
        <dc:type
           rdf:resource="http://purl.org/dc/dcmitype/StillImage" />
        <dc:title></dc:title>
      </cc:Work>
    </rdf:RDF>
  </metadata>
  <defs
     id="defs6" />
  <sodipodi:namedview
     pagecolor="#ffffff"
     bordercolor="#666666"
     borderopacity="1"
     objecttolerance="10"
     gridtolerance="10"
     guidetolerance="10"
     inkscape:pageopacity="0"
     inkscape:pageshadow="2"
     inkscape:window-width="1920"
     inkscape:window-height="1018"
     id="namedview4"
     showgrid="false"
     inkscape:zoom="0.43734644"
     inkscape:cx="1196.0842"
     inkscape:cy="478.20725"
     inkscape:window-x="-8"
     inkscape:window-y="-8"
     inkscape:window-maximized="1"
     inkscape:current-layer="svg2" />
  <g
     id="g14"
     transform="translate(9.1460678,-4.5730337)">
    <path
       style="fill:#d2effa;stroke-width:1.33333337"
       d="m 458.78932,657.05516 c -33.4314,-1.70389 -78.41709,-11.23259 -96.03048,-20.34083 -6.78473,-3.50852 -5.28807,-5.21112 9.03812,-10.28168 31.84487,-11.27105 73.70416,-18.45184 107.37543,-18.41981 15.1933,0.0144 44.12738,2.93963 60.16094,6.08216 26.0861,5.11279 60.66667,16.45947 60.66667,19.90612 0,3.30396 -26.87859,11.89864 -54.29164,17.36025 -27.14963,5.40912 -55.74767,7.2825 -86.91904,5.69379 z M 115.48559,611.66667 c -0.44616,-2.38334 -1.44431,-13.63334 -2.21812,-25 -8.71641,-128.03712 62.3459,-250.6659 178.06586,-307.27963 47.26102,-23.12152 90.28348,-33.15769 142,-33.12537 60.22834,0.0376 107.6946,13.1907 164.60439,45.61249 31.34929,17.85985 50.51803,22.31153 69.98432,16.25295 12.84977,-3.99931 20.12272,-10.28234 26.385,-22.79378 3.43836,-6.86953 3.67121,-8.4296 3.68173,-24.66666 0.009,-15.15299 -0.39904,-18.42351 -3.25029,-26 -6.94019,-18.44176 -13.33969,-26.84771 -32.99,-43.33334 -7.86697,-6.6 -16.4774,-14.87625 -19.13427,-18.39168 -14.33318,-18.96489 -11.67968,-46.13194 6.25791,-64.06953 6.95216,-6.95215 14.22601,-11.021331 24.32683,-13.60904 10.37576,-2.658147 19.54216,-1.306829 38.80105,5.72008 22.47689,8.20105 32.31055,10.88483 51.01863,13.92389 10.09357,1.63967 18.15674,3.56685 17.91814,4.28262 -0.75772,2.27316 -15.69726,9.86752 -33.45112,17.00452 -20.12808,8.09144 -26.37925,12.47924 -32.01594,22.47248 -3.77835,6.69858 -4.13594,8.37201 -4.13131,19.33333 0.007,15.27515 0.798,16.72995 20.10612,36.95375 16.21695,16.98602 27.32232,32.37044 34.06747,47.19405 26.49306,58.22307 19.51149,122.91892 -18.67812,173.08379 -3.30704,4.34405 -6.21314,7.29726 -6.45799,6.56273 -0.24484,-0.73455 3.47041,-23.69871 8.25613,-51.03145 4.78574,-27.33275 8.70132,-50.53598 8.70132,-51.56272 0,-1.53911 -4.7681,-1.86682 -27.16156,-1.86682 h -27.16156 l -0.92604,7 c -0.50933,3.85 -2.01413,12.7 -3.34401,19.66667 -1.32988,6.96667 -3.73328,20.16667 -5.34088,29.33333 -3.42039,19.50319 -7.08313,28.77204 -12.7308,32.21623 -5.95869,3.63385 -10.86992,3.12079 -15.62281,-1.63209 -3.92383,-3.92383 -4.05174,-4.41232 -3.29038,-12.56559 0.4357,-4.66567 1.9802,-14.97853 3.43227,-22.91747 6.68292,-36.53806 8.1694,-45.30761 8.158,-48.12869 l -0.012,-3.0276 -26.964,0.36093 -26.964,0.36095 -1.08445,6 c -1.21084,6.69919 -4.09198,23.39213 -10.35579,60 -5.7474,33.58979 -4.56733,45.00016 5.76915,55.78351 8.11558,8.46642 13.18585,10.21649 29.59909,10.21649 17.07655,0 21.68703,-1.77 33.35523,-12.80529 3.78632,-3.58095 7.21986,-6.17518 7.63009,-5.76494 0.41024,0.41023 0.42303,4.30635 0.0284,8.65806 L 683.62963,468 l 14.51852,0.0541 14.51852,0.0541 -4.64428,3.96917 C 692.36888,485.4556 613.35177,515.67517 538,537.10149 c -31.90804,9.07307 -72.26265,18.72918 -97.78499,23.39814 l -4.45164,0.81436 6.34906,-5.74816 c 6.01258,-5.44355 6.37982,-6.17376 6.92993,-13.77884 0.54379,-7.51775 0.30824,-8.34119 -3.68773,-12.89236 -4.87032,-5.54699 -12.28732,-8.30843 -18.95568,-7.05744 -2.7618,0.51812 -10.73482,5.54645 -20.46195,12.90473 -23.65836,17.89683 -58.53916,37.26355 -73.27033,40.68159 l -4,0.92812 4.26504,-4.50915 c 17.5202,-18.52299 12.08358,-48.93708 -10.91196,-61.04476 -14.87842,-7.83381 -54.112,1.40029 -98.68642,23.22708 -33.81501,16.55823 -59.3556,35.08601 -87.61357,63.55709 C 125.66564,607.71185 117.18241,616 116.86815,616 c -0.31425,0 -0.93641,-1.95 -1.38256,-4.33333 z M 292.21604,470.11753 c 5.38117,-1.03536 13.21881,-3.1728 17.41699,-4.74988 7.3668,-2.7674 23.75478,-13.6461 23.64824,-15.69822 -0.0492,-0.94718 -32.05872,-23.12263 -34.86283,-24.15216 -0.72315,-0.2655 -4.28875,1.13589 -7.92356,3.11421 -5.29373,2.88121 -8.41172,3.607 -15.66964,3.64755 C 260.75167,432.35765 252,427.02464 252,418.36999 v -3.70332 h 45.10433 45.10434 l 1.56233,-6.76839 c 3.61028,-15.64056 0.81923,-35.16469 -6.91309,-48.35891 -10.97291,-18.72384 -35.20015,-28.00114 -64.64623,-24.75492 -31.29489,3.45006 -55.85043,22.7465 -66.31196,52.10986 -3.122,8.76281 -4.54564,24.61577 -3.18424,35.45805 2.96645,23.62499 21.10695,42.00808 47.00839,47.63705 11.01256,2.39328 30.41516,2.45178 42.49217,0.12814 z m -36.59757,-85.7842 C 258.61775,376.27181 270.78211,368 279.63795,368 c 9.80636,0 19.02872,7.19541 19.02872,14.84648 v 3.82019 h -21.95816 c -20.35435,0 -21.89475,-0.17043 -21.09004,-2.33334 z M 489.77264,467 c 0.34045,-1.28333 1.26907,-5.93333 2.06359,-10.33333 5.6091,-31.06288 6.88857,-38.38539 8.15409,-46.66667 3.4238,-22.40471 8.64932,-31.33333 18.33797,-31.33333 5.98848,0 9.21712,2.71314 10.41742,8.75416 0.76001,3.82508 -0.29166,11.44101 -6.0638,43.9125 -1.56428,8.8 -3.41316,19.6 -4.1086,24 -0.69544,4.4 -1.57036,9.35 -1.94428,11 l -0.67983,3 h 27.35873 c 15.04731,0 27.35874,-0.32529 27.35874,-0.72288 0,-0.39758 0.87789,-5.04758 1.95086,-10.33333 1.07299,-5.28575 2.52979,-13.21045 3.23735,-17.61045 0.70756,-4.4 3.18455,-18.5 5.50441,-31.33334 5.39984,-29.87146 5.63639,-40.80609 1.09643,-50.68357 -4.70075,-10.22732 -9.36661,-15.25192 -18.18359,-19.58164 -6.73242,-3.30607 -9.05948,-3.73105 -20.27213,-3.70221 -15.36483,0.0395 -21.89104,2.56088 -32.43188,12.52996 l -7.09652,6.7116 -3.98339,-5.63707 c -2.35869,-3.33788 -6.94144,-7.26201 -11.2358,-9.62104 -6.63208,-3.64319 -8.33586,-3.98157 -19.91908,-3.95607 -15.34889,0.0339 -21.94805,2.58742 -32.5165,12.58262 -3.89098,3.67992 -7.54938,6.69076 -8.12979,6.69076 -0.58041,0 -0.65443,-3.91275 -0.16447,-8.69499 l 0.89083,-8.69499 -26.33569,0.36166 L 376.742,338 l -1.60127,11.33333 c -1.44621,10.23583 -18.05517,106.14096 -19.91584,115 L 354.45479,468 h 27.25708 27.25708 l 1.51889,-7.66667 c 0.83539,-4.21666 2.43336,-13.06666 3.55105,-19.66666 8.5016,-50.20254 8.74504,-51.18886 14.15534,-57.35084 3.29625,-3.75423 5.04229,-4.64916 9.07057,-4.64916 9.90345,0 12.47616,8.38106 8.79971,28.66666 -1.19615,6.6 -3.04911,17.1 -4.11768,23.33334 -1.06858,6.23333 -3.06844,17.48333 -4.44414,25 l -2.50128,13.66666 h 27.07611 c 24.66208,0 27.13131,-0.20804 27.69512,-2.33333 z m 623.77666,62.14907 c -6.1145,-0.63979 -16.743,-3.02871 -23.6189,-5.30872 -12.9568,-4.29642 -27.2637,-12.17064 -27.2637,-15.00543 0,-1.21788 23.3452,-36.42132 26.0845,-39.33416 0.2582,-0.27459 2.4449,1.16988 4.8592,3.20992 9.5611,8.079 28.1525,13.56615 40.8914,12.06893 14.0471,-1.65096 23.9417,-8.74728 26.185,-18.77961 0.4919,-2.2 1.1737,-5.033 1.515,-6.29556 0.4637,-1.71541 -1.0745,-1.15488 -6.0864,2.21793 -9.6208,6.47432 -22.7869,9.25644 -35.4621,7.49348 -15.3751,-2.13848 -23.8598,-5.95573 -32.5467,-14.64257 -11.2234,-11.2234 -14.1096,-19.70801 -14.0967,-41.43995 0.01,-14.03748 0.5076,-18.11308 3.1649,-25.8356 9.221,-26.79761 28.4263,-46.01476 52.1229,-52.15517 17.931,-4.6464 37.2586,-1.13716 48.5688,8.81845 l 6.0243,5.30287 0.8931,-6.73195 0.893,-6.73193 h 27.3371 27.3371 l -0.7389,5 c -0.4064,2.75 -1.9854,12.05 -3.5089,20.66667 -3.0587,17.29961 -5.6688,32.18424 -12.8012,73 -2.627,15.03333 -6.0133,31.53333 -7.5251,36.66666 -10.3606,35.17967 -33.1044,54.15896 -69.4961,57.9932 -13.9229,1.46692 -17.1851,1.44924 -32.7316,-0.17746 z m 45.0932,-105.13676 c 16.2199,-8.27476 20.4759,-34.88378 6.7175,-41.99851 -6.4361,-3.32825 -17.2347,-2.61348 -23.6829,1.5676 -10.8317,7.02344 -16.0505,25.06548 -10.143,35.06604 4.5801,7.75356 17.4382,10.29824 27.1084,5.36487 z m 286.874,47.97118 c -15.942,-3.36836 -26.4716,-14.35622 -27.8004,-29.01032 -0.709,-7.81982 -0.1352,-12.54572 4.8938,-40.3065 1.3948,-7.7 2.9054,-16.25 3.3568,-19 l 0.8208,-5 h -9.5451 -9.5452 l 0.872,-6.33334 C 1409.0488,368.85 1410.6819,359.25 1412.1984,351 l 2.7573,-15 h 9.1635 c 10.4088,0 9.4477,1.23633 11.9191,-15.33333 2.319,-15.5482 -1.078,-14 30.7182,-14 18.4706,0 27.9102,0.46996 27.9102,1.38954 0,1.24588 -3.0322,17.25631 -4.7239,24.94379 -0.6492,2.94947 -0.4436,3 12.2063,3 h 12.8665 l -0.7515,4.33333 c -0.4133,2.38334 -1.9614,11.39151 -3.4404,20.01816 -1.4788,8.62666 -3.0545,16.27666 -3.5016,17 -0.447,0.72335 -6.122,1.31518 -12.6109,1.31518 h -11.798 l -2.2487,13 c -1.2366,7.15 -2.7888,15.1 -3.449,17.66666 -1.7059,6.63076 -1.4992,16.51623 0.3845,18.4 0.9307,0.93072 5.3925,1.6 10.6667,1.6 6.3682,0 9.0645,0.49604 9.0596,1.66667 -0.013,2.33208 -5.2332,33.18156 -6.0764,35.88856 -0.3807,1.22204 -2.6176,2.93059 -4.9711,3.79676 -5.4893,2.02043 -33.1713,2.90203 -40.7623,1.29817 z m 79.8276,-2.90801 c -7.8076,-4.00917 -12.0108,-10.34027 -12.0108,-18.09112 0,-11.88647 9.708,-21.65103 21.5256,-21.65103 6.7111,0 12.0771,2.78292 16.4692,8.54132 9.8894,12.96558 2.0019,30.97463 -14.6614,33.47579 -4.07,0.61091 -6.752,0.072 -11.3226,-2.27496 z m 15.5691,-3.99937 3.7535,-1.59058 -3.7359,-0.50468 c -2.5164,-0.33993 -4.2325,-1.67049 -5.2572,-4.07609 l -1.5213,-3.57143 -0.498,3.66667 c -0.4335,3.19139 -1.0915,3.66667 -5.0762,3.66667 H 1524 l -0.044,-12.33334 -0.044,-12.33333 -2.6224,3.14771 c -3.1793,3.81637 -3.4625,12.02642 -0.6055,17.55137 3.6208,7.00199 12.2992,9.73765 20.2298,6.37703 z m 9.7535,-14.06383 c 0,-5.42804 -2.936,-11.44916 -6.9558,-14.26468 -3.291,-2.30517 -13.9132,-2.77109 -17.0442,-0.7476 -1.4094,0.91081 0.4609,1.29853 6.3333,1.31292 6.5376,0.016 8.908,0.59507 11,2.68708 3.1381,3.13817 3.4808,8.33116 0.7017,10.63752 -1.7266,1.43304 -1.7065,2.13011 0.1656,5.75052 2.0222,3.91047 2.2236,3.99233 3.965,1.61104 1.0089,-1.37981 1.8344,-4.52388 1.8344,-6.9868 z m -748.52739,18.54645 c -0.3766,-0.60936 0.50834,-7.65936 1.96654,-15.66666 1.45822,-8.00731 3.80647,-21.15874 5.21834,-29.2254 1.41188,-8.06667 3.78753,-21.56667 5.27925,-30 1.49172,-8.43334 2.71619,-15.48334 2.72105,-15.66667 0.005,-0.18333 -4.69116,-0.33333 -10.4356,-0.33333 -5.74445,0 -10.7421,-0.29766 -11.10589,-0.66146 -0.3638,-0.3638 0.91976,-9.8138 2.85237,-21 l 3.51383,-20.33854 10.91348,-0.38707 c 10.66135,-0.37812 10.93144,-0.47053 11.69041,-4 8.30718,-38.63063 23.8145,-55.48229 55.61048,-60.4314 10.98882,-1.71043 28.40866,-0.67553 35.00226,2.07945 4.27266,1.78523 4.36865,1.9951 3.18152,6.95656 C 917.87412,283.69789 915.773,293.2 913.87821,302 c -1.8948,8.8 -3.54254,16.08473 -3.66165,16.18829 -0.11907,0.1036 -3.24123,-0.43924 -6.93803,-1.20624 -10.69688,-2.21936 -18.0647,2.93847 -20.0243,14.01795 l -0.88434,5 h 13.66295 13.66296 l -0.85147,5.66667 c -2.36166,15.71741 -5.81325,33.99833 -6.68566,35.40993 -0.65235,1.05552 -5.359,1.59007 -14.00055,1.59007 h -13.01784 l -1.49031,9 c -0.81968,4.95 -2.74896,15.9 -4.28729,24.33333 -1.53833,8.43333 -3.67611,20.73333 -4.7506,27.33333 -1.07449,6.6 -2.58616,15 -3.35924,18.66667 -0.77309,3.66667 -1.68267,8.01667 -2.02129,9.66667 -0.61484,2.99589 -0.65382,3 -28.5116,3 -15.34275,0 -28.20404,-0.49858 -28.58064,-1.10794 z m 98.75158,0.13367 c -0.69258,-1.12472 0.30727,-7.43512 8.40172,-53.02573 9.28704,-52.30763 12.24742,-69.14068 17.35215,-98.66667 1.39464,-8.06667 3.46928,-19.76667 4.61032,-26 1.14104,-6.23333 2.07543,-11.78333 2.07643,-12.33333 10e-4,-0.55 13.20182,-1 29.33516,-1 H 992 v 3.15134 c 0,1.73324 -0.62247,6.38324 -1.38327,10.33334 -0.76078,3.95009 -2.52456,13.78198 -3.91949,21.84865 -1.39492,8.06667 -3.75655,21.56667 -5.24804,30 -2.59216,14.65672 -10.34167,58.59485 -16.34392,92.66667 -1.55025,8.8 -3.48313,19.9 -4.29529,24.66666 L 959.33333,470 l -28.9054,0.35907 c -15.89797,0.19749 -29.18964,-0.10254 -29.53704,-0.66667 z m 85.30748,-0.0381 c -0.72673,-1.17588 3.08599,-24.43756 13.0558,-79.65431 1.85373,-10.26667 4.63273,-25.86667 6.17563,-34.66667 1.5429,-8.8 3.0336,-16.75 3.3126,-17.66666 0.3853,-1.26603 7.4084,-1.66667 29.2158,-1.66667 15.7896,0 28.7085,0.28341 28.7085,0.6298 0,0.3464 -1.526,9.1964 -3.3911,19.66667 -1.8651,10.47028 -4.53,25.63686 -5.922,33.70353 -7.0896,41.08559 -13.3619,75.92568 -14.0712,78.16044 -0.745,2.34733 -2.5603,2.50627 -28.6269,2.50627 -15.3073,0 -28.11301,-0.45556 -28.45713,-1.01236 z m 255.13493,-2.13895 c 0,-1.73324 0.6176,-6.38324 1.3723,-10.33333 1.2419,-6.49958 5.0079,-27.85019 9.9687,-56.51532 1.0152,-5.86667 4.3015,-24.46667 7.3028,-41.33334 3.0012,-16.86666 6.701,-37.86666 8.2217,-46.66666 1.5207,-8.8 3.4481,-19.9 4.2831,-24.66667 l 1.5181,-8.66667 29,-0.35933 c 23.9719,-0.29704 29,-0.0396 29,1.48468 0,1.0142 -0.6311,5.07591 -1.4026,9.026 -1.4104,7.22209 -5.5428,30.96797 -7.9789,45.84865 -0.7203,4.4 -1.6154,9.34931 -1.9891,10.99847 -0.6049,2.66953 0.091,2.41241 6.3456,-2.34391 9.6969,-7.37426 19.0435,-10.65456 30.3583,-10.65456 12.2396,0 22.6534,3.91644 30.0312,11.29439 10.9522,10.95208 12.6059,25.8196 6.614,59.46223 -1.885,10.58386 -4.6166,26.14338 -6.0704,34.57672 -4.74,27.49941 -5.0982,29.35617 -5.92,30.68597 -0.988,1.59847 -56.1868,1.81649 -57.1699,0.22581 -0.3699,-0.59852 0.1357,-5.24852 1.1237,-10.33333 0.9879,-5.08481 3.0867,-16.74512 4.6639,-25.91179 1.5773,-9.16666 3.7362,-21.22653 4.7977,-26.7997 2.9448,-15.46211 2.6112,-20.47082 -1.5834,-23.77019 -6.972,-5.48427 -15.3266,-2.28516 -19.5159,7.47301 -1.2035,2.80328 -3.4368,11.99688 -4.9629,20.43022 -1.5262,8.43333 -3.6121,19.83333 -4.6355,25.33333 -1.0233,5.5 -2.5863,14.8 -3.4733,20.66667 -0.887,5.86666 -2.2006,11.41666 -2.9192,12.33333 -0.9708,1.2384 -8.4595,1.66667 -29.1432,1.66667 h -27.8368 z M 1026.8389,324.50279 c -10.1828,-5.07431 -14.2011,-11.6608 -14.0767,-23.07331 0.1032,-9.46705 2.3799,-15.40568 8.39,-21.88492 13.6423,-14.70712 39.5976,-12.68865 49.2269,3.8282 6.2326,10.69081 1.5719,30.40015 -8.9628,37.90151 -10.4579,7.44665 -23.6423,8.67769 -34.5774,3.22852 z"
       id="path28"
       inkscape:connector-curvature="0" />
    <path
       style="fill:#a0def5;stroke-width:1.33333337"
       d="m 443.61948,655.96724 c -35.34084,-4.02677 -86.33392,-17.82393 -84.64144,-22.90137 1.34039,-4.02114 38.08067,-15.12924 65.65195,-19.8493 30.74561,-5.26348 73.24461,-5.51333 104.03668,-0.61164 24.01186,3.82238 64.9328,15.56915 69.73358,20.01774 2.58959,2.39961 0.20622,3.79829 -14.40025,8.4507 -36.04077,11.47962 -58.16729,14.97736 -98.66667,15.59714 -17.23333,0.26372 -36.00456,-0.0528 -41.71385,-0.70327 z M 116.83695,614.93131 c -0.31286,-0.51222 -1.25692,-6.60867 -2.0979,-13.54768 -1.95049,-16.09366 -1.97269,-51.47592 -0.0431,-68.71696 9.51843,-85.04826 50.05953,-159.67406 116.61782,-214.6636 36.17191,-29.88474 84.95963,-53.53428 131.73423,-63.85735 27.39855,-6.0468 34.85085,-6.76399 70.28535,-6.76399 21.52153,0 37.91481,0.6357 44.66666,1.73206 42.83762,6.95597 76.80375,18.7542 112.07686,38.93017 30.36454,17.36832 44.61924,22.56385 62.01448,22.603 27.4731,0.0619 44.32916,-16.07367 47.45012,-45.42172 1.80202,-16.94544 -7.76127,-44.43304 -20.31774,-58.39885 -3.4358,-3.82146 -12.1569,-11.78038 -19.38022,-17.68652 -15.3592,-12.55844 -22.8732,-22.71002 -25.23682,-34.09547 -5.77016,-27.79471 16.01188,-57.849232 43.527,-60.057881 11.00691,-0.88353 20.99442,1.167897 38.02638,7.810591 16.21148,6.3227 34.593,10.9963 52.42458,13.32923 7.01179,0.91736 12.7487,2.09736 12.7487,2.62221 0,1.4714 -19.09592,11.00255 -34.66667,17.30282 -16.88621,6.83255 -23.15628,10.81292 -28.90435,18.34915 -5.21444,6.83657 -7.46424,14.27301 -7.41397,24.50595 0.0569,11.59252 4.47657,19.57865 19.04552,34.4146 26.82289,27.31446 41.55499,53.94721 48.85767,88.32506 3.22942,15.20276 3.22761,48.17988 -0.004,63.39162 -5.09008,23.96361 -16.167,49.0948 -29.70672,67.39828 -6.8601,9.27372 -9.04838,10.90509 -7.91046,5.8973 0.37494,-1.65 4.28947,-24 8.69898,-49.66666 4.40949,-25.66667 8.258,-47.71667 8.55221,-49 0.4962,-2.16432 -1.46475,-2.33334 -27.07141,-2.33334 h -27.60636 l -2.26251,12.33334 c -1.24439,6.78333 -4.38788,23.95669 -6.98555,38.16302 -4.95896,27.11995 -6.16309,30.77543 -11.90472,36.14 -7.06577,6.60179 -18.40044,3.32144 -20.10798,-5.81941 -0.61395,-3.28655 7.81214,-56.77423 12.15374,-77.15028 l 0.78127,-3.66667 h -27.83925 -27.83926 l -7.13144,41 c -8.09238,46.52463 -9.0167,55.41224 -6.83254,65.69684 6.33094,29.81058 46.99329,37.59103 71.87272,13.75234 3.31973,-3.18038 6.3136,-5.78251 6.65354,-5.78251 0.33994,0 0.2418,3.6 -0.21809,8 l -0.83617,8 h 13.97956 c 7.70337,0 13.97956,0.55527 13.97956,1.2368 0,3.33143 -29.37048,18.28025 -56,28.50259 -62.53062,24.00374 -134.73139,45.71689 -193.36996,58.15272 -23.33435,4.94864 -26.37062,5.15912 -20.206,1.40068 5.56509,-3.39294 10.15954,-13.11088 9.02818,-19.09596 -1.90484,-10.07696 -9.97506,-16.8635 -20.05328,-16.8635 -6.1159,0 -11.07858,2.55954 -22.0476,11.3712 -12.7598,10.25026 -31.0758,21.90338 -48.17201,30.6483 -14.562,7.44865 -27.96877,12.96884 -28.99785,11.93976 -0.27414,-0.27412 1.64033,-2.99706 4.25434,-6.05095 18.50202,-21.61544 6.7077,-55.25901 -21.49213,-61.30679 -8.76543,-1.87985 -20.11281,-0.15602 -41.61036,6.32118 -53.1706,16.02028 -98.29177,43.70228 -138.29711,84.84581 -8.9634,9.21843 -16.55307,16.34168 -16.86594,15.82947 z M 302,468.34557 c 4.4,-1.4275 11.12785,-4.18813 14.95077,-6.1347 6.82927,-3.47736 16.38256,-10.91646 16.38256,-12.757 0,-0.5151 -8.14057,-6.50923 -18.09014,-13.32027 -16.37872,-11.21216 -18.30238,-12.19524 -20.33334,-10.39144 -10.5999,9.41431 -36.62564,7.92471 -41.31377,-2.36461 C 250.07661,415.65315 248.02551,416 297.22285,416 h 45.22284 l 1.44383,-6.73229 c 3.69037,-17.20767 0.77283,-37.95059 -7.08505,-50.37266 -12.9185,-20.42208 -40.06664,-29.438 -71.02051,-23.58596 -33.20804,6.27822 -57.22633,30.72332 -62.88843,64.00596 -5.93252,34.87223 9.56727,60.13014 43.10447,70.24155 11.10928,3.34944 44.14539,2.63501 56,-1.21103 z m -46,-83.6325 c 0,-3.03047 8.1398,-11.57422 12.93635,-13.57835 5.7367,-2.39695 16.92224,-2.28775 21.75701,0.21241 4.67744,2.4188 6.63997,5.73854 6.63997,11.23188 v 4.08766 H 276.66667 C 259.40332,386.66667 256,386.34496 256,384.71307 Z M 491.84408,459 c 5.46117,-33.24588 12.18167,-67.1822 14.00096,-70.70033 6.28781,-12.1593 20.15276,-12.58142 22.72243,-0.69179 0.46093,2.13267 -2.05352,19.84255 -5.88115,41.42248 C 519.00884,449.76372 516,467.32589 516,468.05741 c 0,0.85331 9.91117,1.20086 27.65191,0.96964 l 27.65192,-0.36038 7.06834,-39.33334 c 8.41582,-46.83161 9.30996,-60.8886 4.53744,-71.33333 -3.85496,-8.43663 -9.75044,-14.60689 -18.24294,-19.09328 -5.98174,-3.16 -8.10503,-3.52183 -20.66667,-3.52183 -12.52249,0 -14.70357,0.36891 -20.66667,3.4956 -3.66666,1.92258 -9.34845,5.87622 -12.62618,8.78586 l -5.95951,5.29026 -6.70716,-7.03854 c -8.49507,-8.91483 -17.29176,-11.86894 -32.68891,-10.9776 -12.45066,0.72076 -19.83964,4.00616 -29.58292,13.15362 -3.85036,3.61492 -7.22121,6.57258 -7.49078,6.57258 -0.26956,0 -0.0724,-3.9 0.438,-8.66667 l 0.92812,-8.66667 H 402.822 376 v 3.10375 c 0,1.70705 -4.79757,30.65705 -10.66128,64.33333 C 359.47501,438.44668 354.67501,466.45 354.67205,467 c -0.003,0.55 12.28319,1 27.30255,1 27.23732,0 27.30961,-0.008 27.95972,-3 0.35848,-1.65 2.18281,-11.7 4.05407,-22.33333 9.46756,-53.79899 10.43921,-57.34659 16.9571,-61.9119 7.52579,-5.27126 17.05451,0.54991 17.05451,10.41875 0,2.80229 -10.27657,62.76588 -12.76667,74.49315 l -0.77854,3.66666 h 27.84593 27.84595 z M 1110,528.69519 c -0.7333,-0.2352 -5.7823,-1.45158 -11.2199,-2.70306 -5.4376,-1.25148 -12.6376,-3.4429 -16,-4.86985 -7.9698,-3.38224 -20.1134,-10.71024 -20.1134,-12.13733 0,-1.60516 25.3382,-38.3231 26.4259,-38.29402 0.4991,0.0133 3.5163,1.79228 6.705,3.9532 18.6103,12.6118 44.6432,14.08211 57.3133,3.23698 5.3173,-4.55148 10.249,-14.23618 9.3482,-18.35787 -0.377,-1.72468 -1.4872,-1.40724 -6.2071,1.77471 -9.7672,6.58476 -17.5772,8.46189 -32.1056,7.71662 -26.3147,-1.34986 -42.7592,-14.23717 -48.9328,-38.3479 -4.3844,-17.12295 -0.3982,-41.51342 9.8061,-60 17.0382,-30.86719 55.9098,-45.67375 83.898,-31.95754 4.538,2.22396 9.7434,5.81719 11.5674,7.98495 l 3.3165,3.94137 1.1108,-6.9844 1.1109,-6.98438 26.9883,-0.36095 c 14.8436,-0.19851 26.9884,-0.13889 26.9884,0.13248 0,2.49164 -21.8185,124.72316 -23.2855,130.44976 -6.5597,25.60708 -19.6729,43.80665 -38.3848,53.27351 -12.8879,6.5203 -27.0097,9.16681 -48.3297,9.05726 -10.2667,-0.0528 -19.2667,-0.28836 -20,-0.52354 z m 48.3995,-103.90948 c 9.0956,-4.75175 15.3092,-15.34807 15.4652,-26.37335 0.1765,-12.48223 -6.866,-19.11127 -20.1831,-18.99796 -13.7756,0.1172 -24.7927,12.71053 -24.7927,28.33987 0,8.97277 1.7654,12.79748 7.5295,16.31209 5.1079,3.11452 16.672,3.49296 21.9811,0.71935 z M 1450,472.52048 c -17.2621,-4.4556 -24.6516,-9.03543 -29.7205,-18.42028 -3.4378,-6.36456 -2.637,-24.29756 2.2348,-50.04937 2.2838,-12.07206 4.1524,-23.02206 4.1524,-24.33334 0,-2.06548 -1.2618,-2.38416 -9.4394,-2.38416 h -9.4392 l 0.7282,-3.66666 c 0.4004,-2.01667 2.001,-10.85971 3.557,-19.6512 1.5559,-8.7915 3.1114,-16.4415 3.4564,-17 0.3452,-0.55851 4.5111,-1.01547 9.2575,-1.01547 5.7391,0 8.8031,-0.55829 9.1472,-1.66667 0.2845,-0.91666 1.5212,-7.51666 2.748,-14.66666 l 2.2308,-13 h 27.9665 c 26.0079,0 27.9186,0.16342 27.2794,2.33333 -0.3782,1.28333 -1.3383,6.23333 -2.1336,11 -0.7955,4.76667 -1.7743,10.31667 -2.1752,12.33333 L 1489.1215,336 h 12.0272 c 6.615,0 12.2802,0.45 12.5894,1 0.3092,0.55 -0.9594,9.85 -2.819,20.66667 l -3.3812,19.66666 h -12.3752 -12.3752 l -0.8695,5 c -0.4783,2.75 -2.0036,11 -3.3897,18.33334 -3.598,19.0355 -3.4083,25.36193 0.8441,28.14824 2.6012,1.70438 5.0407,2.01366 10.6667,1.35242 4.0118,-0.47152 7.2942,-0.37108 7.2942,0.22318 0,0.59425 -1.4974,9.44949 -3.3276,19.6783 -1.8302,10.22883 -3.3302,18.71966 -3.3333,18.86852 -0.047,2.24046 -34.2131,5.25042 -40.6724,3.58315 z m 73.8044,-4.5406 c -6.4464,-3.40589 -11.088,-12.66463 -10.0877,-20.12225 2.5321,-18.87856 27.4776,-24.75135 37.9454,-8.93334 12.1607,18.37603 -8.0914,39.49892 -27.8577,29.05559 z m 18.8623,-3.31321 3.3333,-1.90551 -4.0915,-0.0472 c -3.2624,-0.0377 -4.5284,-0.92529 -6.248,-4.38059 l -2.1566,-4.33333 -0.085,4.33333 c -0.08,4.04726 -0.3934,4.33334 -4.752,4.33334 h -4.6666 l -0.029,-13 -0.029,-13 -2.5868,3.33333 c -8.3305,10.73412 -0.8691,26.73221 12.4151,26.61941 3.0604,-0.026 7.0644,-0.90472 8.8977,-1.95274 z m 7.9528,-14.8977 c 0.052,-6.14996 -4.3878,-12.84837 -9.678,-14.60084 -4.2236,-1.39912 -13.01,-0.96624 -14.7006,0.72423 -1.0324,1.03241 0.663,1.44097 5.9792,1.44097 11.7992,0 17.3818,5.8828 12.3711,13.03648 -1.8932,2.70296 -1.868,3.31438 0.2869,6.96242 l 2.3624,3.99922 1.6659,-2.99905 c 0.9161,-1.64949 1.6871,-5.50303 1.7131,-8.56343 z m -13.9528,-4.43564 C 1536.2135,444.6 1535.278,444 1534.588,444 c -0.6901,0 -1.2547,0.6 -1.2547,1.33333 0,0.73334 0.9355,1.33334 2.0787,1.33334 1.1433,0 1.7079,-0.6 1.2547,-1.33334 z m -733.24837,14.33334 c 0.93522,-5.31667 4.44868,-25.0768 7.8077,-43.9114 3.35901,-18.83462 6.1073,-35.18462 6.1073,-36.33334 0,-1.72186 -1.87297,-2.0886 -10.66666,-2.0886 -7.64672,0 -10.66547,-0.47186 -10.66242,-1.66666 0.005,-1.9275 3.43059,-22.41982 5.45203,-32.6141 l 1.37761,-6.94742 10.7184,-0.38591 10.71839,-0.38591 3.01825,-11.67336 c 7.55048,-29.20213 22.43663,-45.31457 46.45303,-50.27972 12.80717,-2.64776 41.25251,-1.4969 44.55191,1.8025 0.41209,0.4121 -1.24239,10.09437 -3.67664,21.51617 l -4.42591,20.76691 -7.11073,-0.88843 c -11.86479,-1.48241 -17.8588,3.03268 -20.91679,15.75593 L 881.28253,336 h 14.19207 14.19207 l -0.73194,3.66667 c -0.40256,2.01666 -2.06809,11.31666 -3.70117,20.66666 l -2.96925,17 h -13.58218 -13.58216 l -2.26494,13 c -5.40576,31.02719 -12.931,73.24106 -13.54812,76 -0.67024,2.99642 -0.7051,3 -29.12,3 h -28.44896 z m 97.37618,7.35852 c 0.30692,-1.29719 4.17502,-23.05852 8.59578,-48.35852 19.02602,-108.88571 23.97675,-136.76307 24.56662,-138.33334 0.47434,-1.26277 7.62568,-1.66666 29.51013,-1.66666 h 28.88408 l -0.73943,5 c -0.40668,2.75 -6.82994,39.5 -14.2739,81.66666 -7.44398,42.16667 -14.55964,82.66667 -15.81258,90 l -2.27808,13.33334 -29.50533,0.35852 c -27.64329,0.3359 -29.47011,0.20969 -28.94729,-2 z m 85.31681,4.9e-4 c 0.46353,-2.01835 13.98798,-78.98576 19.97768,-113.69235 1.0757,-6.23333 2.2572,-12.68333 2.6255,-14.33333 0.6682,-2.99357 0.7291,-3 28.422,-3 15.2638,0 28.0598,0.30741 28.4355,0.68315 0.7314,0.73134 0.4448,2.46342 -13.3442,80.65018 l -9.0531,51.33334 -28.8026,0.35901 c -26.96821,0.33613 -28.76803,0.20876 -28.26078,-2 z m 255.22228,0.64099 c 10e-5,-0.91667 0.8965,-6.35086 1.9921,-12.07599 1.0955,-5.72512 5.614,-31.22512 10.041,-56.66667 10.8362,-62.27344 19.8946,-113.59928 20.6946,-117.25734 0.6557,-2.99764 0.6787,-3 29.2974,-3 15.7527,0 28.6413,0.30936 28.6413,0.68746 0,0.37811 -2.7115,16.06664 -6.0255,34.8634 -3.314,18.79675 -5.8306,34.37082 -5.5924,34.609 0.2382,0.2382 2.621,-1.37041 5.2952,-3.5747 2.6742,-2.20428 8.3408,-5.6377 12.5924,-7.62982 6.6291,-3.10608 9.4396,-3.61957 19.7303,-3.60488 13.4553,0.0192 21.3008,2.82207 28.7499,10.27124 8.2152,8.2151 9.9002,13.42818 9.8201,30.3783 -0.059,12.37584 -1.4064,22.81424 -6.988,54.11868 -3.8035,21.33193 -6.9153,39.18193 -6.9153,39.66666 0,0.48472 -12.9,0.88132 -28.6667,0.88132 -22.7893,0 -28.6667,-0.35921 -28.6667,-1.75202 0,-0.96362 2.7,-17.11074 6,-35.88248 6.8124,-38.75195 7.2454,-45.12014 3.3334,-49.03216 -5.529,-5.52896 -16.1299,-2.10654 -20.6701,6.67317 -1.0725,2.07407 -4.6377,18.97109 -7.9226,37.54893 -3.2849,18.57784 -6.3704,35.7279 -6.8566,38.11123 l -0.8841,4.33333 h -28.5 c -21.9112,0 -28.4999,-0.3853 -28.4997,-1.66666 z M 1030.4945,325.98776 c -11.555,-3.69644 -19.7867,-16.87484 -17.7027,-28.34085 4.624,-25.44122 33.1175,-36.54594 51.7315,-20.16124 7.0012,6.1627 9.438,12.34813 8.381,21.27336 -2.4488,20.67577 -22.5503,33.58176 -42.4098,27.22873 z"
       id="path26"
       inkscape:connector-curvature="0" />
    <path
       style="fill:#65c9f0;stroke-width:1.33333337"
       d="m 453.33333,656.52499 c -2.56666,-0.30504 -9.76666,-1.16576 -16,-1.9127 -17.10384,-2.04954 -37.59744,-6.36392 -54.51458,-11.47657 C 365.60457,637.93331 360,635.39333 360,632.79436 c 0,-1.93109 20.57437,-9.22997 39.59868,-14.04788 43.4354,-11.00003 96.17472,-12.48508 139.73465,-3.93472 25.25367,4.95703 59.33334,15.98741 59.33334,19.20409 0,3.84766 -43.15282,15.85216 -72,20.02942 -14.52602,2.10345 -62.77255,3.73488 -73.33334,2.47972 z M 114.88212,600.33333 c -2.13967,-19.75257 -1.94055,-49.66726 0.46763,-70.25416 15.43343,-131.93642 110.23148,-240.61426 238.4592,-273.37305 29.7156,-7.59155 44.29346,-9.29555 79.52438,-9.29555 35.21452,0 49.89335,1.71399 79.33334,9.26338 29.244,7.49914 50.93226,16.58369 83.62009,35.02592 27.79659,15.68262 39.97491,19.56501 58.79045,18.74208 15.14812,-0.66252 24.67448,-4.72116 32.83091,-13.98736 8.47235,-9.6251 11.23377,-18.39099 11.27389,-35.78792 0.0299,-12.95684 -0.43496,-15.99476 -3.98732,-26.0589 -5.30284,-15.02333 -11.8808,-24.62944 -24.87153,-36.32104 -22.73785,-20.46396 -27.36804,-25.20208 -30.81264,-31.53094 -16.14031,-29.65507 5.74644,-69.023217 39.89753,-71.764539 10.12216,-0.81251 15.68492,0.454518 39.25862,8.941929 18.34865,6.60619 36.70545,11.15957 51.6965,12.82323 4.59974,0.51046 8.66426,1.4153 9.03227,2.01074 1.30145,2.10581 -10.22,7.84778 -41.39544,20.6303 -18.21813,7.46979 -27.80748,20.76932 -27.83353,38.60255 -0.0201,13.73735 2.89897,18.98612 21.08725,37.91713 26.37375,27.45075 39.31781,51.42723 46.86217,86.80352 3.789,17.76699 3.2909,47.05739 -1.12429,66.11236 -4.07983,17.60766 -11.31055,35.75496 -20.1906,50.6734 -7.14107,11.99695 -17.01813,24.2057 -16.04029,19.82692 0.32752,-1.46666 4.19988,-23.66666 8.60525,-49.33333 4.40536,-25.66667 8.31164,-48.01667 8.68063,-49.66667 l 0.67088,-3 h -28.0254 c -15.41398,0 -28.0254,0.24058 -28.0254,0.5346 0,4.48872 -14.0693,75.94664 -15.5798,79.1298 -2.98751,6.29571 -7.84847,9.66894 -13.93335,9.66894 -7.49711,0 -10.4876,-3.51802 -10.48397,-12.33334 0.001,-3.85 2.69449,-22.3 5.98425,-41 3.28977,-18.7 5.98848,-34.45 5.99713,-35 0.009,-0.55 -12.58426,-1 -27.98426,-1 -15.4,0 -28,0.35559 -28,0.7902 0,0.43462 -3.34374,19.78462 -7.43052,43 -9.99562,56.78104 -9.5595,68.57756 2.97508,80.47166 7.21009,6.84166 15.83556,9.72394 29.1221,9.73141 10.23818,0.005 13.11936,-0.51791 19.6241,-3.56668 4.19324,-1.96537 10.70608,-6.45625 14.47298,-9.97975 l 6.8489,-6.40634 -0.95666,8.93312 -0.95665,8.93312 14.29235,0.37996 14.29234,0.37997 -11.06266,6.57512 C 661.53865,499.36817 548.39993,536.85176 462.43767,555.24396 450.21171,557.85979 439.93229,560 439.59452,560 c -0.33777,0 1.65959,-2.27371 4.43856,-5.05269 13.02208,-13.02208 4.65935,-33.61398 -13.65124,-33.61398 -7.74767,0 -9.63793,0.9035 -21.04851,10.06058 -19.46077,15.61745 -55.17925,36.44126 -72.81224,42.44942 l -5.99581,2.04299 3.61092,-4.27649 c 10.76313,-12.74702 12.93219,-29.04351 5.77268,-43.37096 -7.75667,-15.52247 -20.98484,-22.72258 -38.71829,-21.07443 -27.57132,2.56249 -79.81762,23.84427 -113.30448,46.15296 -22.86854,15.23485 -49.25063,37.89256 -61.88611,53.14959 -3.66667,4.42741 -7.31885,8.08354 -8.11595,8.12476 -0.86794,0.0449 -2.0721,-5.6746 -3.00193,-14.25842 z M 299.45336,469.30264 c 11.37415,-2.90901 22.82055,-8.66668 30.2624,-15.22231 l 5.04909,-4.44781 -6.38242,-4.59451 c -3.51034,-2.52697 -11.81815,-8.31592 -18.46182,-12.86433 l -12.07938,-8.26983 -6.28052,3.51026 c -7.40119,4.1366 -18.98848,5.57834 -27.13004,3.37564 C 258.41048,429.16099 252,422.85637 252,418.56436 252,416.08441 253.49137,416 297.30793,416 h 45.30794 l 1.0254,-3.66667 c 0.56397,-2.01666 1.0254,-11.46666 1.0254,-21 0,-16.70566 -0.15327,-17.65685 -4.23254,-26.26761 -9.86773,-20.82944 -29.75194,-31.77279 -57.61612,-31.70924 -37.37465,0.0852 -66.19661,20.69157 -78.2945,55.97685 -1.91732,5.59216 -2.51539,11.14868 -2.51891,23.40248 -0.004,15.89744 0.0491,16.17772 5.01657,26.22883 9.59078,19.4056 24.21007,28.67815 52.97883,33.60276 6.67667,1.14291 29.65377,-0.75845 39.45336,-3.26476 z M 256,385.53051 c 0,-2.83456 6.57105,-10.43534 11.37276,-13.15494 5.87044,-3.3249 17.358,-4.12193 22.38156,-1.55285 4.59569,2.35025 7.51717,6.80467 7.54936,11.51061 l 0.0297,4.33334 H 276.66667 C 265.3,386.66667 256,386.1554 256,385.53051 Z M 409.82181,467 c 0.3675,-1.28333 3.4487,-18.23333 6.84711,-37.66667 6.58059,-37.63012 9.04228,-45.4146 15.40141,-48.70304 5.20376,-2.69097 7.17927,-2.48118 11.48123,1.21922 3.23743,2.7847 3.68188,4.07725 3.55328,10.33333 -0.0808,3.93277 -2.91252,22.46571 -6.29259,41.18431 -3.38008,18.7186 -6.14558,34.4686 -6.14558,35 0,0.5314 12.6,0.96618 28,0.96618 17.03969,0 28,-0.50206 28,-1.28261 0,-5.49225 13.57201,-75.48404 15.37292,-79.27915 4.53694,-9.56092 11.90029,-12.4913 18.44726,-7.34146 4.98734,3.92304 4.68223,10.0617 -2.48029,49.90322 -3.29588,18.33334 -5.99568,34.38334 -5.99953,35.66667 -0.007,2.14837 2.21252,2.33333 27.99297,2.33333 19.36061,0 28,-0.44952 28,-1.45686 0,-0.80128 3.34588,-20.45128 7.43528,-43.66667 8.28732,-47.04681 8.71437,-55.77131 3.28885,-67.19088 -4.25285,-8.95137 -12.21278,-16.38312 -21.15504,-19.75129 -6.28965,-2.36904 -9.7102,-2.7652 -20.23576,-2.34366 -10.81256,0.43306 -13.67141,1.05704 -19.53076,4.26294 -3.77525,2.0656 -9.114,6.05974 -11.86388,8.87588 l -4.9998,5.12025 -5.76353,-6.41045 c -8.73436,-9.7147 -16.46327,-12.53644 -32.42627,-11.83848 -14.92146,0.65241 -19.82072,2.70066 -31.08556,12.9961 l -7.35533,6.72235 0.69512,-8.65961 0.69511,-8.65962 H 402.93091 376.1634 l -0.85932,6.33334 c -0.47263,3.48333 -5.30939,32.00277 -10.74836,63.37653 -5.43899,31.37377 -9.88905,58.22377 -9.88905,59.66667 0,2.52346 1.03845,2.62346 27.24348,2.62346 24.80274,0 27.30334,-0.20904 27.91166,-2.33333 z m 695.29079,60.24463 c -15.635,-2.82912 -36.2996,-11.44536 -40.9825,-17.08791 -1.0777,-1.29852 1.6549,-6.23203 11.1021,-20.04373 6.8924,-10.07668 12.8314,-18.62103 13.1978,-18.98744 0.3664,-0.36642 3.7782,1.47442 7.5816,4.09076 15.0465,10.35017 38.3103,13.35004 51.7175,6.66896 3.8057,-1.89643 8.2206,-5.27548 9.811,-7.509 2.621,-3.68087 7.0951,-18.37627 5.5948,-18.37627 -0.3435,0 -2.9133,1.83921 -5.7105,4.08713 -13.3934,10.7632 -37.6961,12.07579 -56.9263,3.07456 -8.2395,-3.85676 -18.2879,-14.22833 -21.8611,-22.56414 -7.6483,-17.84292 -6.3136,-41.45552 3.571,-63.1745 10.8871,-23.9217 29.9092,-38.83422 54.5603,-42.77284 16.2264,-2.59256 32.301,1.52379 41.7465,10.69028 l 5.3834,5.22447 0.8215,-4.94915 c 0.4518,-2.72202 1.0558,-5.69914 1.3423,-6.61581 0.3939,-1.26019 7.0044,-1.66667 27.1047,-1.66667 24.6317,0 26.5446,0.17134 26.0513,2.33334 -0.2927,1.28333 -5.0571,28.43333 -10.5875,60.33333 -11.5978,66.89757 -12.6975,71.88045 -18.8132,85.24361 -10.9528,23.9322 -28.0086,37.03742 -54.9346,42.21014 -12.1742,2.33877 -36.2482,2.23762 -49.7701,-0.20912 z m 57.8981,-104.90811 c 10.5495,-8.04652 14.869,-28.58367 7.656,-36.40093 -11.2991,-12.2457 -30.4787,-8.28564 -39.0581,8.06441 -3.9222,7.47463 -3.9962,20.37376 -0.1467,25.56433 4.3016,5.80028 8.1708,7.25816 18.0186,6.78923 7.1272,-0.33937 9.7163,-1.10808 13.5302,-4.01704 z m 287.2772,49.60536 c -8.9815,-1.38664 -18.9224,-5.49609 -23.4011,-9.67368 -6.1879,-5.77201 -8.7615,-12.78579 -8.6601,-23.60153 0.075,-7.96644 5.4437,-42.24955 9.1354,-58.33334 0.6678,-2.90905 0.3804,-3 -9.4793,-3 -7.7317,0 -10.0107,-0.41032 -9.5109,-1.71245 0.3613,-0.94185 2.0122,-9.91732 3.6686,-19.94548 l 3.0118,-18.23303 9.4738,-0.38785 9.4739,-0.38785 2.5447,-15 2.5448,-15 h 27.1218 c 31.226,0 28.429,-1.73122 25.1223,15.54937 -3.1136,16.27123 -3.9101,15.11729 10.4348,15.11729 h 12.4349 l -3.1406,18.33334 c -1.7274,10.08333 -3.4043,19.08333 -3.7264,20 -0.4102,1.1667 -4.1906,1.66666 -12.6024,1.66666 -11.3763,0 -12.0518,0.15982 -12.6788,3 -3.0195,13.6737 -6.0514,33.68552 -6.053,39.9531 0,9.47613 2.1183,11.04194 13.5522,10.00516 4.2785,-0.38796 7.7765,-0.61228 7.7733,-0.49848 -0.1013,3.70324 -7.0173,37.76333 -7.8336,38.57954 -3.1999,3.19994 -27.3549,5.39894 -39.2061,3.56923 z m 74.2605,-3.79648 c -18.5909,-11.3366 -11.3205,-37.99156 10.3624,-37.99156 7.2876,0 11.9056,2.72825 16.8739,9.96876 2.5709,3.74687 3.0273,5.84123 2.6013,11.93799 -0.62,8.87134 -3.7497,13.69174 -10.7463,16.55144 -6.7562,2.76144 -14.0916,2.58214 -19.0913,-0.46663 z M 1543,465.12867 c 3.6019,-1.88712 2.7659,-3.79534 -1.6628,-3.79534 -3.2309,0 -4.3591,-0.82985 -5.8913,-4.33333 l -1.8951,-4.33333 -0.1093,4.33333 c -0.1014,4.05208 -0.4151,4.33333 -4.8274,4.33333 h -4.7186 l 0.3853,-11.66666 0.3852,-11.66667 8.1343,0.005 c 4.9173,0.003 9.0038,0.7266 10.3333,1.82994 2.4772,2.05594 2.9567,9.54096 0.7523,11.74536 -1.0402,1.04017 -0.8368,2.6263 0.7234,5.64358 2.553,4.9369 3.9568,4.47236 6.0988,-2.01816 1.297,-3.92949 1.1859,-5.76349 -0.6382,-10.53993 -2.6656,-6.97965 -6.7847,-9.92795 -14.6983,-10.52039 -18.4643,-1.38232 -24.892,22.83507 -8.2601,31.12092 5.5445,2.7622 10.4341,2.7199 15.8878,-0.13749 z M 1536,446 c 0,-0.73333 -0.6,-1.53333 -1.3333,-1.77777 -0.7334,-0.24446 -1.3334,0.55554 -1.3334,1.77777 0,1.22223 0.6,2.02223 1.3334,1.77777 C 1535.4,447.53333 1536,446.73333 1536,446 Z m -733.32716,21 c 0.004,-1.28333 1.764,-11.93333 3.91245,-23.66667 C 808.73373,431.6 812.05723,413 813.9708,402 c 1.91359,-11 3.79343,-21.05 4.17741,-22.33333 0.62684,-2.09499 -0.46873,-2.33334 -10.72502,-2.33334 -6.28276,0 -11.42064,-0.45 -11.41752,-1 0.003,-0.55 1.50312,-9.36902 3.33333,-19.59785 1.83021,-10.22881 3.32767,-18.75455 3.32767,-18.94607 0,-0.19153 4.89922,-0.52249 10.88717,-0.73549 l 10.88717,-0.38725 2.96568,-12.10486 c 3.85726,-15.74396 8.60558,-25.56812 16.56951,-34.28194 11.592,-12.68348 26.44692,-18.224 48.95817,-18.26016 11.99236,-0.0193 25.72224,1.98478 25.74242,3.75744 0.005,0.48924 -1.94094,9.99233 -4.32556,21.11798 l -4.33567,20.22847 -8.67445,-0.71011 c -7.46367,-0.61098 -9.16863,-0.31753 -12.21492,2.10239 -3.19699,2.53963 -7.79286,12.59785 -7.79286,17.05497 0,1.34744 3.24635,1.76248 13.78579,1.76248 h 13.78577 l -3.42545,20 -3.42547,20 h -13.69365 c -7.53151,0 -13.69365,0.3563 -13.69365,0.79178 0,0.43548 -3.6,20.87786 -8,45.42754 -4.4,24.54967 -8,44.89336 -8,45.20822 0,0.31485 -12.6,0.57246 -28,0.57246 -25.78014,0 -27.99951,-0.18498 -27.99383,-2.33333 z m 98.66049,0.72097 c 0,-1.43216 9.77162,-57.6533 27.06534,-155.72097 l 5.7606,-32.66667 29.07372,-0.35976 29.0737,-0.35977 -0.79688,4.35977 c -0.43828,2.39787 -7.70304,43.65976 -16.14393,91.6931 -8.44088,48.03333 -15.69897,88.98333 -16.12908,91 l -0.78201,3.66666 h -28.56074 c -21.44668,0 -28.56072,-0.40161 -28.56072,-1.61236 z M 989.47387,449 c 2.03826,-11.18333 7.06974,-39.53333 11.18113,-63 4.1113,-23.46667 7.8109,-44.01667 8.2213,-45.66667 0.744,-2.99157 0.8244,-3 28.6016,-3 25.8471,0 27.8554,0.17158 27.8554,2.37976 0,1.30887 -2.9613,18.85887 -6.5807,39 -3.6194,20.14114 -8.4305,47.42024 -10.6914,60.62024 -2.2608,13.2 -4.4109,25.35 -4.7779,27 -0.6666,2.99643 -0.7013,3 -29.0914,3 h -28.42394 z m 251.85943,19.84857 c 0,-0.26662 1.7708,-10.31662 3.9352,-22.33333 2.1643,-12.01672 9.3418,-52.74857 15.9501,-90.51524 6.6082,-37.76667 12.4124,-70.61667 12.8982,-73 L 1275,278.66667 h 28.5254 28.5254 l -0.6764,3 c -1.5378,6.82054 -11.3744,64.8348 -11.3744,67.08377 0,2.03272 0.7223,1.76388 4.3333,-1.61283 18.2983,-17.11102 48.3682,-17.8245 63.1184,-1.49762 10.6396,11.7767 11.9462,24.16829 6.0832,57.69334 -2.1802,12.46667 -5.6398,32.41667 -7.6881,44.33334 l -3.7241,21.66666 h -28.3947 c -15.6171,0 -28.3944,-0.45 -28.3941,-1 4e-4,-0.55 2.7001,-16.3 5.9994,-35 8.5643,-48.54096 8.1538,-53.33333 -4.57,-53.33333 -6.7837,0 -12.0196,4.66505 -14.4503,12.87497 -1.2855,4.34156 -13.6463,72.74332 -13.6463,75.51496 0,0.51887 -12.9,0.9434 -28.6667,0.9434 -15.7667,0 -28.6667,-0.21814 -28.6667,-0.48476 z M 1034.6667,326.76423 c -12.639,-2.58423 -20.2065,-10.7546 -21.0744,-22.7533 -0.7056,-9.75408 1.4252,-16.24602 7.5686,-23.06028 6.429,-7.13094 13.5424,-10.22542 23.5058,-10.22542 19.0753,0 30.6758,12.9832 27.3359,30.5942 -1.6749,8.83189 -5.5722,15.20246 -12.2674,20.05241 -6.7866,4.91621 -16.8307,7.07675 -25.0685,5.39239 z"
       id="path24"
       inkscape:connector-curvature="0" />
    <path
       style="fill:#48b9ec;stroke-width:1.33333337"
       d="m 450.66667,655.9056 c -35.36663,-2.94453 -92.09602,-17.30677 -90.38586,-22.88309 0.28492,-0.92904 8.8883,-4.49083 19.11862,-7.91507 65.66976,-21.98064 140.06044,-20.87655 207.60057,3.08119 6.74685,2.39322 11.66667,4.88642 11.66667,5.91226 0,1.96971 -16.94708,7.76467 -38.06196,13.0151 -35.47766,8.82185 -73.26454,11.84293 -109.93804,8.78961 z M 116.90283,613.7024 c -1.93307,-3.16769 -3.86592,-39.29207 -3.12305,-58.36907 1.31165,-33.68356 5.9194,-58.65633 16.84211,-91.2797 7.55332,-22.55986 14.13583,-37.31151 25.28768,-56.67062 40.15414,-69.70572 104.25395,-121.20656 181.42376,-145.76448 31.92999,-10.16113 59.26844,-14.20693 96,-14.20693 29.12687,0 43.46966,1.43573 68,6.80687 32.88816,7.20116 55.55207,16.09386 91.33334,35.83673 12.46666,6.87868 26.74788,14.03687 31.73602,15.90707 36.34215,13.62573 67.39071,0.6247 74.0997,-31.0279 3.15704,-14.89472 1.08262,-32.08532 -5.73094,-47.49198 -5.77872,-13.06671 -13.90856,-23.05378 -29.0201,-35.64964 -17.6048,-14.67407 -22.91183,-20.74475 -26.53526,-30.35362 -4.06853,-10.78926 -3.17565,-27.12116 2.0617,-37.71084 6.97468,-14.10249 20.43677,-24.737385 35.27777,-27.869046 10.05393,-2.12152 21.25144,-0.131907 41.18656,7.318176 18.07095,6.7534 33.20515,10.73244 50.64345,13.31501 6.81207,1.00885 12.72463,2.17332 13.13902,2.58772 1.00116,1.00115 -19.97635,11.41562 -34.19126,16.97454 -22.0996,8.64232 -31.41432,17.53268 -34.77168,33.18751 -3.50253,16.33173 0.71628,26.09605 19.8063,45.84113 21.26828,21.99808 33.23758,40.98166 41.62624,66.02015 7.92284,23.64805 10.54582,54.08051 6.74266,78.22985 -2.1693,13.77476 -8.9892,34.52268 -16.02482,48.75179 -5.66288,11.45283 -19.74851,32.65617 -20.91738,31.48731 -0.35389,-0.3539 3.29754,-23.18566 8.11428,-50.73723 4.81676,-27.55159 8.75774,-50.7106 8.75774,-51.46449 0,-0.8952 -9.71326,-1.37071 -28,-1.37071 -15.4,0 -28,0.20584 -28,0.45741 0,4.06692 -13.9536,75.70548 -15.49714,79.56316 -1.18014,2.94947 -3.657,6.55146 -5.5041,8.00439 -4.69751,3.69507 -12.73384,3.5194 -16.3907,-0.35829 -2.47084,-2.62006 -2.7548,-4.18204 -2.24213,-12.33334 0.32287,-5.13333 3.07135,-23.13333 6.10773,-40 3.0364,-16.86666 5.52199,-31.41666 5.52354,-32.33333 0.003,-1.28033 -6.4657,-1.66667 -27.90267,-1.66667 h -27.90547 l -1.38672,7 c -0.76268,3.85 -4.10522,22.6904 -7.42785,41.86756 -7.20117,41.56276 -7.77961,54.67648 -2.87623,65.20659 6.61232,14.20007 20.59203,21.41317 39.38843,20.32324 12.34595,-0.71589 21.82531,-5.01817 31.17781,-14.15031 l 6.39784,-6.24708 -0.91032,8.95138 -0.91032,8.95138 13.82402,0.38195 13.82401,0.38196 -6.64487,4.24876 c -35.95681,22.99099 -168.19017,66.81152 -248.64486,82.39791 -6.23334,1.20757 -12.53334,2.5439 -14,2.96961 -1.8152,0.52689 -1.22514,-0.43917 1.84796,-3.02553 11.27553,-9.48962 10.54925,-25.24799 -1.50244,-32.59906 -10.17586,-6.20688 -17.78056,-4.34698 -33.01219,8.07386 -13.75784,11.21901 -31.18848,22.06349 -51.33333,31.93702 -10.26667,5.03196 -20.05218,9.54162 -21.74556,10.02146 -2.83174,0.80238 -2.70091,0.37722 1.62976,-5.29624 19.03561,-24.93802 1.06985,-62.06112 -30.03455,-62.06112 -17.93191,0 -54.56411,11.89837 -86.51632,28.10106 -33.90488,17.19287 -58.60715,35.31203 -85.56589,62.76276 -9.29458,9.4642 -17.18365,16.74156 -17.53128,16.17191 z M 299.99051,469.31555 c 5.49478,-1.56075 13.43628,-4.6743 17.64777,-6.919 7.86327,-4.19108 18.21651,-12.33248 17.02839,-13.3905 -0.36667,-0.32652 -8.71902,-6.13278 -18.56076,-12.90282 l -17.89408,-12.30915 -7.25879,3.6726 c -9.22032,4.66507 -19.60011,5.66689 -27.49092,2.65337 -6.7026,-2.55974 -9.551,-5.30402 -10.83168,-10.43572 l -0.91065,-3.649 45.71121,-0.351 45.71123,-0.351 1.21262,-4 c 0.66696,-2.2 1.24346,-10.6 1.28111,-18.66666 0.0768,-16.4515 -2.27287,-25.29812 -9.51484,-35.82396 -11.63875,-16.91634 -30.98727,-24.56804 -58.51731,-23.14168 -21.62033,1.12016 -36.81068,7.32589 -51.44745,21.01788 -10.09237,9.44092 -15.33472,17.15868 -20.36579,29.9824 -3.3177,8.45653 -3.65456,10.93118 -3.71933,27.32378 -0.0699,17.68786 0.009,18.18903 4.24027,26.78595 7.8752,16.00219 24.17894,27.92333 44.52964,32.55968 11.82653,2.69435 35.98453,1.68419 49.14936,-2.05517 z M 256,385.64284 c 0,-0.56309 1.47804,-3.19893 3.28452,-5.85743 7.58189,-11.15776 26.43503,-14.07476 34.2728,-5.30277 2.35815,2.63923 3.77601,5.72017 3.77601,8.20507 v 3.97896 H 276.66667 C 265.3,386.66667 256,386.20595 256,385.64284 Z m 160.22328,47.151 c 6.64008,-38.18163 8.58505,-45.24985 13.79943,-50.14849 4.35226,-4.08875 10.8974,-4.1133 14.18506,-0.0532 4.25794,5.2583 3.78904,9.77253 -7.48636,72.0745 -1.1281,6.23334 -2.05192,12.08334 -2.05292,13 -0.001,1.28022 6.45839,1.66667 27.85966,1.66667 h 27.86148 l 2.07566,-11.66667 c 12.51686,-70.35342 13.25067,-73.0609 20.86962,-77.00081 7.88709,-4.07857 14.67916,0.8508 14.64797,10.63083 -0.009,2.95349 -2.90224,21.71998 -6.42849,41.70332 l -6.41138,36.33333 h 28.27752 28.27752 l 1.50726,-8.33333 c 8.98142,-49.65675 13.45198,-77.70516 13.45624,-84.42467 0.0107,-17.88677 -7.11478,-30.34917 -21.57662,-37.73407 -8.06244,-4.11705 -9.79949,-4.49206 -20.80765,-4.49206 -14.4886,0 -23.18409,3.36037 -33.38401,12.9012 l -6.52523,6.10358 -3.48751,-5.26996 c -4.73009,-7.14765 -13.02982,-11.73837 -24.0417,-13.29784 -16.86835,-2.38885 -29.04038,1.54275 -41.6254,13.44514 l -6.98223,6.6035 0.61675,-5.75074 c 0.33921,-3.16291 0.804,-7.10075 1.03284,-8.75075 l 0.41609,-3 h -27.08803 -27.08801 l -0.69192,4.33333 c -1.89316,11.85655 -20.8684,122.07302 -21.46761,124.69328 l -0.69214,3.02662 28.35778,-0.35995 28.35777,-0.35995 6.23856,-35.87282 z m 690.89882,94.65423 c -16.3504,-3.11659 -33.8582,-10.00119 -41.4542,-16.30104 l -2.9907,-2.48036 12.0601,-17.33334 c 6.633,-9.53333 12.5542,-18.17217 13.1582,-19.19741 0.8905,-1.51161 1.9496,-1.22624 5.6013,1.50927 10.3033,7.71821 22.6181,11.86085 35.4079,11.91101 20.5819,0.0807 31.1735,-7.91679 34.3447,-25.93308 l 0.8878,-5.04355 -5.9839,4.56758 c -9.675,7.38514 -16.9432,9.54416 -31.4866,9.35321 -25.7942,-0.33867 -43.7052,-12.82 -50.2284,-35.00177 -4.9428,-16.8076 -1.5199,-42.89894 7.9696,-60.74946 5.1423,-9.67312 17.8917,-23.64024 25.8209,-28.28705 24.2954,-14.23805 54.3689,-13.35172 68.9752,2.03285 4.4182,4.65355 6.1293,4.33774 6.1293,-1.13124 0,-8.26729 -0.8225,-8.03036 27.8781,-8.03036 h 26.2594 l -11.0578,63 c -6.0818,34.65 -12.6395,67.96824 -14.5727,74.04054 -8.5606,26.88917 -24.2408,42.71161 -50.507,50.96501 -11.951,3.75528 -41.716,4.87213 -56.2112,2.10919 z m 54.6383,-104.2696 c 3.5771,-2.4787 6.8861,-6.45118 9.2396,-11.09247 8.6997,-17.15612 0.9027,-33.41933 -16.022,-33.41933 -8.0543,0 -13.6864,2.73382 -19.4116,9.42238 -5.7849,6.75834 -8.084,14.05499 -7.2298,22.94478 1.4745,15.34598 19.4028,21.86025 33.4238,12.14464 z m 278.6829,46.35344 c -15.3826,-5.31584 -21.777,-14.40487 -21.7761,-30.95287 3e-4,-5.59783 2.0276,-20.93919 4.6575,-35.24571 2.5613,-13.93333 4.6612,-25.48333 4.6661,-25.66666 0,-0.18334 -4.3807,-0.33334 -9.7461,-0.33334 h -9.7554 l 3.3987,-19.94784 3.3987,-19.94785 9.3566,-0.38548 9.3567,-0.38549 2.6976,-14.66667 2.6975,-14.66667 26.9692,-0.36094 c 30.9901,-0.41475 28.1992,-2.07028 24.9688,14.81157 -3.1851,16.64535 -3.89,15.54937 10.0002,15.54937 9.9396,0 12,0.35415 12,2.06259 0,2.3704 -5.1441,32.12211 -6.1476,35.55503 -0.5562,1.90322 -2.7013,2.34806 -12.8586,2.66666 L 1482.136,378 l -3.6701,20 c -4.4615,24.31271 -4.5404,26.59208 -1.0419,30.09061 2.2825,2.28258 4.1764,2.70148 11,2.43312 8.02,-0.31541 8.2319,-0.23682 7.8429,2.90939 -0.8488,6.86529 -5.7261,33.69195 -6.2921,34.60765 -2.6939,4.3587 -38.1452,5.42595 -49.5315,1.49114 z m 85.3615,-0.92148 c -12.6783,-5.55667 -15.4132,-22.2909 -5.2965,-32.40752 4.0898,-4.08998 5.6785,-4.75314 12.424,-5.18646 9.0017,-0.57824 14.67,2.17386 19.1641,9.3047 2.1979,3.48732 2.616,5.85282 2.1175,11.97788 -0.3476,4.26854 -1.5075,8.51844 -2.632,9.64285 -1.1058,1.10577 -2.214,2.47121 -2.4628,3.03431 -0.8943,2.02392 -10.6307,5.68825 -14.831,5.58172 -2.3585,-0.0599 -6.176,-0.93619 -8.4833,-1.94748 z m 16.5407,-3.2699 c 5.008,-3.05337 9.6422,-9.9612 9.6496,-14.38336 0.013,-4.97829 -3.5242,-11.92044 -7.336,-14.41813 -4.401,-2.88359 -13.411,-3.32197 -18.3847,-0.89452 -4.8369,2.3606 -8.9297,9.16899 -8.9361,14.86477 -0.013,8.75183 8.5644,17.38864 17.3284,17.45536 1.8333,0.014 5.2888,-1.16689 7.6788,-2.62412 z m -18.064,-15.67386 0.3852,-11.66667 7.386,0.13625 c 9.5596,0.17634 13.2806,2.1603 13.2806,7.08074 0,2.0844 -0.9024,4.53869 -2.0052,5.45398 -1.7674,1.46687 -1.6754,2.19752 0.7755,6.16326 l 2.7805,4.4991 h -4.6136 c -3.8648,0 -4.8814,-0.64646 -6.2634,-3.98305 -1.8724,-4.52025 -4.0071,-4.1322 -4.0071,0.72841 0,2.73664 -0.6449,3.25464 -4.0519,3.25464 h -4.052 z m 12.44,-3.08871 c 1.2272,-1.98553 -0.1956,-3.06505 -2.7486,-2.08543 -1.178,0.45208 -1.7685,1.4262 -1.3121,2.16472 1.0808,1.74872 2.9535,1.71215 4.0607,-0.0793 z M 802.66667,468.2984 c 0,-1.87463 13.28086,-76.93721 15.44576,-87.2984 l 0.76612,-3.66667 h -11.54522 -11.54521 l 0.79788,-3.66666 c 0.99832,-4.58784 6.05984,-33.997 6.07183,-35.27942 0.005,-0.52033 4.9015,-1.12033 10.88144,-1.33333 l 10.87261,-0.38725 3.17057,-12 c 7.98311,-30.21447 21.20083,-44.79751 45.87498,-50.61363 13.43952,-3.16792 42.13209,-2.055 44.38381,1.72153 0.29253,0.49066 -1.38083,9.8921 -3.71859,20.8921 l -4.25049,20 -8.31243,-0.4585 c -6.12338,-0.33774 -9.20836,0.12854 -11.71448,1.77062 -3.6995,2.424 -8.4358,11.55558 -8.48264,16.35454 -0.0285,2.91838 0.34348,3 13.67182,3 h 13.70109 l -3.34065,20 -3.34066,20 h -13.59924 -13.59924 l -1.41553,7 C 872.30176,389.96316 862.20687,446.58559 859.05861,465 l -0.74085,4.33333 h -27.82555 c -15.30405,0 -27.82554,-0.46572 -27.82554,-1.03493 z M 901.72947,465 c 1.4296,-8.31489 19.73725,-112.59897 25.68962,-146.33333 3.29959,-18.7 6.29156,-35.35 6.64882,-37 0.64918,-2.99827 0.6662,-3 29.39677,-3 h 28.7472 l -0.75736,3.66666 c -0.87499,4.23615 -9.23281,51.67134 -21.55447,122.33334 -4.73136,27.13333 -9.27249,52.78333 -10.09141,57 l -1.48892,7.66666 h -28.66765 -28.66764 z m 84.9372,2.87113 c 0,-1.33537 20.42193,-118.3704 22.13823,-126.87113 l 0.7403,-3.66667 h 27.8941 c 15.3417,0 27.894,0.52292 27.894,1.16204 0,0.63912 -5.1,30.04606 -11.3333,65.34876 -6.2333,35.3027 -11.3333,64.47978 -11.3333,64.83796 0,0.35819 -12.6,0.65124 -28,0.65124 -19.42299,0 -28.00003,-0.4479 -28.00003,-1.4622 z m 255.29493,-1.5378 c 0.6547,-2.89202 3.5171,-19.12444 23.3959,-132.67601 5.0398,-28.78848 9.5316,-52.93848 9.9816,-53.66667 0.4985,-0.80656 11.4697,-1.32398 28.0729,-1.32398 26.2086,0 27.2547,0.10061 27.2547,2.62132 0,2.60014 -10.0964,61.64854 -11.6348,68.04534 -0.7476,3.10887 -0.4164,2.98659 4.9187,-1.81572 3.1462,-2.83198 9.5661,-6.94865 14.2662,-9.14814 16.3648,-7.65802 36.8408,-4.77218 48.44,6.82705 12.3704,12.37031 12.7139,24.78616 2.3095,83.47015 l -7.0919,40 -28.2705,0.35985 c -15.5488,0.19792 -28.2706,0.118 -28.2706,-0.17773 0,-0.29567 3,-17.53732 6.6667,-38.31479 3.6667,-20.77747 6.6667,-39.11404 6.6667,-40.74792 0,-1.63389 -1.4223,-4.62417 -3.1606,-6.64507 -6.1912,-7.19776 -17.6297,-3.77525 -22.1854,6.63811 -1.3365,3.05481 -5.2965,22.20421 -8.8001,42.55421 l -6.3702,37 h -28.4339 -28.434 z M 1029.5269,325.24007 c -17.4153,-6.97524 -21.6768,-28.57208 -8.6426,-43.79963 12.2148,-14.27021 36.048,-14.52868 46.743,-0.50692 6.668,8.74231 5.4436,25.59357 -2.603,35.8232 -4.4413,5.64613 -14.9911,9.89611 -24.3576,9.8124 -4.4,-0.0393 -9.4129,-0.63739 -11.1398,-1.32905 z"
       id="path22"
       inkscape:connector-curvature="0" />
    <path
       style="fill:#20b5e9;stroke-width:1.33333337"
       d="m 454,655.96936 c -7.33333,-0.53271 -19.63333,-1.97389 -27.33333,-3.20265 -28.0655,-4.47868 -66,-15.64831 -66,-19.43338 0,-3.99904 42.90184,-16.40584 72,-20.8217 24.18618,-3.67043 71.30898,-3.36554 94.66666,0.61252 C 556.52889,618.09645 598,630.34756 598,634 c 0,1.88111 -21.2842,9.1356 -38.66667,13.17912 C 521.60651,655.95517 490.05368,658.58831 454,655.96936 Z M 116.72315,611.58303 c -2.13346,-10.05154 -3.67839,-39.69715 -2.92455,-56.11898 2.57948,-56.19228 18.20181,-108.4246 46.39796,-155.12881 17.14868,-28.40513 46.08,-61.49012 71.80344,-82.11221 25.38609,-20.35166 61.70225,-40.88418 92.05577,-52.04671 79.40306,-29.20053 172.51403,-24.49139 246.6109,12.47252 8.43333,4.20704 18.5855,9.5768 22.56038,11.93277 11.2993,6.69731 26.6219,14.08916 36.10628,17.41824 6.57024,2.30619 11.73067,3.06255 21.33334,3.12683 14.33368,0.096 20.2812,-1.47413 30,-7.91968 25.11062,-16.65347 25.97641,-61.19193 1.8181,-93.52939 -2.8717,-3.84398 -11.75894,-12.40006 -19.7494,-19.01352 -22.86108,-18.9214 -28.99948,-29.62512 -27.79076,-48.45958 1.46535,-22.83321 18.38188,-42.249169 40.3484,-46.309899 10.07627,-1.862702 20.26346,0.09144 42.34382,8.122529 17.22225,6.2641 45.07708,13.18838 53.945,13.40991 9.5363,0.23822 9.15718,1.89244 -1.72308,7.51846 -5.78898,2.99339 -16.9827,7.95356 -24.87494,11.02261 -8.39892,3.26608 -17.05136,7.71576 -20.86482,10.73015 -12.22948,9.66684 -17.50152,27.27706 -12.90232,43.09774 1.9427,6.68267 4.03196,9.51535 17.23772,23.37152 26.90725,28.23246 39.05672,49.09134 47.08172,80.83247 4.5284,17.91111 5.75388,48.95437 2.63872,66.84292 -4.70167,26.99896 -17.93848,56.60111 -34.20322,76.49041 l -2.72588,3.33334 0.80415,-5.33334 C 742.49217,432.4 743.99847,423.7 745.39723,416 c 1.39876,-7.7 3.12613,-17.6 3.8386,-22 0.71246,-4.4 3.11882,-18.2 5.34746,-30.66667 2.22863,-12.46666 4.05911,-23.71666 4.06772,-25 0.0144,-2.14857 -2.1994,-2.33333 -27.95894,-2.33333 -27.91568,0 -27.97606,0.007 -28.67024,3 -0.65866,2.84053 -4.20724,22.74691 -10.16103,57 -1.46585,8.43333 -3.89565,17.89971 -5.39955,21.03637 -4.40378,9.18499 -13.44345,12.24563 -20.28144,6.86686 -4.67729,-3.67916 -4.60556,-8.47066 0.56287,-37.59858 2.2418,-12.63422 4.93075,-27.77132 5.97543,-33.63798 3.06262,-17.19888 6.14206,-15.43978 -26.30506,-15.02652 L 618.15944,338 l -4.31859,25.33333 c -2.37521,13.93334 -5.27178,30.44678 -6.43682,36.69654 -5.6643,30.38577 -5.18578,45.59726 1.75972,55.93886 7.72044,11.49546 19.43401,16.56464 36.58241,15.8315 13.05175,-0.55802 22.86087,-4.7405 32.03975,-13.66135 l 5.87237,-5.70729 -0.67445,8.40225 -0.67446,8.40227 13.75419,0.38194 13.7542,0.38195 -7.90888,4.84273 c -18.16152,11.12058 -39.11199,19.9426 -86.84121,36.56791 -51.56983,17.96308 -105.97287,33.48833 -151.1075,43.12223 -20.79468,4.43858 -24.84961,4.95892 -20.9508,2.68841 4.49959,-2.62035 8.00894,-11.75929 7.30975,-19.03584 -0.54605,-5.68296 -1.44,-7.42236 -6.00133,-11.67712 -10.11008,-9.43057 -19.33308,-8.44729 -34.31779,3.65869 -15.28571,12.34916 -36.222,25.58068 -54.66667,34.54875 -9.53333,4.63525 -18.83333,8.84171 -20.66666,9.34767 l -3.33334,0.91993 3.59519,-3.82501 c 13.28897,-14.13854 12.68269,-38.33468 -1.32765,-52.98439 -11.76964,-12.30676 -25.30639,-14.28704 -51.49855,-7.53368 -54.36852,14.01833 -103.54124,42.64723 -145.76457,84.86571 -16.3534,16.3515 -19.0817,18.58774 -19.6146,16.07704 z M 301.329,469.32851 c 5.49761,-1.56944 12.72685,-4.34003 16.06496,-6.15687 6.73239,-3.66423 18.31473,-13.20048 17.27271,-14.22139 C 332.453,446.78147 298.57873,424 297.56759,424 c -0.67744,0 -3.955,1.52208 -7.28347,3.3824 -14.79928,8.27147 -36.95079,3.49313 -36.95079,-7.97072 v -3.37621 l 45,-0.35107 45,-0.35107 1.5381,-7.33333 c 4.72224,-22.51463 -0.68559,-43.98808 -14.57599,-57.87847 -12.13531,-12.1353 -25.15641,-16.91225 -46.29544,-16.984 -21.14588,-0.0717 -37.5432,5.09171 -52.78203,16.62096 -9.9327,7.51479 -16.67914,15.96412 -22.54965,28.24151 -5.82096,12.17373 -7.77349,22.85047 -7.11803,38.92235 0.45394,11.13009 1.13907,14.36889 4.60062,21.74813 6.8845,14.67623 19.36162,25.07851 36.56836,30.48733 12.44989,3.91354 13.60334,4.04019 31.9474,3.50787 11.81982,-0.343 19.5735,-1.31348 26.66233,-3.33717 z M 256,385.33717 c 0,-2.9521 9.87319,-11.98945 15.40728,-14.10294 10.37701,-3.96302 22.26145,-0.2996 25.12857,7.74596 2.57928,7.23784 1.38308,7.68648 -20.49401,7.68648 -12.43373,0 -20.04184,-0.5047 -20.04184,-1.3295 z m 153.82256,82.94994 c 0.35563,-0.57542 3.41149,-16.92542 6.79081,-36.33334 6.91098,-39.69069 7.61338,-42.43406 12.2864,-47.98764 2.63883,-3.13606 4.41286,-3.96613 8.47648,-3.96613 6.39687,0 9.29042,3.58833 9.29042,11.52116 0,5.46968 -11.59934,74.75185 -12.85532,76.78408 -0.34947,0.56545 12.28858,1.02809 28.08456,1.02809 28.697,0 28.72049,-0.003 29.38744,-3 0.36712,-1.65 3.09069,-17.1 6.0524,-34.33333 2.96169,-17.23333 6.26006,-34.38203 7.32972,-38.10821 C 507.38815,384.40711 511.78579,380 518.5274,380 c 6.25508,0 9.4726,3.46047 9.4726,10.18783 0,3.97014 -11.29995,71.65604 -12.82355,76.81217 -0.64164,2.17141 1.3061,2.33333 28.06703,2.33333 15.81609,0 28.75652,-0.18701 28.75652,-0.41558 0,-0.22856 2.44544,-14.17856 5.43432,-31 9.07009,-51.04652 9.49445,-54.14416 8.94144,-65.2676 -0.62677,-12.60695 -5.00137,-22.12464 -13.52089,-29.41704 -13.91279,-11.90883 -38.5726,-12.65928 -55.36827,-1.68499 -4.52009,2.95343 -9.23664,6.71984 -10.4812,8.36981 l -2.26287,2.99994 -3.64838,-5.03646 c -10.28434,-14.19712 -34.80552,-18.39084 -53.79184,-9.19973 -3.0286,1.46612 -8.4044,5.44232 -11.94623,8.83599 l -6.43969,6.1703 0.85469,-8.17732 0.85471,-8.17732 h -27.2875 c -30.84149,0 -27.628,-1.24929 -29.15222,11.33334 -0.35534,2.93333 -1.89256,12.38333 -3.41607,21 -5.05456,28.58773 -11.26557,64.20913 -16.73875,96 L 353.4,469.33333 h 27.88797 c 15.33839,0 28.17895,-0.4708 28.53459,-1.04622 z m 704.84414,60.24681 c -22.3113,-4.10789 -34.3741,-8.16803 -45.5228,-15.32216 l -6.4688,-4.15099 11.5336,-16.86372 c 16.2627,-23.77829 14.2405,-22.18762 21.3283,-16.77744 11.6973,8.92879 35.8421,13.26116 48.8302,8.76175 10.1409,-3.51304 16.9758,-12.15292 18.9392,-23.94061 l 0.9593,-5.75927 -6.0651,4.62961 c -9.0298,6.89258 -18.0876,9.58775 -31.5339,9.38302 -24.5925,-0.37444 -41.3857,-11.37331 -48.8774,-32.01267 -2.4747,-6.81771 -3.1226,-11.30631 -3.1226,-21.63227 0,-24.17145 7.6793,-43.79812 23.3295,-59.62498 15.1487,-15.31962 30.8424,-21.44155 51.9499,-20.26506 12.6996,0.70786 22.3008,4.41732 28.8065,11.1295 5.3662,5.53658 6.5751,5.70354 6.5989,0.91137 0.011,-2.01667 0.38,-5.01667 0.8222,-6.66667 0.7987,-2.98028 0.9739,-3 26.6485,-3 20.171,0 25.8445,0.37636 25.8445,1.71447 0,1.87245 -13.8146,81.11517 -19.3017,110.71777 -5.714,30.82662 -12.7979,46.64134 -26.4868,59.132 -14.8481,13.54838 -30.8297,19.04007 -57.5449,19.77394 -9.5333,0.26188 -18.8333,0.19997 -20.6666,-0.13759 z m 42.3579,-102.59756 c 6.8812,-2.87515 10.812,-6.84147 14.4722,-14.60303 6.1078,-12.95189 3.0794,-26.61214 -6.8165,-30.7469 -16.776,-7.00947 -34.5232,4.87298 -36.2842,24.29385 -0.9977,11.00349 1.7349,17.06911 9.2204,20.46649 6.9429,3.15114 12.8481,3.33054 19.4081,0.58959 z m 285.0809,43.86397 c -8.5595,-2.62728 -14.8519,-6.99746 -19.2099,-13.34177 -5.5723,-8.11181 -5.5017,-19.48964 0.3175,-51.25859 2.6328,-14.37336 4.7869,-26.52336 4.7869,-27 0,-0.47665 -4.2,-0.86664 -9.3333,-0.86664 -11.0714,0 -10.5811,1.79618 -6.1872,-22.66666 L 1415.4731,338 l 9.3856,-0.38748 9.3856,-0.38749 2.576,-14.94584 2.576,-14.94586 26.9685,-0.36094 c 14.8327,-0.19851 26.9677,0.10146 26.9667,0.66666 -10e-4,0.56519 -0.9002,6.12762 -1.9982,12.36095 -3.2706,18.56745 -3.9826,17.33333 10,17.33333 6.6,0 11.9982,0.45 11.9958,1 0,1.40059 -3.7902,23.56668 -5.463,32 l -1.3885,7 -12.2388,0.001 -12.2388,10e-4 -3.7032,20.99878 c -4.2741,24.23607 -4.3356,25.39818 -1.5545,29.36879 1.7797,2.54088 3.3004,2.96335 10.6666,2.96335 10.2124,0 9.8442,-1.45954 5.5278,21.91314 l -2.9388,15.91316 -6.6656,1.72779 c -9.0843,2.35473 -32.9795,2.11105 -41.2268,-0.42043 z m 83.2076,-2.13366 c -14.0208,-7.10674 -14.7452,-24.98676 -1.3772,-33.99547 13.1157,-8.83867 31.7876,2.02448 30.3581,17.66213 -0.6764,7.39956 -1.2769,9.07182 -3.9829,11.09123 -1.2956,0.96684 -2.0011,2.33171 -1.5676,3.03304 0.4334,0.70132 0.2934,1.1676 -0.3111,1.03617 -0.6045,-0.13146 -3.3297,0.75371 -6.0563,1.96698 -6.6094,2.94117 -10.0056,2.78312 -17.063,-0.79408 z m 15.1361,-0.91735 c 4.8144,-1.83041 10.0971,-8.085 11.0303,-13.05967 1.1712,-6.24249 -0.3663,-10.84306 -5.2582,-15.73493 -3.9486,-3.94868 -4.9081,-4.26636 -12.1226,-4.01352 -7.1578,0.25084 -8.2204,0.69555 -12.3,5.14709 -3.5332,3.85543 -4.4654,6.00376 -4.4654,10.29167 0,13.13907 11.505,21.78387 23.1159,17.36936 z M 1525.3333,450 v -11.33333 h 7.7934 c 5.8568,0 8.3417,0.6059 10,2.43832 2.7566,3.04604 2.8393,7.37677 0.1829,9.58138 -1.7953,1.49003 -1.7252,2.18555 0.6217,6.16327 l 2.6454,4.48369 h -4.4599 c -3.6984,0 -4.7428,-0.683 -6.1168,-4 -0.9113,-2.2 -2.184,-4 -2.8284,-4 -0.6444,0 -1.1716,1.8 -1.1716,4 0,3.37778 -0.5185,4 -3.3333,4 -3.2942,0 -3.3334,-0.13333 -3.3334,-11.33333 z m 12,-4 c 0,-1.11111 -1.1852,-2 -2.6666,-2 -1.4815,0 -2.6667,0.88889 -2.6667,2 0,1.11111 1.1852,2 2.6667,2 1.4814,0 2.6666,-0.88889 2.6666,-2 z m -734.66663,22.18199 c 0,-0.63324 0.61886,-4.38324 1.37526,-8.33334 0.7564,-3.95009 4.03358,-22.18198 7.28262,-40.51532 C 814.57359,401 817.62972,384.05 818.11595,381.66667 L 819,377.33333 h -11.32785 -11.32787 l 0.98193,-5.66666 c 0.54006,-3.11667 2.09343,-12.11667 3.45192,-20 l 2.47,-14.33334 h 10.76842 10.76841 l 2.98288,-12.23077 c 7.99452,-32.78011 23.98253,-48.39271 53.35268,-52.09989 11.20499,-1.41434 32.28612,-0.0961 36.0934,2.25686 1.09559,0.67711 -0.33933,9.22471 -4.60092,27.40714 -1.11721,4.76666 -2.28468,9.86666 -2.59437,11.33333 -0.50663,2.39933 -1.44784,2.62141 -9.3887,2.21523 -7.11032,-0.3637 -9.36148,0.0251 -11.58276,2 -3.34162,2.97113 -7.64432,11.99588 -7.68456,16.1181 -0.0284,2.91307 0.35711,3 13.30406,3 9.08413,0 13.33333,0.48395 13.33333,1.51855 0,2.16415 -5.29972,33.34859 -6.14328,36.14812 -0.60808,2.01803 -2.48925,2.33333 -13.92117,2.33333 -12.61627,0 -13.24919,0.13659 -13.90143,3 -0.85872,3.7699 -13.66149,75.67311 -14.83797,83.33334 l -0.87031,5.66666 h -27.82959 c -15.30626,0 -27.82958,-0.5181 -27.82958,-1.15134 z m 98.66666,0.456 c 0,-0.38244 1.8432,-11.03244 4.09599,-23.66667 2.2528,-12.63423 4.6628,-26.27132 5.35555,-30.30465 9.93053,-57.81724 23.52534,-133.42132 24.09341,-133.9894 0.40229,-0.4023 13.29103,-0.56926 28.64163,-0.37102 l 27.91018,0.36042 L 983.11863,328 c -4.57131,26.03333 -9.52596,54.23333 -11.01034,62.66667 -8.6921,49.38321 -13.43333,76.78734 -13.43721,77.66666 -0.002,0.55 -12.90441,1 -28.67108,1 -15.76667,0 -28.66667,-0.3129 -28.66667,-0.69534 z m 85.34899,-0.30466 c 0.0145,-0.9303 3.83044,-22.77798 10.65413,-61 5.96055,-33.38725 11.98125,-68.03828 11.98895,-69 0,-0.55 12.6556,-1 28.1139,-1 h 28.1059 L 1064.7967,341 c -0.4117,2.01667 -4.0901,22.86667 -8.1742,46.33333 -4.0842,23.46667 -8.2933,47.46667 -9.3538,53.33334 -1.0604,5.86666 -2.6176,14.71666 -3.4604,19.66666 l -1.5324,9 h -27.8046 c -15.29257,0 -27.79759,-0.45 -27.78898,-1 z m 255.44228,-1.30716 c 0.4536,-1.92718 11.7104,-65.93029 19.8789,-113.02617 1.0175,-5.86667 4.281,-24.46667 7.2522,-41.33333 2.9712,-16.86667 5.4041,-31.11667 5.4066,-31.66667 0,-0.55 12.6044,-1 28.0044,-1 15.4,0 28,0.45651 28,1.01445 0,0.55795 -2.7,16.50206 -6,35.43136 -3.3,18.9293 -6,34.71955 -6,35.08944 0,0.36991 2.3906,-1.37376 5.3125,-3.87481 2.9219,-2.50104 8.4719,-6.2978 12.3333,-8.43723 6.5064,-3.60488 8.0466,-3.88988 21.0208,-3.88988 13.0371,0 14.5044,0.27514 21.3334,4 9.7761,5.3324 15.1757,13.40948 17.442,26.09055 1.6545,9.25837 1.498,10.68285 -5.9768,54.37512 -4.2218,24.67721 -7.969,45.91767 -8.3271,47.201 -0.5936,2.12725 -3.1184,2.33333 -28.5867,2.33333 h -27.9356 l 0.6678,-3 c 1.6855,-7.57202 12.7164,-73.04001 12.7164,-75.47148 0,-11.78204 -14.0584,-16.0568 -21.9525,-6.67516 -4.4407,5.27743 -6.0576,11.63971 -12.9985,51.14664 l -5.8562,33.33334 -28.1451,0.3595 c -26.3459,0.33652 -28.1096,0.20868 -27.5898,-2 z M 1030.3885,325.34879 c -9.8351,-2.96474 -17.0662,-13.19176 -17.0421,-24.10308 0.015,-6.7777 4.7293,-17.80252 9.4771,-22.16295 5.1672,-4.74553 14.6087,-8.35507 21.9374,-8.38681 9.5649,-0.0415 20.2514,5.53514 24.2172,12.63738 7.5623,13.54318 1.1366,32.71663 -13.3906,39.95586 -7.0528,3.51453 -17.5313,4.37098 -25.199,2.0596 z"
       id="path20"
       inkscape:connector-curvature="0" />
    <path
       style="fill:#005bfe;stroke-width:1.33333337"
       d="m 145.33333,584.82992 c 0,-0.27687 1.05,-1.32687 2.33334,-2.33333 2.11474,-1.6585 2.1619,-1.61134 0.50341,0.50341 -1.74183,2.221 -2.83675,2.92731 -2.83675,1.82992 z M 156,575.49659 c 0,-0.27687 1.05,-1.32687 2.33333,-2.33334 2.11475,-1.65849 2.16191,-1.61133 0.50342,0.50342 -1.74183,2.221 -2.83675,2.9273 -2.83675,1.82992 z M 271.75,473.75585 c 0.96249,-0.38516 2.11249,-0.3378 2.55556,0.1052 0.44305,0.44306 -0.34445,0.75819 -1.75,0.7003 -1.55327,-0.064 -1.8692,-0.37992 -0.80556,-0.80555 z m 1255.3773,-5.44293 c -0.8466,-0.53877 2.2551,-0.97959 6.8926,-0.97959 7.1548,0 8.9718,-0.5049 11.9961,-3.33333 1.9603,-1.83333 4.3597,-5.13333 5.332,-7.33333 1.2355,-2.79542 1.8005,-3.25892 1.8765,-1.53916 0.1526,3.45094 -4.7133,9.87301 -9.2634,12.22594 -3.9988,2.06787 -14.1802,2.64816 -16.8338,0.95947 z m -6.4533,-4.30475 c -1.3313,-1.47116 -1.8011,-2.67484 -1.0439,-2.67484 1.6776,0 5.0032,3.81115 4.1072,4.70707 -0.3533,0.35344 -1.7318,-0.56107 -3.0633,-2.03223 z m 31.624,-15.43448 c -0.3344,-4.04104 -2.2876,-8.04982 -6.1264,-12.57369 -2.1991,-2.5914 -1.8632,-2.45988 1.5084,0.59087 4.3328,3.92048 7.8389,12.4235 5.9157,14.34669 -0.5597,0.55981 -1.1437,-0.50393 -1.2977,-2.36387 z m -33.6313,-9.53712 c 0,-1.67766 3.8112,-5.0032 4.707,-4.10729 0.3535,0.35344 -0.561,1.73193 -2.0322,3.06332 -1.4711,1.33139 -2.6748,1.80117 -2.6748,1.04397 z M 258.66667,380.82992 c 0,-0.27687 1.05,-1.32687 2.33333,-2.33333 2.11475,-1.6585 2.16191,-1.61134 0.50341,0.50341 -1.74182,2.221 -2.83674,2.92731 -2.83674,1.82992 z m 837.33333,-24 c 0,-0.27687 1.05,-1.32687 2.3333,-2.33333 2.1148,-1.6585 2.1619,-1.61134 0.5034,0.50341 -1.7418,2.221 -2.8367,2.92731 -2.8367,1.82992 z M 649.33333,110.16326 c 0,-0.27687 1.05,-1.32687 2.33334,-2.33333 2.11474,-1.6585 2.1619,-1.61134 0.50341,0.5034 -1.74183,2.221 -2.83675,2.92731 -2.83675,1.82993 z"
       id="path18"
       inkscape:connector-curvature="0" />
    <path
       style="fill:#000000;stroke-width:1.33333337"
       d="m 1527.1273,468.31292 c -0.8466,-0.53877 2.2551,-0.97959 6.8926,-0.97959 7.1548,0 8.9718,-0.5049 11.9961,-3.33333 1.9603,-1.83333 4.3597,-5.13333 5.332,-7.33333 1.1793,-2.66842 1.804,-3.20527 1.8765,-1.61268 0.1486,3.26046 -5.1074,10.13222 -9.4916,12.4093 -3.8084,1.97802 -14.012,2.50008 -16.6056,0.84963 z m -7.1005,-4.94736 c -1.0517,-1.26719 -1.1529,-2.03223 -0.2688,-2.03223 1.6115,0 3.4901,2.5296 2.5655,3.45427 -0.3356,0.3356 -1.3691,-0.30432 -2.2967,-1.42204 z m 31.3523,-19.03223 c -0.5006,-2.01666 -1.9156,-4.89557 -3.1446,-6.39756 -1.229,-1.502 -0.5845,-1.04253 1.4322,1.02103 2.0166,2.06357 3.6666,4.94247 3.6666,6.39757 0,3.74315 -0.8868,3.27982 -1.9542,-1.02104 z m -31.9008,-6.23024 c 0.4004,-1.0433 1.6978,-2.26912 2.8834,-2.72405 1.7708,-0.67952 1.7155,-0.341 -0.3098,1.89692 -2.9043,3.20917 -3.5698,3.42307 -2.5736,0.82713 z"
       id="path16"
       inkscape:connector-curvature="0" />
  </g>
</svg>
