<?xml version="1.0" encoding="utf-8"?>
<!-- Generator: Adobe Illustrator 21.1.0, SVG Export Plug-In . SVG Version: 6.00 Build 0)  -->
<svg version="1.1"
	 id="svg4057" inkscape:version="0.91 r13725" sodipodi:docname="light-wide-1.svg" xmlns:cc="http://creativecommons.org/ns#" xmlns:dc="http://purl.org/dc/elements/1.1/" xmlns:inkscape="http://www.inkscape.org/namespaces/inkscape" xmlns:rdf="http://www.w3.org/1999/02/22-rdf-syntax-ns#" xmlns:sodipodi="http://sodipodi.sourceforge.net/DTD/sodipodi-0.dtd" xmlns:svg="http://www.w3.org/2000/svg"
	 xmlns="http://www.w3.org/2000/svg" xmlns:xlink="http://www.w3.org/1999/xlink" x="0px" y="0px" viewBox="0 0 239.9 62.3"
	 style="enable-background:new 0 0 239.9 62.3;" xml:space="preserve">
<style type="text/css">
	.st0{fill-rule:evenodd;clip-rule:evenodd;fill:#333333;}
	.st1{fill-rule:evenodd;clip-rule:evenodd;fill:#FFFFFF;}
	.st2{fill:#FFFFFF;}
	.st3{fill:#333333;}
</style>
<sodipodi:namedview  bordercolor="#666666" borderlayer="false" borderopacity="1.0" fit-margin-bottom="0" fit-margin-left="0" fit-margin-right="0" fit-margin-top="0" id="base" inkscape:current-layer="layer1" inkscape:cx="271.31351" inkscape:cy="-40.407035" inkscape:document-units="px" inkscape:pageopacity="0.0" inkscape:pageshadow="2" inkscape:showpageshadow="false" inkscape:window-height="666" inkscape:window-maximized="0" inkscape:window-width="1011" inkscape:window-x="2360" inkscape:window-y="241" inkscape:zoom="1.4" pagecolor="#ffffff" showborder="true" showgrid="true" showguides="false">
	<inkscape:grid  id="grid4093" originx="-10.04131" originy="-961.96023" type="xygrid"></inkscape:grid>
</sodipodi:namedview>
<g>
	<g>
		<g>
			<g>
				<path class="st0" d="M111.7,12C112,24.5,86.9,28.3,74,26c0,0.3-0.1,0.7-0.1,1c10,2.4,27.9-0.4,34.8-5.8c-2,11-23.9,10.8-35,7.2
					c-0.1,0.4-0.2,0.7-0.3,1.1c9.3,3.4,23.8,3.3,31.3-0.5c-4.2,9.9-22.5,6.4-31.8,1.9c-0.1,0.3-0.2,0.6-0.4,0.9
					c8.5,4.4,19.9,6.2,27.9,3.8c-5.6,8.5-21.2,3-28.6-2.3c-0.1,0.2-0.3,0.5-0.4,0.7c6.1,5,14,8,21,7.4c-6.6,5.9-17-0.3-22.1-5.8
					c-0.2,0.3-0.4,0.5-0.6,0.7c4.7,5.4,11.3,9.2,17.8,9.6c-7.3,4.5-15.7-2.6-19.1-8.3c-0.3,0.3-0.6,0.5-1,0.8
					c3.2,4.9,7.7,8.8,12.8,10.4c-6.8,2.1-12.2-3.5-14.8-9.1c-1.8,1.1-4,1.9-6.6,2.4v-4.3c7.5-1.5,11.8-8.2,13.2-15.6
					C83.3,24.2,104.4,20.7,111.7,12z"/>
			</g>
			<g>
				<path class="st0" d="M5.7,12C5.4,24.5,30.5,28.3,43.4,26c0,0.3,0.1,0.7,0.1,1c-10,2.4-27.9-0.4-34.8-5.8c2,11,23.9,10.8,35,7.2
					c0.1,0.4,0.2,0.7,0.3,1.1c-9.3,3.4-23.8,3.3-31.3-0.5c4.2,9.9,22.5,6.4,31.8,1.9c0.1,0.3,0.2,0.6,0.4,0.9
					C36.4,36.2,25,38,17.1,35.6c5.6,8.5,21.2,3,28.6-2.3c0.1,0.2,0.3,0.5,0.4,0.7c-6.1,5-14,8-21.1,7.4c6.6,5.9,17-0.3,22.1-5.8
					c0.2,0.3,0.4,0.5,0.6,0.7c-4.7,5.4-11.3,9.2-17.8,9.6c7.3,4.5,15.7-2.6,19.1-8.3c0.3,0.3,0.6,0.5,1,0.8
					c-3.2,4.9-7.7,8.8-12.8,10.4c6.8,2.1,12.2-3.5,14.8-9.1c1.8,1.1,4,1.9,6.6,2.4v-4.3c-7.5-1.5-11.8-8.2-13.2-15.6
					C34.1,24.2,13,20.7,5.7,12z"/>
			</g>
		</g>
		<g>
			<path class="st1" d="M58.7,44.3c8.9,0,16.2-6.9,16.2-15.4c0-8.5-7.3-15.4-16.2-15.4c-8.9,0-16.2,6.9-16.2,15.4
				C42.5,37.4,49.8,44.3,58.7,44.3z"/>
		</g>
		<g>
			<path class="st0" d="M58.7,43.4c8.4,0,15.2-6.5,15.2-14.5c0-8-6.8-14.5-15.2-14.5c-8.4,0-15.2,6.5-15.2,14.5
				C43.5,36.9,50.3,43.4,58.7,43.4z"/>
		</g>
		<g>
			<path class="st1" d="M58.7,40.3c6.6,0,12-5.1,12-11.4c0-6.3-5.4-11.4-12-11.4c-6.6,0-12,5.1-12,11.4
				C46.7,35.2,52.1,40.3,58.7,40.3z"/>
		</g>
		<g>
			<path class="st0" d="M58.7,39.2c6,0,10.8-4.6,10.8-10.3c0-5.7-4.9-10.3-10.8-10.3c-6,0-10.8,4.6-10.8,10.3
				C47.9,34.6,52.7,39.2,58.7,39.2z"/>
		</g>
		<g>
			<path class="st2" d="M64.5,29.5l-13.6-4.9c-0.1-0.1-0.1-0.2,0-0.3c0.1,0,2.2-1,2.2-1c0.2-0.1,0.5-0.1,0.7-0.1
				c0.2,0,0.4,0,0.5,0.1c0,0,13.8,5,13.9,5.1c0.3,0.1,0.2,0.4,0,0.5c-0.2,0.1-1.9,0.9-1.9,0.9C65.9,29.8,65.4,29.8,64.5,29.5z
				 M66.7,30.2c-0.6,0.3-0.7,0.4-1,1.2c0,0-1.1,2.9-1.3,3.7c-0.1,0.1,0,0.3,0.2,0.2l2.2-1c0.3-0.2,0.7-0.6,0.9-0.9l1.4-3.9
				c0-0.1,0-0.3-0.2-0.2L66.7,30.2z M63.7,35.7c0,0.1,0,0.3,0,0.5c0,1.1,0.8,2.4,0.8,3c0,0.7-0.6,1.2-1.2,1.2
				c-0.7,0-1.2-0.6-1.2-1.2c0-0.6,0.8-1.9,0.8-3c0-0.2,0-0.2,0-0.3c0-0.5-0.3-0.8-0.6-0.8l-13.6-4.9c-0.2-0.1-0.4-0.4-0.3-0.6
				l1.5-4.1c0.1-0.2,0.3-0.3,0.5-0.3c0.1,0,0.1,0,0.2,0l14.3,5.2c0.2,0.1,0.4,0.4,0.3,0.6l-1.3,3.7C63.7,35,63.7,35.5,63.7,35.7z
				 M53.2,29.9l-3-1.1c-0.2-0.1-0.3,0-0.4,0.2c-0.1,0.2,0,0.3,0.2,0.4l3,1.1c0,0,0.1,0,0.1,0c0.1,0,0.2-0.1,0.3-0.2
				C53.4,30.1,53.3,30,53.2,29.9z"/>
		</g>
	</g>
	<g>
		<g>
			<path class="st3" d="M122.8,32.7V13.9c0-0.2,0-0.4,0.1-0.5c0.1-0.1,0.2-0.1,0.5-0.1h5.4c1,0,2,0.3,2.9,0.8
				c0.9,0.5,1.6,1.2,2.1,2.1c0.5,0.9,0.8,1.9,0.8,2.9c0,1.2-0.3,2.2-0.9,3.1c1,0.6,1.7,1.3,2.3,2.2c0.6,0.9,0.8,1.9,0.8,3
				c0,1.1-0.3,2-0.8,2.9c-0.5,0.9-1.2,1.6-2.1,2.1c-0.9,0.5-1.9,0.8-2.9,0.8l-7.4,0C123,33.3,122.8,33.1,122.8,32.7z M128.9,21.6
				c0.7,0,1.2-0.2,1.7-0.7c0.5-0.5,0.7-1.1,0.7-1.7c0-0.7-0.2-1.3-0.7-1.8c-0.5-0.5-1.1-0.7-1.7-0.7h-2.1c-0.4,0-0.6,0.3-0.6,0.8
				v3.5c0,0.5,0.2,0.7,0.7,0.7H128.9z M130.6,29.9c0.7,0,1.3-0.2,1.8-0.7c0.5-0.5,0.7-1.1,0.7-1.8c0-0.7-0.2-1.3-0.7-1.8
				c-0.5-0.5-1.1-0.7-1.8-0.7h-3.8c-0.5,0-0.7,0.2-0.7,0.7v3.6c0,0.5,0.2,0.7,0.7,0.7L130.6,29.9z"/>
			<path class="st3" d="M144.4,32.5c-1.1-0.6-1.9-1.5-2.6-2.6c-0.6-1.1-1-2.3-1-3.6v-5.6c0-0.2,0.1-0.3,0.2-0.4
				c0.1-0.1,0.2-0.1,0.4-0.1h2.7c0.2,0,0.3,0,0.4,0.1c0.1,0.1,0.1,0.2,0.1,0.4v5.6c0,1,0.3,1.8,1,2.4c0.6,0.7,1.4,1,2.4,1
				c0.7,0,1.4-0.2,2-0.5c0.6-0.3,1.1-0.7,1.5-1.2c0.4-0.5,0.5-1.1,0.5-1.7V13.7c0-0.1,0.1-0.3,0.2-0.4c0.1-0.1,0.2-0.2,0.4-0.2h2.6
				c0.2,0,0.3,0.1,0.4,0.2c0.1,0.1,0.2,0.2,0.2,0.4v12.7c0,1.3-0.3,2.5-1,3.6c-0.7,1.1-1.6,1.9-2.7,2.6c-1.2,0.6-2.5,0.9-4,0.9
				C146.7,33.5,145.5,33.2,144.4,32.5z M141.1,16.6c-0.1-0.1-0.2-0.2-0.2-0.4v-2.5c0-0.2,0.1-0.3,0.2-0.4c0.1-0.1,0.2-0.1,0.4-0.1
				h2.7c0.2,0,0.3,0,0.4,0.1c0.1,0.1,0.1,0.2,0.1,0.4v2.5c0,0.1,0,0.3-0.1,0.4c-0.1,0.1-0.2,0.2-0.4,0.2h-2.7
				C141.3,16.7,141.2,16.7,141.1,16.6z"/>
			<path class="st3" d="M166,33.2c-0.1-0.1-0.1-0.2-0.1-0.3V17.4c0-0.2-0.1-0.3-0.2-0.5c-0.1-0.1-0.3-0.2-0.5-0.2h-4.8
				c-0.1,0-0.2,0-0.2-0.1c-0.1-0.1-0.1-0.2-0.1-0.2v-2.8c0-0.1,0-0.2,0.1-0.2c0.1-0.1,0.1-0.1,0.2-0.1h15.1c0.1,0,0.2,0,0.3,0.1
				c0.1,0.1,0.1,0.2,0.1,0.3v2.7c0,0.1,0,0.2-0.1,0.3c-0.1,0.1-0.2,0.1-0.3,0.1h-4.8c-0.2,0-0.4,0.1-0.5,0.2
				c-0.1,0.1-0.2,0.3-0.2,0.5v15.5c0,0.1,0,0.2-0.1,0.3c-0.1,0.1-0.2,0.1-0.3,0.1h-3.4C166.2,33.3,166.1,33.3,166,33.2z"/>
			<path class="st3" d="M186.4,33.2c-0.1-0.1-0.1-0.2-0.1-0.3V17.4c0-0.2-0.1-0.3-0.2-0.5c-0.1-0.1-0.3-0.2-0.5-0.2h-4.8
				c-0.1,0-0.2,0-0.2-0.1c-0.1-0.1-0.1-0.2-0.1-0.2v-2.8c0-0.1,0-0.2,0.1-0.2c0.1-0.1,0.1-0.1,0.2-0.1h15.1c0.1,0,0.2,0,0.3,0.1
				c0.1,0.1,0.1,0.2,0.1,0.3v2.7c0,0.1,0,0.2-0.1,0.3c-0.1,0.1-0.2,0.1-0.3,0.1h-4.8c-0.2,0-0.4,0.1-0.5,0.2
				c-0.1,0.1-0.2,0.3-0.2,0.5v15.5c0,0.1,0,0.2-0.1,0.3c-0.1,0.1-0.2,0.1-0.3,0.1h-3.4C186.6,33.3,186.5,33.3,186.4,33.2z"/>
			<path class="st3" d="M201,16.6c-0.1-0.1-0.2-0.2-0.2-0.4v-2.5c0-0.2,0.1-0.3,0.2-0.4c0.1-0.1,0.2-0.1,0.4-0.1h13.3
				c0.2,0,0.3,0.1,0.4,0.2c0.1,0.1,0.2,0.2,0.2,0.4v2.5c0,0.1-0.1,0.3-0.2,0.4c-0.1,0.1-0.2,0.2-0.4,0.2h-13.3
				C201.3,16.8,201.2,16.7,201,16.6z M201,33.1c-0.1-0.1-0.2-0.2-0.2-0.4V19.6c0-0.2,0.1-0.3,0.2-0.4c0.1-0.1,0.2-0.1,0.4-0.1h2.4
				c0.2,0,0.3,0,0.4,0.1c0.1,0.1,0.1,0.2,0.1,0.4v2.1c0,0.4,0.2,0.5,0.7,0.5h7.2c0.1,0,0.2,0,0.3,0.1c0.1,0.1,0.1,0.2,0.1,0.3v2.5
				c0,0.1,0,0.2-0.1,0.3c-0.1,0.1-0.2,0.1-0.3,0.1H205c-0.4,0-0.7,0.2-0.7,0.6v3.1c0,0.1,0.1,0.3,0.2,0.4c0.1,0.1,0.2,0.2,0.4,0.2
				h9.8c0.2,0,0.3,0,0.4,0.1c0.1,0.1,0.1,0.2,0.1,0.4v2.5c0,0.1,0,0.3-0.1,0.4c-0.1,0.1-0.2,0.2-0.4,0.2h-13.3
				C201.3,33.3,201.2,33.2,201,33.1z"/>
			<path class="st3" d="M219.9,33.2c-0.1-0.1-0.2-0.2-0.2-0.4v-19c0-0.1,0.1-0.3,0.2-0.4c0.1-0.1,0.2-0.2,0.4-0.2h6
				c1.2,0,2.3,0.3,3.3,0.8c1,0.6,1.8,1.3,2.4,2.3c0.6,1,0.9,2,0.9,3.2c0,1-0.2,1.9-0.7,2.8c-0.5,0.9-1.1,1.6-1.9,2.2
				c-0.1,0.1-0.2,0.2-0.2,0.4c0,0.1,0,0.1,0,0.1c0,0,0,0.1,0,0.1l3.3,7.4c0.1,0.1,0.1,0.3,0.1,0.4c0,0.2-0.1,0.3-0.4,0.3h-2.5
				c-0.2,0-0.4,0-0.5-0.1c-0.1,0-0.2-0.1-0.3-0.3l-3-6.7c0-0.1-0.1-0.2-0.2-0.2c-0.1,0-0.3-0.1-0.6-0.1h-2.3c-0.3,0-0.5,0-0.6,0.1
				c-0.1,0.1-0.2,0.2-0.2,0.4v6.3c0,0.1-0.1,0.3-0.2,0.4c-0.1,0.1-0.2,0.2-0.4,0.2h-2.3C220.2,33.3,220,33.3,219.9,33.2z
				 M226.3,22.3c0.7,0,1.4-0.3,1.9-0.8c0.5-0.5,0.8-1.1,0.8-1.9c0-0.7-0.3-1.4-0.8-1.9c-0.5-0.5-1.2-0.8-1.9-0.8h-2.7
				c-0.3,0-0.5,0.2-0.5,0.6v4.3c0,0.1,0,0.2,0.1,0.3c0.1,0.1,0.2,0.1,0.3,0.1H226.3z"/>
		</g>
		<g>
			<path class="st3" d="M125,48.4h-1.4V36.5h6.7v1.2H125v4.4h4.9v1.2H125V48.4z"/>
			<path class="st3" d="M143.6,48.4V36.5h1.4v10.7h5.3v1.3H143.6z"/>
			<path class="st3" d="M163.6,48.4V36.5h1.4v11.9H163.6z"/>
			<path class="st3" d="M184.9,42.2h4.1V48c-0.6,0.2-1.3,0.4-1.9,0.5c-0.7,0.1-1.4,0.2-2.3,0.2c-1.8,0-3.2-0.5-4.2-1.6
				c-1-1.1-1.5-2.6-1.5-4.5c0-1.2,0.2-2.3,0.7-3.3c0.5-0.9,1.2-1.6,2.2-2.1c0.9-0.5,2-0.7,3.3-0.7c1.3,0,2.5,0.2,3.6,0.7l-0.5,1.2
				c-1.1-0.5-2.1-0.7-3.1-0.7c-1.5,0-2.6,0.4-3.4,1.3c-0.8,0.9-1.2,2.1-1.2,3.6c0,1.6,0.4,2.8,1.2,3.7c0.8,0.8,1.9,1.2,3.5,1.2
				c0.8,0,1.6-0.1,2.4-0.3v-3.7h-2.7V42.2z"/>
			<path class="st3" d="M212.2,48.4h-1.4v-5.6h-6.3v5.6h-1.4V36.5h1.4v5.1h6.3v-5.1h1.4V48.4z"/>
			<path class="st3" d="M230.2,48.4h-1.4V37.7h-3.8v-1.2h8.9v1.2h-3.8V48.4z"/>
		</g>
	</g>
</g>
</svg>
