<?xml version="1.0" encoding="utf-8"?>
<!-- Generator: Adobe Illustrator 21.1.0, SVG Export Plug-In . SVG Version: 6.00 Build 0)  -->
<svg version="1.1"
	 id="svg4057" inkscape:version="0.91 r13725" sodipodi:docname="light-wide-1.svg" xmlns:cc="http://creativecommons.org/ns#" xmlns:dc="http://purl.org/dc/elements/1.1/" xmlns:inkscape="http://www.inkscape.org/namespaces/inkscape" xmlns:rdf="http://www.w3.org/1999/02/22-rdf-syntax-ns#" xmlns:sodipodi="http://sodipodi.sourceforge.net/DTD/sodipodi-0.dtd" xmlns:svg="http://www.w3.org/2000/svg"
	 xmlns="http://www.w3.org/2000/svg" xmlns:xlink="http://www.w3.org/1999/xlink" x="0px" y="0px" viewBox="0 0 239.9 62.3"
	 style="enable-background:new 0 0 239.9 62.3;" xml:space="preserve">
<style type="text/css">
	.st0{fill-rule:evenodd;clip-rule:evenodd;fill:#22b7eb;}
	.st1{fill-rule:evenodd;clip-rule:evenodd;fill:#FFFFFF;}
	.st2{fill:#FFFFFF;}
	.st3{fill:#22b7eb;}
</style>
<sodipodi:namedview  bordercolor="#666666" borderlayer="false" borderopacity="1.0" fit-margin-bottom="0" fit-margin-left="0" fit-margin-right="0" fit-margin-top="0" id="base" inkscape:current-layer="layer1" inkscape:cx="271.31351" inkscape:cy="-40.407035" inkscape:document-units="px" inkscape:pageopacity="0.0" inkscape:pageshadow="2" inkscape:showpageshadow="false" inkscape:window-height="666" inkscape:window-maximized="0" inkscape:window-width="1011" inkscape:window-x="2360" inkscape:window-y="241" inkscape:zoom="1.4" pagecolor="#ffffff" showborder="true" showgrid="true" showguides="false">
	<inkscape:grid  id="grid4093" originx="-10.04131" originy="-961.96023" type="xygrid"></inkscape:grid>
</sodipodi:namedview>
<g>
	<g>
		<g>
			<g>
				<path class="st0" d="M110.8,13.9c0.3,12.5-24.8,16.3-37.7,13.9c0,0.3-0.1,0.7-0.1,1c10,2.4,27.9-0.4,34.8-5.8
					c-2,11-23.9,10.8-35,7.2c-0.1,0.4-0.2,0.7-0.3,1.1c9.3,3.4,23.8,3.3,31.3-0.5c-4.2,9.9-22.5,6.4-31.8,1.9
					c-0.1,0.3-0.2,0.6-0.4,0.9c8.5,4.4,19.9,6.2,27.9,3.8c-5.6,8.5-21.2,3-28.6-2.3c-0.1,0.2-0.3,0.5-0.4,0.7c6.1,5,14,8,21,7.4
					c-6.6,5.9-17-0.3-22.1-5.8c-0.2,0.3-0.4,0.5-0.6,0.7c4.7,5.4,11.3,9.2,17.8,9.6c-7.3,4.5-15.7-2.6-19.1-8.3
					c-0.3,0.3-0.6,0.5-1,0.8c3.2,4.9,7.7,8.8,12.8,10.4c-6.8,2.1-12.2-3.5-14.8-9.1c-1.8,1.1-4,1.9-6.6,2.4v-4.3
					c7.5-1.5,11.8-8.2,13.2-15.6C82.4,26.1,103.5,22.6,110.8,13.9z"/>
			</g>
			<g>
				<path class="st0" d="M4.8,13.9C4.5,26.5,29.6,30.2,42.5,27.9c0,0.3,0.1,0.7,0.1,1c-10,2.4-27.9-0.4-34.8-5.8
					c2,11,23.9,10.8,35,7.2c0.1,0.4,0.2,0.7,0.3,1.1c-9.3,3.4-23.8,3.3-31.3-0.5c4.2,9.9,22.5,6.4,31.8,1.9c0.1,0.3,0.2,0.6,0.4,0.9
					c-8.5,4.4-19.9,6.2-27.9,3.8c5.6,8.5,21.2,3,28.6-2.3c0.1,0.2,0.3,0.5,0.4,0.7c-6.1,5-14,8-21.1,7.4c6.6,5.9,17-0.3,22.1-5.8
					c0.2,0.3,0.4,0.5,0.6,0.7c-4.7,5.4-11.3,9.2-17.8,9.6c7.3,4.5,15.7-2.6,19.1-8.3c0.3,0.3,0.6,0.5,1,0.8
					c-3.2,4.9-7.7,8.8-12.8,10.4c6.8,2.1,12.2-3.5,14.8-9.1c1.8,1.1,4,1.9,6.6,2.4v-4.3c-7.5-1.5-11.8-8.2-13.2-15.6
					C33.2,26.1,12.1,22.6,4.8,13.9z"/>
			</g>
		</g>
		<g>
			<path class="st1" d="M57.8,46.2c8.9,0,16.2-6.9,16.2-15.4c0-8.5-7.3-15.4-16.2-15.4c-8.9,0-16.2,6.9-16.2,15.4
				C41.7,39.3,48.9,46.2,57.8,46.2z"/>
		</g>
		<g>
			<path class="st0" d="M57.8,45.3c8.4,0,15.2-6.5,15.2-14.5c0-8-6.8-14.5-15.2-14.5c-8.4,0-15.2,6.5-15.2,14.5
				C42.6,38.8,49.5,45.3,57.8,45.3z"/>
		</g>
		<g>
			<path class="st1" d="M57.8,42.2c6.6,0,12-5.1,12-11.4c0-6.3-5.4-11.4-12-11.4c-6.6,0-12,5.1-12,11.4
				C45.8,37.1,51.2,42.2,57.8,42.2z"/>
		</g>
		<g>
			<path class="st0" d="M57.8,41.1c6,0,10.8-4.6,10.8-10.3c0-5.7-4.9-10.3-10.8-10.3c-6,0-10.8,4.6-10.8,10.3
				C47,36.5,51.9,41.1,57.8,41.1z"/>
		</g>
		<g>
			<path class="st2" d="M63.7,31.4l-13.6-4.9c-0.1-0.1-0.1-0.2,0-0.3c0.1,0,2.2-1,2.2-1c0.2-0.1,0.5-0.1,0.7-0.1
				c0.2,0,0.4,0,0.5,0.1c0,0,13.8,5,13.9,5.1c0.3,0.1,0.2,0.4,0,0.5c-0.2,0.1-1.9,0.9-1.9,0.9C65.1,31.7,64.5,31.7,63.7,31.4z
				 M65.8,32.1c-0.6,0.3-0.7,0.4-1,1.2c0,0-1.1,2.9-1.3,3.7c-0.1,0.1,0,0.3,0.2,0.2l2.2-1c0.3-0.2,0.7-0.6,0.9-0.9l1.4-3.9
				c0-0.1,0-0.3-0.2-0.2L65.8,32.1z M62.8,37.6c0,0.1,0,0.3,0,0.5c0,1.1,0.8,2.4,0.8,3c0,0.7-0.6,1.2-1.2,1.2
				c-0.7,0-1.2-0.6-1.2-1.2c0-0.6,0.8-1.9,0.8-3c0-0.2,0-0.2,0-0.3c0-0.5-0.3-0.8-0.6-0.8L47.9,32c-0.2-0.1-0.4-0.4-0.3-0.6l1.5-4.1
				c0.1-0.2,0.3-0.3,0.5-0.3c0.1,0,0.1,0,0.2,0L64,32.2c0.2,0.1,0.4,0.4,0.3,0.6L63,36.5C62.8,36.9,62.8,37.5,62.8,37.6z M52.3,31.8
				l-3-1.1c-0.2-0.1-0.3,0-0.4,0.2c-0.1,0.2,0,0.3,0.2,0.4l3,1.1c0,0,0.1,0,0.1,0c0.1,0,0.2-0.1,0.3-0.2
				C52.5,32.1,52.5,31.9,52.3,31.8z"/>
		</g>
	</g>
	<g>
		<g>
			<path class="st3" d="M121.9,34.6V15.8c0-0.2,0-0.4,0.1-0.5c0.1-0.1,0.2-0.1,0.5-0.1h5.4c1,0,2,0.3,2.9,0.8
				c0.9,0.5,1.6,1.2,2.1,2.1c0.5,0.9,0.8,1.9,0.8,2.9c0,1.2-0.3,2.2-0.9,3.1c1,0.6,1.7,1.3,2.3,2.2c0.6,0.9,0.8,1.9,0.8,3
				c0,1.1-0.3,2-0.8,2.9c-0.5,0.9-1.2,1.6-2.1,2.1c-0.9,0.5-1.9,0.8-2.9,0.8l-7.4,0C122.2,35.2,121.9,35,121.9,34.6z M128,23.5
				c0.7,0,1.2-0.2,1.7-0.7c0.5-0.5,0.7-1.1,0.7-1.7c0-0.7-0.2-1.3-0.7-1.8c-0.5-0.5-1.1-0.7-1.7-0.7h-2.1c-0.4,0-0.6,0.3-0.6,0.8
				v3.5c0,0.5,0.2,0.7,0.7,0.7H128z M129.8,31.8c0.7,0,1.3-0.2,1.8-0.7c0.5-0.5,0.7-1.1,0.7-1.8c0-0.7-0.2-1.3-0.7-1.8
				c-0.5-0.5-1.1-0.7-1.8-0.7H126c-0.5,0-0.7,0.2-0.7,0.7v3.6c0,0.5,0.2,0.7,0.7,0.7L129.8,31.8z"/>
			<path class="st3" d="M143.6,34.5c-1.1-0.6-1.9-1.5-2.6-2.6c-0.6-1.1-1-2.3-1-3.6v-5.6c0-0.2,0.1-0.3,0.2-0.4
				c0.1-0.1,0.2-0.1,0.4-0.1h2.7c0.2,0,0.3,0,0.4,0.1c0.1,0.1,0.1,0.2,0.1,0.4v5.6c0,1,0.3,1.8,1,2.4c0.6,0.7,1.4,1,2.4,1
				c0.7,0,1.4-0.2,2-0.5c0.6-0.3,1.1-0.7,1.5-1.2c0.4-0.5,0.5-1.1,0.5-1.7V15.6c0-0.1,0.1-0.3,0.2-0.4c0.1-0.1,0.2-0.2,0.4-0.2h2.6
				c0.2,0,0.3,0.1,0.4,0.2c0.1,0.1,0.2,0.2,0.2,0.4v12.7c0,1.3-0.3,2.5-1,3.6c-0.7,1.1-1.6,1.9-2.7,2.6c-1.2,0.6-2.5,0.9-4,0.9
				C145.8,35.4,144.7,35.1,143.6,34.5z M140.2,18.5c-0.1-0.1-0.2-0.2-0.2-0.4v-2.5c0-0.2,0.1-0.3,0.2-0.4c0.1-0.1,0.2-0.1,0.4-0.1
				h2.7c0.2,0,0.3,0,0.4,0.1c0.1,0.1,0.1,0.2,0.1,0.4v2.5c0,0.1,0,0.3-0.1,0.4c-0.1,0.1-0.2,0.2-0.4,0.2h-2.7
				C140.4,18.6,140.3,18.6,140.2,18.5z"/>
			<path class="st3" d="M165.1,35.1c-0.1-0.1-0.1-0.2-0.1-0.3V19.3c0-0.2-0.1-0.3-0.2-0.5c-0.1-0.1-0.3-0.2-0.5-0.2h-4.8
				c-0.1,0-0.2,0-0.2-0.1c-0.1-0.1-0.1-0.2-0.1-0.2v-2.8c0-0.1,0-0.2,0.1-0.2c0.1-0.1,0.1-0.1,0.2-0.1h15.1c0.1,0,0.2,0,0.3,0.1
				c0.1,0.1,0.1,0.2,0.1,0.3v2.7c0,0.1,0,0.2-0.1,0.3c-0.1,0.1-0.2,0.1-0.3,0.1h-4.8c-0.2,0-0.4,0.1-0.5,0.2
				c-0.1,0.1-0.2,0.3-0.2,0.5v15.5c0,0.1,0,0.2-0.1,0.3c-0.1,0.1-0.2,0.1-0.3,0.1h-3.4C165.3,35.2,165.2,35.2,165.1,35.1z"/>
			<path class="st3" d="M185.6,35.1c-0.1-0.1-0.1-0.2-0.1-0.3V19.3c0-0.2-0.1-0.3-0.2-0.5c-0.1-0.1-0.3-0.2-0.5-0.2H180
				c-0.1,0-0.2,0-0.2-0.1c-0.1-0.1-0.1-0.2-0.1-0.2v-2.8c0-0.1,0-0.2,0.1-0.2c0.1-0.1,0.1-0.1,0.2-0.1h15.1c0.1,0,0.2,0,0.3,0.1
				c0.1,0.1,0.1,0.2,0.1,0.3v2.7c0,0.1,0,0.2-0.1,0.3c-0.1,0.1-0.2,0.1-0.3,0.1h-4.8c-0.2,0-0.4,0.1-0.5,0.2
				c-0.1,0.1-0.2,0.3-0.2,0.5v15.5c0,0.1,0,0.2-0.1,0.3c-0.1,0.1-0.2,0.1-0.3,0.1h-3.4C185.7,35.2,185.6,35.2,185.6,35.1z"/>
			<path class="st3" d="M200.2,18.5c-0.1-0.1-0.2-0.2-0.2-0.4v-2.5c0-0.2,0.1-0.3,0.2-0.4c0.1-0.1,0.2-0.1,0.4-0.1h13.3
				c0.2,0,0.3,0.1,0.4,0.2c0.1,0.1,0.2,0.2,0.2,0.4v2.5c0,0.1-0.1,0.3-0.2,0.4c-0.1,0.1-0.2,0.2-0.4,0.2h-13.3
				C200.4,18.7,200.3,18.6,200.2,18.5z M200.2,35.1c-0.1-0.1-0.2-0.2-0.2-0.4V21.5c0-0.2,0.1-0.3,0.2-0.4c0.1-0.1,0.2-0.1,0.4-0.1
				h2.4c0.2,0,0.3,0,0.4,0.1c0.1,0.1,0.1,0.2,0.1,0.4v2.1c0,0.4,0.2,0.5,0.7,0.5h7.2c0.1,0,0.2,0,0.3,0.1c0.1,0.1,0.1,0.2,0.1,0.3
				V27c0,0.1,0,0.2-0.1,0.3c-0.1,0.1-0.2,0.1-0.3,0.1h-7.3c-0.4,0-0.7,0.2-0.7,0.6v3.1c0,0.1,0.1,0.3,0.2,0.4
				c0.1,0.1,0.2,0.2,0.4,0.2h9.8c0.2,0,0.3,0,0.4,0.1c0.1,0.1,0.1,0.2,0.1,0.4v2.5c0,0.1,0,0.3-0.1,0.4c-0.1,0.1-0.2,0.2-0.4,0.2
				h-13.3C200.4,35.2,200.3,35.2,200.2,35.1z"/>
			<path class="st3" d="M219.1,35.1c-0.1-0.1-0.2-0.2-0.2-0.4v-19c0-0.1,0.1-0.3,0.2-0.4c0.1-0.1,0.2-0.2,0.4-0.2h6
				c1.2,0,2.3,0.3,3.3,0.8c1,0.6,1.8,1.3,2.4,2.3c0.6,1,0.9,2,0.9,3.2c0,1-0.2,1.9-0.7,2.8c-0.5,0.9-1.1,1.6-1.9,2.2
				c-0.1,0.1-0.2,0.2-0.2,0.4c0,0.1,0,0.1,0,0.1c0,0,0,0.1,0,0.1l3.3,7.4c0.1,0.1,0.1,0.3,0.1,0.4c0,0.2-0.1,0.3-0.4,0.3h-2.5
				c-0.2,0-0.4,0-0.5-0.1c-0.1,0-0.2-0.1-0.3-0.3l-3-6.7c0-0.1-0.1-0.2-0.2-0.2c-0.1,0-0.3-0.1-0.6-0.1H223c-0.3,0-0.5,0-0.6,0.1
				c-0.1,0.1-0.2,0.2-0.2,0.4v6.3c0,0.1-0.1,0.3-0.2,0.4c-0.1,0.1-0.2,0.2-0.4,0.2h-2.3C219.3,35.2,219.2,35.2,219.1,35.1z
				 M225.4,24.2c0.7,0,1.4-0.3,1.9-0.8c0.5-0.5,0.8-1.1,0.8-1.9c0-0.7-0.3-1.4-0.8-1.9c-0.5-0.5-1.2-0.8-1.9-0.8h-2.7
				c-0.3,0-0.5,0.2-0.5,0.6v4.3c0,0.1,0,0.2,0.1,0.3c0.1,0.1,0.2,0.1,0.3,0.1H225.4z"/>
		</g>
		<g>
			<path class="st3" d="M124.1,50.3h-1.4V38.4h6.7v1.2h-5.3V44h4.9v1.2h-4.9V50.3z"/>
			<path class="st3" d="M142.7,50.3V38.4h1.4v10.7h5.3v1.3H142.7z"/>
			<path class="st3" d="M162.8,50.3V38.4h1.4v11.9H162.8z"/>
			<path class="st3" d="M184,44.1h4.1v5.8c-0.6,0.2-1.3,0.4-1.9,0.5c-0.7,0.1-1.4,0.2-2.3,0.2c-1.8,0-3.2-0.5-4.2-1.6
				c-1-1.1-1.5-2.6-1.5-4.5c0-1.2,0.2-2.3,0.7-3.3c0.5-0.9,1.2-1.6,2.2-2.1c0.9-0.5,2-0.7,3.3-0.7c1.3,0,2.5,0.2,3.6,0.7l-0.5,1.2
				c-1.1-0.5-2.1-0.7-3.1-0.7c-1.5,0-2.6,0.4-3.4,1.3c-0.8,0.9-1.2,2.1-1.2,3.6c0,1.6,0.4,2.8,1.2,3.7s1.9,1.2,3.5,1.2
				c0.8,0,1.6-0.1,2.4-0.3v-3.7H184V44.1z"/>
			<path class="st3" d="M211.4,50.3H210v-5.6h-6.3v5.6h-1.4V38.4h1.4v5.1h6.3v-5.1h1.4V50.3z"/>
			<path class="st3" d="M229.4,50.3H228V39.6h-3.8v-1.2h8.9v1.2h-3.8V50.3z"/>
		</g>
	</g>
</g>
</svg>
